RobotoCondensed-BoldItalic.ufo
<glyph name="exclam" format="1">
  <advance width="517.98"/>
  <unicode hex="0021"/>
  <outline>
    <contour>
      <point x="562.39811514092071" y="1455.9031748614323" type="line"/>
      <point x="268.47486141362924" y="1455.9552259359159" type="line"/>
      <point x="127.02052648190572" y="449.03447700193908" type="line"/>
      <point x="355.46918945609667" y="449.08447507399018" type="line"/>
    </contour>
    <contour>
      <point x="35.571112531228906" y="132.33764677481713" type="curve" smooth="yes"/>
      <point x="36.355325425193463" y="46.575293064258119"/>
      <point x="98.105226958311619" y="-19.651860802684038"/>
      <point x="185.30243556219568" y="-18.066904905841898" type="curve" smooth="yes"/>
      <point x="275.0528265351092" y="-16.435540626021702"/>
      <point x="336.506569100116" y="55.64188633957319"/>
      <point x="335.77559161461005" y="143.41018812177924" type="curve" smooth="yes"/>
      <point x="335.06696967479684" y="228.49426457588663"/>
      <point x="272.56578786070338" y="295.21360746768357"/>
      <point x="186.07672255339526" y="293.52402035284319" type="curve" smooth="yes"/>
      <point x="96.516076861331968" y="291.77442909040519"/>
      <point x="34.76921816114249" y="220.03366546456527"/>
    </contour>
  </outline>
</glyph>
<glyph name="quotedbl" format="1">
  <advance width="637.29"/>
  <unicode hex="0022"/>
  <outline>
    <contour>
      <point x="405.63150354964426" y="1536.9349215091856" type="line"/>
      <point x="206.02472047597553" y="1536.9737216576111" type="line"/>
      <point x="182.13709962412946" y="1386.0098336945996" type="line"/>
      <point x="119.44819735796642" y="986.03334307430339" type="line"/>
      <point x="281.52525424931264" y="986.09706804895336" type="line"/>
      <point x="381.76352792972557" y="1385.8403406427151" type="line"/>
    </contour>
    <contour>
      <point x="721.85258941959057" y="1536.9339312180221" type="line"/>
      <point x="524.20892944983757" y="1536.9592174670136" type="line"/>
      <point x="501.69710038032929" y="1395.0080285694164" type="line"/>
      <point x="437.60070084043912" y="986.03800428768011" type="line"/>
      <point x="598.68100808117606" y="986.09575000089126" type="line"/>
      <point x="697.98446896689927" y="1385.8539684697271" type="line"/>
    </contour>
  </outline>
</glyph>
<glyph name="numbersign" format="1">
  <advance width="1047.6"/>
  <unicode hex="0023"/>
  <outline>
    <contour>
      <point x="85.049314039408344" y="0.0" type="line"/>
      <point x="260.82778911171874" y="0.0" type="line"/>
      <point x="719.40434008823559" y="1455.8540672215652" type="line"/>
      <point x="544.59429739356437" y="1455.8700033170655" type="line"/>
    </contour>
    <contour>
      <point x="383.90417623620357" y="0.0" type="line"/>
      <point x="559.72544659192499" y="0.0" type="line"/>
      <point x="1019.0153596770872" y="1455.8388748314894" type="line"/>
      <point x="843.18845865754099" y="1455.8729967234626" type="line"/>
    </contour>
    <contour>
      <point x="1028.5040297115149" y="866.08562704628105" type="line"/>
      <point x="1059.3836365063601" y="1039.9004181245407" type="line"/>
      <point x="208.90400643894253" y="1039.9118087049901" type="line"/>
      <point x="178.02439964409785" y="866.09701762673149" type="line"/>
    </contour>
    <contour>
      <point x="887.42131652705643" y="410.08678639178748" type="line"/>
      <point x="918.3009361798097" y="583.90048052718203" type="line"/>
      <point x="68.791224615746629" y="583.91187632425465" type="line"/>
      <point x="37.911604962999647" y="410.09818218886153" type="line"/>
    </contour>
  </outline>
</glyph>
<glyph name="dollar" format="1">
  <advance width="1004.92"/>
  <unicode hex="0024"/>
  <outline>
    <contour>
      <point x="777.60422642611172" y="1687.9265868874122" type="line"/>
      <point x="630.37579519136011" y="1687.9326246037278" type="line"/>
      <point x="583.20231829350894" y="1391.0711894608655" type="line"/>
      <point x="730.43074952826714" y="1391.0651517445895" type="line"/>
    </contour>
    <contour>
      <point x="501.29702894264483" y="54.925623552778838" type="line"/>
      <point x="354.07562263748798" y="54.931573746065631" type="line"/>
      <point x="310.92313929691699" y="-215.92550727867797" type="line"/>
      <point x="458.14454560207332" y="-215.9314574719649" type="line"/>
    </contour>
    <contour>
      <point x="607.72215818664722" y="391.52182493859141" type="curve" smooth="yes"/>
      <point x="597.83462900223697" y="306.14942306387996"/>
      <point x="552.63216472371573" y="213.25823047287227"/>
      <point x="454.5290623574316" y="213.55504777846309" type="curve" smooth="yes"/>
      <point x="332.1332564314111" y="213.92536423588703"/>
      <point x="336.07774146416051" y="373.36755253398587"/>
      <point x="340.97974880053448" y="458.0815976357984" type="curve"/>
      <point x="64.004591573762298" y="458.4890727597695" type="line"/>
      <point x="52.310960993141038" y="209.80567919955158"/>
      <point x="156.936376164347" y="-16.335225353427823"/>
      <point x="432.42133614212366" y="-21.906902107784074" type="curve" smooth="yes"/>
      <point x="683.14530594013524" y="-26.977788425484292"/>
      <point x="861.71122982570455" y="145.97111620240773"/>
      <point x="878.96314883125456" y="393.56327144909301" type="curve" smooth="yes"/>
      <point x="895.58183080817901" y="632.06747997814193"/>
      <point x="765.57638288436124" y="736.81324137818183"/>
      <point x="582.64780481660853" y="854.18712896444197" type="curve" smooth="yes"/>
      <point x="505.81516230252942" y="903.48585549837208"/>
      <point x="469.09440646663421" y="971.28047200047149"/>
      <point x="478.98398205843614" y="1062.6137921613699" type="curve" smooth="yes"/>
      <point x="487.19434142566149" y="1138.4390258897461"/>
      <point x="521.93527057452991" y="1244.1929053811907"/>
      <point x="615.45745461131685" y="1242.4530583250601" type="curve" smooth="yes"/>
      <point x="719.38859630640331" y="1240.5195674343065"/>
      <point x="708.40368953222219" y="1071.5212088551461"/>
      <point x="704.79148005637273" y="1005.8415611679492" type="curve"/>
      <point x="981.36397661781677" y="1005.5182638167765" type="line"/>
      <point x="992.08548396826211" y="1236.3406233301725"/>
      <point x="906.22902493222909" y="1471.2425995156057"/>
      <point x="641.46455698050727" y="1477.4863766843348" type="curve" smooth="yes"/>
      <point x="397.39701629269268" y="1483.2420709810949"/>
      <point x="225.40251995612851" y="1298.5658006581546"/>
      <point x="208.79190307479524" y="1061.8868572388399" type="curve" smooth="yes"/>
      <point x="192.04042330658186" y="823.20080719176099"/>
      <point x="322.13658888054874" y="718.75153860128796"/>
      <point x="507.91723169658326" y="605.62221276774153" type="curve" smooth="yes"/>
      <point x="588.53167687050723" y="556.53282596869724"/>
      <point x="618.45627709921962" y="484.20398005374011"/>
    </contour>
  </outline>
</glyph>
<glyph name="percent" format="1">
  <advance width="1268.76"/>
  <unicode hex="0025"/>
  <outline>
    <contour>
      <point x="183.28134373195468" y="1099.1081825043634" type="line" smooth="yes"/>
      <point x="173.40621832275303" y="943.84149189268078"/>
      <point x="252.2724400587046" y="802.98200448416128"/>
      <point x="420.96548681957313" y="799.47273517016379" type="curve" smooth="yes"/>
      <point x="597.5665107185273" y="795.79895865187223"/>
      <point x="698.46647553797561" y="936.08079228753604"/>
      <point x="714.60922792209601" y="1099.0091768239558" type="curve" smooth="yes"/>
      <point x="721.2473806644083" y="1175.9179346959143" type="line" smooth="yes"/>
      <point x="731.61918772244928" y="1332.8182654525026"/>
      <point x="654.95175633522695" y="1474.3026676488187"/>
      <point x="483.83807402594323" y="1477.6693439171238" type="curve" smooth="yes"/>
      <point x="307.03488329672916" y="1481.1479617480043"/>
      <point x="205.47536013780217" y="1338.3508774293955"/>
      <point x="189.67233339840521" y="1175.4244594863135" type="curve" smooth="yes"/>
    </contour>
    <contour>
      <point x="373.52447432709516" y="1176.1019288326804" type="line" smooth="yes"/>
      <point x="380.68978088375741" y="1231.0873397175696"/>
      <point x="408.62931748736543" y="1312.0780293756457"/>
      <point x="477.37375435463787" y="1310.4432120323945" type="curve" smooth="yes"/>
      <point x="543.637694006228" y="1308.8673836059618"/>
      <point x="544.699254012859" y="1224.4899247938447"/>
      <point x="540.81416322752887" y="1177.0085000825241" type="curve" smooth="yes"/>
      <point x="532.38594354581801" y="1098.5835943820937" type="line" smooth="yes"/>
      <point x="524.66415442915672" y="1044.3636208810085"/>
      <point x="496.38920325493893" y="964.66840623436144"/>
      <point x="428.63997578702572" y="966.27950734313765" type="curve" smooth="yes"/>
      <point x="364.65010267650462" y="967.80120964694083"/>
      <point x="362.81370146715943" y="1049.5494178101881"/>
      <point x="366.06402547006832" y="1095.5865015040222" type="curve" smooth="yes"/>
    </contour>
    <contour>
      <point x="599.19178959422209" y="280.09429826020084" type="line" smooth="yes"/>
      <point x="589.41080353875861" y="124.33943006132318"/>
      <point x="668.51140216521082" y="-17.432455216286499"/>
      <point x="837.8703526024708" y="-20.981979511987383" type="curve" smooth="yes"/>
      <point x="1014.7705216419522" y="-24.689557093792523"/>
      <point x="1114.4947062481399" y="117.30503738283031"/>
      <point x="1130.5029844655608" y="279.90931621025379" type="curve" smooth="yes"/>
      <point x="1137.1150039215881" y="356.92644035279915" type="line" smooth="yes"/>
      <point x="1147.3631227250492" y="513.01418696274607"/>
      <point x="1070.6901419365313" y="654.49906409843948"/>
      <point x="900.38021568527199" y="657.89358715048877" type="curve" smooth="yes"/>
      <point x="724.22972176415965" y="661.40452116007157"/>
      <point x="621.27205668650083" y="519.25893115956239"/>
      <point x="605.53647459072738" y="356.53113654855815" type="curve" smooth="yes"/>
    </contour>
    <contour>
      <point x="788.53849617400181" y="357.31331777147619" type="line" smooth="yes"/>
      <point x="796.40173989857999" y="412.51872102421669"/>
      <point x="825.29324137431468" y="492.38463628973949"/>
      <point x="894.09763924938898" y="490.46744080180764" type="curve" smooth="yes"/>
      <point x="958.93048021503705" y="488.66091049258483"/>
      <point x="960.57289363074381" y="404.63102615976698"/>
      <point x="956.83274849692862" y="358.13566837773232" type="curve" smooth="yes"/>
      <point x="948.4160757568211" y="279.79604984841188" type="line" smooth="yes"/>
      <point x="940.97405261890253" y="221.53381720332317"/>
      <point x="918.66377850130198" y="143.10553509130617"/>
      <point x="844.78000054109953" y="146.58956576039262" type="curve" smooth="yes"/>
      <point x="783.22596204695662" y="149.49218070294793"/>
      <point x="777.0203624811478" y="232.94042184005841"/>
      <point x="780.1626122256157" y="278.04020476871631" type="curve" smooth="yes"/>
    </contour>
    <contour>
      <point x="1103.7285346916151" y="1237.846485716412" type="line"/>
      <point x="974.42861659710047" y="1321.8315456438836" type="line"/>
      <point x="206.44038711647994" y="194.81726364299158" type="line"/>
      <point x="334.43956184471324" y="111.69060248343506" type="line"/>
    </contour>
  </outline>
</glyph>
<glyph name="ampersand" format="1">
  <advance width="1150.42"/>
  <unicode hex="0026"/>
  <outline>
    <contour>
      <point x="311.15920684206611" y="777.47081459161006" type="line" smooth="yes"/>
      <point x="174.51813596026017" y="678.70481056732979"/>
      <point x="50.703804698857361" y="561.83237874754764"/>
      <point x="37.427920818894279" y="384.23962847407142" type="curve" smooth="yes"/>
      <point x="20.756426784216647" y="161.22348103285961"/>
      <point x="155.42728667690147" y="-15.266601396919464"/>
      <point x="385.13355652538809" y="-20.346863138194347" type="curve" smooth="yes"/>
      <point x="528.60779982422946" y="-23.519988145057411"/>
      <point x="645.79940508571087" y="37.738233378212911"/>
      <point x="753.47893573218721" y="127.3728800413077" type="curve" smooth="yes"/>
      <point x="765.43747528156166" y="137.32741328155731"/>
      <point x="777.7248714077549" y="146.88271044126233"/>
      <point x="789.70175711117054" y="156.81264403810891" type="curve" smooth="yes"/>
      <point x="958.66454789457612" y="296.89825012672776"/>
      <point x="1033.3183374149341" y="501.79099315867336"/>
      <point x="1051.8725601582428" y="715.6036028354622" type="curve"/>
      <point x="821.10049055580964" y="714.6474432927148" type="line"/>
      <point x="797.23389806533442" y="523.83105294565166"/>
      <point x="663.71092978052343" y="196.23197894827769"/>
      <point x="419.64919574135422" y="213.06279052643808" type="curve" smooth="yes"/>
      <point x="328.21193525461791" y="219.36842179851797"/>
      <point x="314.79393696791919" y="329.39862529037202"/>
      <point x="322.86925700874957" y="401.13484747868262" type="curve" smooth="yes"/>
      <point x="329.89692769763616" y="463.56439125592266"/>
      <point x="354.85821285691384" y="540.36186021532967"/>
      <point x="400.13916690450338" y="585.91579846439538" type="curve"/>
      <point x="711.61348215678038" y="814.52890162401945" type="line" smooth="yes"/>
      <point x="820.88025372982895" y="896.15974850430121"/>
      <point x="900.44255270750318" y="1004.9204408035926"/>
      <point x="908.70566742044639" y="1144.8577857392129" type="curve" smooth="yes"/>
      <point x="919.02108705014291" y="1319.5512863165932"/>
      <point x="805.21977073272251" y="1473.0893869232887"/>
      <point x="623.66705101209777" y="1477.507262891736" type="curve" smooth="yes"/>
      <point x="398.08625766992481" y="1482.9965112344942"/>
      <point x="262.40506595526512" y="1294.1398871592337"/>
      <point x="245.72694344073358" y="1085.3254357512058" type="curve" smooth="yes"/>
      <point x="233.08939077958092" y="927.09997459516762"/>
      <point x="308.55414678641017" y="780.23487235191647"/>
      <point x="379.11776569002024" y="643.84813527218375" type="curve" smooth="yes"/>
      <point x="720.16446749126419" y="0.0" type="line"/>
      <point x="1015.9290384984218" y="0.0" type="line"/>
      <point x="588.58295944294639" y="798.07624769086704" type="line" smooth="yes"/>
      <point x="542.32121543207245" y="884.73397061040771"/>
      <point x="471.26890268419891" y="987.0367973344861"/>
      <point x="484.04196484940098" y="1090.6477915493074" type="curve" smooth="yes"/>
      <point x="491.67731262837788" y="1152.5832902045124"/>
      <point x="526.01351041967303" y="1243.6554892697918"/>
      <point x="601.79983470669606" y="1243.4833222891964" type="curve" smooth="yes"/>
      <point x="661.98209870663027" y="1243.3466037086907"/>
      <point x="677.18026755936421" y="1174.9014389417071"/>
      <point x="673.05846293367597" y="1127.1122096017318" type="curve" smooth="yes"/>
      <point x="666.81676734042424" y="1054.7444364381956"/>
      <point x="629.11278816682773" y="1003.6436483347559"/>
      <point x="572.13734697046993" y="960.87690068713221" type="curve" smooth="yes"/>
    </contour>
  </outline>
</glyph>
<glyph name="quotesingle" format="1">
  <advance width="321.07"/>
  <unicode hex="0027"/>
  <outline>
    <contour>
      <point x="415.19016586522969" y="1535.9347872754199" type="line"/>
      <point x="206.85805599386026" y="1535.9569827492439" type="line"/>
      <point x="181.23279060682142" y="1374.0086279421967" type="line"/>
      <point x="120.12863495924677" y="984.03809209852227" type="line"/>
      <point x="300.35152258036624" y="984.07419778166366" type="line"/>
      <point x="389.75403264717607" y="1375.0758326127557" type="line"/>
    </contour>
  </outline>
</glyph>
<glyph name="parenleft" format="1">
  <advance width="642.14"/>
  <unicode hex="0028"/>
  <outline>
    <contour>
      <point x="112.61184449199868" y="564.70088256728479" type="line" smooth="yes"/>
      <point x="70.505893124627278" y="246.6513066866375"/>
      <point x="80.186807060208309" y="-251.60749649879554"/>
      <point x="384.65090133194695" y="-454.82923993508297" type="curve"/>
      <point x="447.82375457510955" y="-302.55051289730091" type="line"/>
      <point x="256.05071991749492" y="-97.42479971978247"/>
      <point x="310.67380528636431" y="319.23789136555752"/>
      <point x="344.28485654073648" y="565.90370976798465" type="curve" smooth="yes"/>
      <point x="348.03402345081281" y="592.65407908076156" type="line" smooth="yes"/>
      <point x="393.02150699067829" y="907.13659092978719"/>
      <point x="484.42596345707392" y="1234.8291008305391"/>
      <point x="723.70227644316674" y="1457.8111727463061" type="curve"/>
      <point x="681.72102144063729" y="1618.5132192833962" type="line"/>
      <point x="324.33691699057624" y="1437.8463954611052"/>
      <point x="167.56775212036516" y="953.09354402139616"/>
      <point x="115.85579103992265" y="587.95880940394829" type="curve" smooth="yes"/>
    </contour>
  </outline>
</glyph>
<glyph name="parenright" format="1">
  <advance width="643.11"/>
  <unicode hex="0029"/>
  <outline>
    <contour>
      <point x="539.44955296238538" y="596.70329033476014" type="line" smooth="yes"/>
      <point x="581.59822372279939" y="916.78103466981702"/>
      <point x="559.29425505924883" y="1415.1727655899308"/>
      <point x="252.74394668445564" y="1615.7442200478397" type="curve"/>
      <point x="189.64280755698724" y="1461.7210420854758" type="line"/>
      <point x="378.63419501844294" y="1258.9292095222524"/>
      <point x="325.37626427679783" y="837.89894176525331"/>
      <point x="292.29857649185368" y="595.03841807019444" type="curve" smooth="yes"/>
      <point x="288.54353116150168" y="568.26852543412349" type="line" smooth="yes"/>
      <point x="243.28481637928081" y="252.28386915068995"/>
      <point x="149.64387269774994" y="-73.790295360445668"/>
      <point x="-87.701916716929588" y="-299.81373781045198" type="curve"/>
      <point x="-45.263552869394843" y="-457.57422882434349" type="line"/>
      <point x="315.62566147049955" y="-283.33826271978967"/>
      <point x="484.51532925191208" y="208.0325952677743"/>
      <point x="536.22046941745305" y="573.45293615382661" type="curve" smooth="yes"/>
    </contour>
  </outline>
</glyph>
<glyph name="asterisk" format="1">
  <advance width="902.1"/>
  <unicode hex="002A"/>
  <outline>
    <contour>
      <point x="136.0525661267223" y="699.99678275516146" type="line"/>
      <point x="283.39129489307305" y="583.99012086997004" type="line"/>
      <point x="506.15413881502263" y="862.48779808722827" type="line"/>
      <point x="632.17846350095795" y="569.56236288468961" type="line"/>
      <point x="795.4033675222189" y="674.79310888320731" type="line"/>
      <point x="634.72130242723233" y="945.65052804670756" type="line"/>
      <point x="963.87985496657643" y="1035.0261668894118" type="line"/>
      <point x="936.36163439636289" y="1227.5011645483555" type="line"/>
      <point x="627.38013999243924" y="1108.1126741486564" type="line"/>
      <point x="708.43263405434902" y="1455.8798219362609" type="line"/>
      <point x="515.55580831236534" y="1455.9769462943566" type="line"/>
      <point x="473.35222933764112" y="1101.3486754610303" type="line"/>
      <point x="187.56919566180454" y="1229.7211759314523" type="line"/>
      <point x="101.49193968835498" y="1057.3355015585912" type="line"/>
      <point x="391.4074601830448" y="967.53136304650047" type="line"/>
    </contour>
  </outline>
</glyph>
<glyph name="plus" format="1">
  <advance width="943.81"/>
  <unicode hex="002B"/>
  <outline>
    <contour>
      <point x="914.93756248756722" y="816.91029021065117" type="line"/>
      <point x="100.33928895494724" y="816.92382530333737" type="line"/>
      <point x="54.211212465272624" y="554.08808029370505" type="line"/>
      <point x="868.80948599789303" y="554.07454520102465" type="line"/>
    </contour>
    <contour>
      <point x="707.75523102622753" y="1205.933026511372" type="line"/>
      <point x="447.03325876747465" y="1205.9464223812597" type="line"/>
      <point x="262.95175389162023" y="146.06536657536441" type="line"/>
      <point x="523.67372615037357" y="146.05197070548223" type="line"/>
    </contour>
  </outline>
</glyph>
<glyph name="comma" format="1">
  <advance width="487.90999999999997"/>
  <unicode hex="002C"/>
  <outline>
    <contour>
      <point x="314.0813732147367" y="246.85730405503543" type="line"/>
      <point x="75.27102951583232" y="246.97476301405936" type="line"/>
      <point x="38.29479157201918" y="34.17047318898441" type="line" smooth="yes"/>
      <point x="15.475272130318661" y="-90.48995281063739"/>
      <point x="-52.658388205803476" y="-182.7812457633587"/>
      <point x="-116.88717521337324" y="-288.34714657717797" type="curve"/>
      <point x="29.300802244754223" y="-367.66743151215513" type="line"/>
      <point x="160.65321329019645" y="-264.40029946527306"/>
      <point x="255.9250807785618" y="-115.81425058360863"/>
      <point x="282.0700035639866" y="50.47976406747496" type="curve" smooth="yes"/>
    </contour>
  </outline>
</glyph>
<glyph name="hyphen" format="1">
  <advance width="721.68"/>
  <unicode hex="002D"/>
  <outline>
    <contour>
      <point x="619.68577434203371" y="741.90821726528975" type="line"/>
      <point x="143.62718884811011" y="741.92129037084908" type="line"/>
      <point x="102.31713605705569" y="507.09171662121634" type="line"/>
      <point x="578.37572155096848" y="507.07864351564956" type="line"/>
    </contour>
  </outline>
</glyph>
<glyph name="period" format="1">
  <advance width="579.09"/>
  <unicode hex="002E"/>
  <outline>
    <contour>
      <point x="43.372490895281445" y="138.20931499896798" type="curve" smooth="yes"/>
      <point x="44.620956005212527" y="48.678170457693014"/>
      <point x="114.36891979387262" y="-13.226455099583823"/>
      <point x="202.44664777947168" y="-12.135802452025006" type="curve" smooth="yes"/>
      <point x="294.17761276059213" y="-10.999912345548349"/>
      <point x="364.07374823068324" y="57.222091415275557"/>
      <point x="362.8692412736238" y="149.76829295159948" type="curve" smooth="yes"/>
      <point x="361.70632419709113" y="239.1190081999107"/>
      <point x="293.22829575139258" y="302.18419721560122"/>
      <point x="204.79387216323022" y="301.15135930911219" type="curve" smooth="yes"/>
      <point x="112.29592769577327" y="300.07106297831672"/>
      <point x="42.070919408764212" y="231.54887568289388"/>
    </contour>
  </outline>
</glyph>
<glyph name="slash" format="1">
  <advance width="657.66"/>
  <unicode hex="002F"/>
  <outline>
    <contour>
      <point x="777.42262449494331" y="1455.7827442553285" type="line"/>
      <point x="567.96177741692043" y="1455.8171017017664" type="line"/>
      <point x="-131.43438594636376" y="-124.779921622304" type="line"/>
      <point x="78.999641052153251" y="-124.81735513889321" type="line"/>
    </contour>
  </outline>
</glyph>
<glyph name="zero" format="1">
  <advance width="1004.92"/>
  <unicode hex="0030"/>
  <outline>
    <contour>
      <point x="955.10515920430589" y="856.33924000439833" type="line" smooth="yes"/>
      <point x="987.13032182233076" y="1108.7492829897869"/>
      <point x="961.56553822656701" y="1467.3364928985147"/>
      <point x="634.65163199125084" y="1476.4455506883667" type="curve" smooth="yes"/>
      <point x="293.320464317914" y="1485.9563279068066"/>
      <point x="174.31842951025484" y="1135.5295938972008"/>
      <point x="133.62152729332382" y="855.83345388961391" type="curve" smooth="yes"/>
      <point x="95.01461480782261" y="601.65566840424754" type="line" smooth="yes"/>
      <point x="62.889549528547327" y="349.27222565880936"/>
      <point x="89.012737141475327" y="-11.202701768103088"/>
      <point x="416.29434941576267" y="-20.383439485241595" type="curve" smooth="yes"/>
      <point x="757.71917215797737" y="-29.960915365829102"/>
      <point x="874.55987293222631" y="324.51518146642547"/>
      <point x="916.12305491037137" y="602.67178241995771" type="curve" smooth="yes"/>
    </contour>
    <contour>
      <point x="635.94015508509938" y="563.44927243226164" type="line" smooth="yes"/>
      <point x="622.43156526840573" y="460.82403027052925"/>
      <point x="596.90778570336624" y="202.20485222928497"/>
      <point x="440.83099330531672" y="213.2002144963941" type="curve" smooth="yes"/>
      <point x="308.71134420332953" y="222.50783404802351"/>
      <point x="357.56903940852044" y="488.5899659648079"/>
      <point x="366.45700505424986" y="563.07058991285794" type="curve" smooth="yes"/>
      <point x="414.32227558631837" y="897.59345747939835" type="line" smooth="yes"/>
      <point x="427.53602536829175" y="1000.2101072236942"/>
      <point x="453.00020822895215" y="1253.8217237355659"/>
      <point x="608.03902209983698" y="1243.3007910261049" type="curve" smooth="yes"/>
      <point x="740.13822582148941" y="1234.3365400838452"/>
      <point x="692.76130600924546" y="973.42578175085544"/>
      <point x="684.00759772443496" y="898.45934350210018" type="curve" smooth="yes"/>
    </contour>
  </outline>
</glyph>
<glyph name="one" format="1">
  <advance width="1004.92"/>
  <unicode hex="0031"/>
  <outline>
    <contour>
      <point x="839.30579590736909" y="1458.1541950957876" type="line"/>
      <point x="804.71203204285041" y="1457.7169668880945" type="line"/>
      <point x="264.98553762445363" y="1247.5509556776894" type="line"/>
      <point x="221.55861582070446" y="1000.580295225806" type="line"/>
      <point x="509.34125753032583" y="1105.6890669529828" type="line"/>
      <point x="317.2093256621439" y="0.0" type="line"/>
      <point x="593.44746058836859" y="0.0" type="line"/>
    </contour>
  </outline>
</glyph>
<glyph name="two" format="1">
  <advance width="1004.92"/>
  <unicode hex="0032"/>
  <outline>
    <contour>
      <point x="869.72602412386561" y="234.91709426836613" type="line"/>
      <point x="395.70396794696234" y="235.3066905305983" type="line"/>
      <point x="619.45558136685895" y="501.95578195301016" type="line" smooth="yes"/>
      <point x="767.44858146999536" y="666.26323367786222"/>
      <point x="943.54485027010969" y="835.80085795467153"/>
      <point x="964.33936042646758" y="1069.402470165056" type="curve" smooth="yes"/>
      <point x="985.33312913608711" y="1305.2425154492962"/>
      <point x="855.82740649359744" y="1473.6756253947276"/>
      <point x="613.35136997814061" y="1477.7260326888793" type="curve" smooth="yes"/>
      <point x="341.09260582971427" y="1482.2739414226694"/>
      <point x="156.44246976500099" y="1254.2694887424109"/>
      <point x="137.82831604314416" y="997.31393400026332" type="curve"/>
      <point x="411.79823951677054" y="998.61382374126038" type="line"/>
      <point x="423.181274537565" y="1096.2391785740517"/>
      <point x="460.15018575715237" y="1249.3468543790748"/>
      <point x="587.27581681147899" y="1245.1638479332094" type="curve" smooth="yes"/>
      <point x="686.60007573954886" y="1241.8956319811534"/>
      <point x="686.44517689622035" y="1115.0443318564621"/>
      <point x="677.81306375971394" y="1043.6068398959965" type="curve" smooth="yes"/>
      <point x="662.31685816708023" y="915.36361081228756"/>
      <point x="562.94078512847943" y="795.53418811341544"/>
      <point x="481.78348812689808" y="701.83328310438515" type="curve" smooth="yes"/>
      <point x="30.852894581374883" y="211.24092890609526" type="line"/>
      <point x="-2.3560384454532937" y="0.0" type="line"/>
      <point x="832.49180505975619" y="0.0" type="line"/>
    </contour>
  </outline>
</glyph>
<glyph name="three" format="1">
  <advance width="1004.92"/>
  <unicode hex="0033"/>
  <outline>
    <contour>
      <point x="376.37855735406634" y="857.70499505978694" type="line"/>
      <point x="351.14402353480375" y="698.9541017606374" type="line"/>
      <point x="543.45118157649665" y="697.75559859606881" type="line" smooth="yes"/>
      <point x="757.88258770804453" y="698.80755921786476"/>
      <point x="950.40556309065573" y="846.3540046776543"/>
      <point x="964.95113220232417" y="1068.8012765140472" type="curve" smooth="yes"/>
      <point x="980.64176666231913" y="1308.7601809895018"/>
      <point x="833.78070244008507" y="1473.594285817657"/>
      <point x="592.53821221154431" y="1477.9073724816565" type="curve" smooth="yes"/>
      <point x="357.11659196505025" y="1482.1163899302012"/>
      <point x="174.79086718313869" y="1312.3708871047845"/>
      <point x="157.53805546795539" y="1079.7843909865137" type="curve"/>
      <point x="432.9508050134981" y="1080.9462265154621" type="line"/>
      <point x="446.2321472907999" y="1157.6615861680345"/>
      <point x="490.68072268224574" y="1245.9490690679061"/>
      <point x="581.49240014346617" y="1244.5086610290707" type="curve" smooth="yes"/>
      <point x="676.5275955125469" y="1243.0012617252712"/>
      <point x="690.84610983879998" y="1139.6420459149679"/>
      <point x="683.04793148739623" y="1064.7731484466401" type="curve" smooth="yes"/>
      <point x="671.80898861731214" y="956.8700942363896"/>
      <point x="617.23438403995237" y="860.22772981934395"/>
      <point x="499.10781524925505" y="856.51182641802723" type="curve" smooth="yes"/>
    </contour>
    <contour>
      <point x="340.0880442110668" y="629.25106119403767" type="line"/>
      <point x="487.07314013694099" y="627.68324903685459" type="line" smooth="yes"/>
      <point x="602.27518919637964" y="621.74111830919196"/>
      <point x="617.54628954353211" y="518.37178394495481"/>
      <point x="606.90411177031638" y="420.51433467552255" type="curve" smooth="yes"/>
      <point x="596.17608820503051" y="321.86751217614585"/>
      <point x="535.0994230941709" y="211.80074481757256"/>
      <point x="422.04806394238187" y="215.54873055611003" type="curve" smooth="yes"/>
      <point x="324.32986176517858" y="218.78837695137304"/>
      <point x="303.78798819870332" y="321.7301883629425"/>
      <point x="305.80099615686686" y="400.40316591838018" type="curve"/>
      <point x="30.624413617985709" y="400.69468561727291" type="line"/>
      <point x="23.4126171531952" y="170.53301711519597"/>
      <point x="152.17159320131185" y="-15.025970758189336"/>
      <point x="394.79489718018266" y="-20.543928744214767" type="curve" smooth="yes"/>
      <point x="655.47529585874236" y="-26.472557462476388"/>
      <point x="860.04052331530772" y="155.33126697971841"/>
      <point x="877.32164416087232" y="416.43703429206613" type="curve" smooth="yes"/>
      <point x="892.39333629138662" y="644.15986393962692"/>
      <point x="751.55411062029339" y="777.09586952682798"/>
      <point x="528.77097799868477" y="782.8989659456513" type="curve" smooth="yes"/>
      <point x="364.97100089888721" y="783.97375089463742" type="line"/>
    </contour>
  </outline>
</glyph>
<glyph name="four" format="2">
  <advance width="1005"/>
  <unicode hex="0034"/>
  <guideline x="0.0" y="901.0" angle="0.0" identifier="yTEcWBTf1g"/>
  <guideline x="0.0" y="651.0" angle="0.0" identifier="NbfmYlw0iQ"/>
  <outline>
    <contour>
      <point x="928.8300227490936" y="549.911926623561" type="line"/>
      <point x="327.1006113976022" y="550.26405093785" type="line"/>
      <point x="609.3814019086522" y="1014.4743914355248" type="line"/>
      <point x="913.2792546202287" y="1455.6587573397592" type="line"/>
      <point x="681.5702675433541" y="1455.7255930755346" type="line"/>
      <point x="45.29321107504602" y="512.347240378612" type="line"/>
      <point x="24.936393587746394" y="315.0875231032325" type="line"/>
      <point x="887.5255959050456" y="315.0855883164511" type="line"/>
    </contour>
    <contour>
      <point x="966.3954372990695" y="1455.931523179818" type="line"/>
      <point x="690.1591484474383" y="1455.9446386200307" type="line"/>
      <point x="437.4908946931439" y="0.0" type="line"/>
      <point x="713.7271835447698" y="0.0" type="line"/>
    </contour>
  </outline>
</glyph>
<glyph name="five" format="1">
  <advance width="1004.92"/>
  <unicode hex="0035"/>
  <outline>
    <contour>
      <point x="359.13054766765293" y="660.68371395916643" type="line"/>
      <point x="397.02912663627706" y="707.33004757470655"/>
      <point x="441.02105251324355" y="739.48042043318492"/>
      <point x="503.83485612468905" y="739.02139583440987" type="curve" smooth="yes"/>
      <point x="630.62927031388949" y="738.09481995850626"/>
      <point x="633.6984737523926" y="584.84988067860161"/>
      <point x="625.25783302892296" y="492.11800268681714" type="curve" smooth="yes"/>
      <point x="616.02355423881295" y="390.66693491116996"/>
      <point x="582.65997018145458" y="211.07719108694914"/>
      <point x="446.89437701081681" y="215.68563970947801" type="curve" smooth="yes"/>
      <point x="348.67861815479415" y="219.01949085718215"/>
      <point x="333.46048400287543" y="330.18490916041083"/>
      <point x="331.07834444493466" y="406.74709471667057" type="curve"/>
      <point x="58.35123448773615" y="406.79193341758764" type="line"/>
      <point x="54.368061987109158" y="183.21206986569203"/>
      <point x="187.95398360946876" y="-15.936277308929137"/>
      <point x="426.70352332711741" y="-21.447461257061232" type="curve" smooth="yes"/>
      <point x="707.25832697513897" y="-27.923658581943577"/>
      <point x="877.73175288156244" y="216.30931491167667"/>
      <point x="899.83580064792284" y="474.59672812761852" type="curve" smooth="yes"/>
      <point x="918.23579332513373" y="689.60198698440445"/>
      <point x="856.94615598213909" y="957.7776967170347"/>
      <point x="592.81020638163363" y="955.60732613989228" type="curve" smooth="yes"/>
      <point x="534.00848049375963" y="955.12416004324677"/>
      <point x="477.85622216825499" y="934.88427021231041"/>
      <point x="429.89636658976156" y="901.57957309910182" type="curve"/>
      <point x="514.85882769388024" y="1213.9288692818395" type="line"/>
      <point x="970.64037297328821" y="1214.0571650543463" type="line"/>
      <point x="1008.9751420185468" y="1455.9229473426126" type="line"/>
      <point x="322.83667656114119" y="1455.8923564456823" type="line"/>
      <point x="136.93108658894758" y="719.70321312828639" type="line"/>
    </contour>
  </outline>
</glyph>
<glyph name="six" format="1">
  <advance width="1004.92"/>
  <unicode hex="0036"/>
  <outline>
    <contour>
      <point x="834.6858334277938" y="1473.1216061044324" type="line" smooth="yes"/>
      <point x="386.06783007651501" y="1470.6361151699302"/>
      <point x="161.17620982858654" y="1073.2582284095683"/>
      <point x="106.97344355236257" y="672.69304610261656" type="curve" smooth="yes"/>
      <point x="92.452398846556548" y="559.75706875090373" type="line" smooth="yes"/>
      <point x="64.781157662075387" y="311.90592575988245"/>
      <point x="139.34841305561292" y="-13.578396366444434"/>
      <point x="443.05870385816002" y="-20.66651730988276" type="curve" smooth="yes"/>
      <point x="723.21779209948784" y="-27.204990193401159"/>
      <point x="893.6968186253107" y="232.63568932579057"/>
      <point x="916.66245111975502" y="486.65885719359215" type="curve" smooth="yes"/>
      <point x="934.66343832155337" y="685.76801714617613"/>
      <point x="886.47464821253766" y="970.36030923647127"/>
      <point x="634.84841510891135" y="975.87421741014293" type="curve" smooth="yes"/>
      <point x="423.53343347024656" y="980.50478152146457"/>
      <point x="304.24252568256247" y="781.54066621335983"/>
      <point x="274.56556347056102" y="596.14040972013254" type="curve"/>
      <point x="349.43654221760136" y="534.40274178073469" type="line"/>
      <point x="366.18483844964118" y="626.65361832922588"/>
      <point x="420.76256999592289" y="746.48263765114416"/>
      <point x="532.43094315696442" y="743.3620114582925" type="curve" smooth="yes"/>
      <point x="647.02291732024923" y="740.15968383461689"/>
      <point x="647.63495368170334" y="563.18685558421953"/>
      <point x="640.59250610333231" y="485.34423839670603" type="curve" smooth="yes"/>
      <point x="631.90466006557824" y="389.3144609968752"/>
      <point x="586.92957106257768" y="210.73330941720275"/>
      <point x="459.54431987588998" y="215.4137599532686" type="curve" smooth="yes"/>
      <point x="332.68929676348159" y="220.07472859287171"/>
      <point x="356.55915826411905" y="443.32925072979435"/>
      <point x="364.52214780936851" y="520.13035594774044" type="curve" smooth="yes"/>
      <point x="397.14740931452462" y="767.1862140132539" type="line" smooth="yes"/>
      <point x="432.02967904781036" y="1011.6899951165303"/>
      <point x="569.28295099216439" y="1237.7677809872657"/>
      <point x="842.56583511972963" y="1232.9093693246114" type="curve" smooth="yes"/>
      <point x="852.80296821558727" y="1232.4436753180028" type="line"/>
      <point x="877.46920009994597" y="1473.0108116984181" type="line"/>
    </contour>
  </outline>
</glyph>
<glyph name="eight" format="1">
  <advance width="1004.92"/>
  <unicode hex="0038"/>
  <outline>
    <contour>
      <point x="872.34081838989948" y="408.55577584522399" type="curve" smooth="yes"/>
      <point x="887.88927037234237" y="633.32589823777198"/>
      <point x="744.33888401550951" y="801.27777294502857"/>
      <point x="516.62748515352291" y="806.49696708067961" type="curve" smooth="yes"/>
      <point x="272.40954780740594" y="812.09449462118801"/>
      <point x="78.382500967413577" y="635.10914185791171"/>
      <point x="60.953494730318695" y="391.73457851300685" type="curve" smooth="yes"/>
      <point x="44.275029911585214" y="158.84039984873874"/>
      <point x="177.99526151486452" y="-14.923769917258596"/>
      <point x="417.14198596629183" y="-20.522595595327644" type="curve" smooth="yes"/>
      <point x="674.86496916609644" y="-26.556322628292705"/>
      <point x="854.84739069995396" y="155.66887190300457"/>
    </contour>
    <contour>
      <point x="601.48850365669898" y="428.91294302643541" type="curve" smooth="yes"/>
      <point x="593.39203521864863" y="339.38605841764985"/>
      <point x="553.14458708251027" y="211.17273634287969"/>
      <point x="442.00704887320649" y="213.33710321682275" type="curve" smooth="yes"/>
      <point x="341.80966471175657" y="215.28841420165287"/>
      <point x="334.27675468815335" y="338.29054604734961"/>
      <point x="341.13353913168487" y="413.02962233919362" type="curve" smooth="yes"/>
      <point x="349.29380300574593" y="501.97664834937888"/>
      <point x="390.82951651811862" y="632.88320547182525"/>
      <point x="501.69488429159503" y="630.66483038666445" type="curve" smooth="yes"/>
      <point x="601.41229826080723" y="628.66952174205733"/>
      <point x="608.13024055568485" y="502.35410042821729"/>
    </contour>
    <contour>
      <point x="967.54213931910544" y="1077.2060020704989" type="curve" smooth="yes"/>
      <point x="982.84561251110802" y="1298.0682103432707"/>
      <point x="864.13433232800662" y="1472.1401856751711"/>
      <point x="633.11836860790754" y="1477.5985166618937" type="curve" smooth="yes"/>
      <point x="385.57946553602324" y="1483.447243491411"/>
      <point x="217.7465228665985" y="1300.5174308909288"/>
      <point x="202.66670129728476" y="1060.2201656414832" type="curve" smooth="yes"/>
      <point x="189.46515171710001" y="849.85320296940893"/>
      <point x="330.32494762236809" y="695.16700528866374"/>
      <point x="541.43027764992382" y="690.39056261043174" type="curve" smooth="yes"/>
      <point x="769.26343192216223" y="685.23563828218244"/>
      <point x="951.77022601587589" y="849.5831901026653"/>
    </contour>
    <contour>
      <point x="688.04517274830164" y="1062.1884150455185" type="curve" smooth="yes"/>
      <point x="681.51540576616298" y="986.91298068527101"/>
      <point x="653.87258608823868" y="860.60705132568808"/>
      <point x="555.49547443600534" y="862.22766739803103" type="curve" smooth="yes"/>
      <point x="467.49936095509355" y="863.67727202064907"/>
      <point x="469.49677037807334" y="986.79886825989945"/>
      <point x="474.90304855191789" y="1047.8027546288156" type="curve" smooth="yes"/>
      <point x="481.5703762227381" y="1123.0361937039281"/>
      <point x="510.74389186704502" y="1245.5824898576898"/>
      <point x="608.19143468720279" y="1243.7276440240012" type="curve" smooth="yes"/>
      <point x="694.98085534679853" y="1242.0756680925422"/>
      <point x="693.31430381300652" y="1122.931184378893"/>
    </contour>
  </outline>
</glyph>
<glyph name="nine" format="1">
  <advance width="1004.92"/>
  <unicode hex="0039"/>
  <outline>
    <contour>
      <point x="202.96681170075965" y="228.49376113719856" type="line"/>
      <point x="177.68863517083321" y="-16.0039948763201" type="line"/>
      <point x="201.04902902231873" y="-16.10390351844897" type="line" smooth="yes"/>
      <point x="659.36187934935299" y="-14.308144111806682"/>
      <point x="877.07616723254159" y="370.83848453309412"/>
      <point x="932.74524718788859" y="781.43715999293011" type="curve" smooth="yes"/>
      <point x="945.8341532336641" y="882.24526644121875" type="line" smooth="yes"/>
      <point x="972.67632775276547" y="1120.4760702761357"/>
      <point x="917.41130484379096" y="1470.2115441155227"/>
      <point x="613.51335342829373" y="1477.5370990764116" type="curve" smooth="yes"/>
      <point x="331.60221069074765" y="1484.3326551523635"/>
      <point x="165.87149123812347" y="1204.8028720325744"/>
      <point x="143.36149558274445" y="954.19834879844996" type="curve" smooth="yes"/>
      <point x="124.98535191452861" y="749.61613592918388"/>
      <point x="181.99226280491095" y="473.12677554701082"/>
      <point x="436.38635723889661" y="469.50126337675312" type="curve" smooth="yes"/>
      <point x="630.48321979413731" y="466.73508069877641"/>
      <point x="754.89554708709863" y="675.71665716221014"/>
      <point x="774.9530421064967" y="846.01755259573349" type="curve"/>
      <point x="692.04403515020192" y="903.34222629053011" type="line"/>
      <point x="676.84541179056737" y="820.88254886740162"/>
      <point x="625.85653344401601" y="690.15451215898793"/>
      <point x="522.46494935781709" y="691.79096072527182" type="curve" smooth="yes"/>
      <point x="404.85169163324042" y="693.65250534401844"/>
      <point x="412.58936111962566" y="879.78482170955749"/>
      <point x="419.55527101633038" y="957.02139788687134" type="curve" smooth="yes"/>
      <point x="427.56496760933533" y="1045.8312662653657"/>
      <point x="464.69934657762644" y="1246.1210095076933"/>
      <point x="588.78364482949621" y="1242.0292028602805" type="curve" smooth="yes"/>
      <point x="708.00799041168648" y="1238.0976581228761"/>
      <point x="684.25975870495131" y="1005.3408170736445"/>
      <point x="677.19154843289516" y="936.83713385940052" type="curve" smooth="yes"/>
      <point x="638.95077663653728" y="652.77990872432451" type="line" smooth="yes"/>
      <point x="604.9498874388571" y="411.9069959808412"/>
      <point x="476.74912307005974" y="222.7505923626407"/>
      <point x="213.47262148719" y="228.01225855659627" type="curve" smooth="yes"/>
    </contour>
  </outline>
</glyph>
<glyph name="less" format="1">
  <advance width="887.55"/>
  <unicode hex="003C"/>
  <outline>
    <contour>
      <point x="270.93797103430154" y="640.28724763818411" type="line"/>
      <point x="75.876973080897855" y="698.12835025501613" type="line"/>
      <point x="42.242234418469181" y="507.95711198280964" type="line"/>
      <point x="686.9905399413243" y="142.33954368373108" type="line"/>
      <point x="734.18872961317334" y="411.71363186401879" type="line"/>
    </contour>
    <contour>
      <point x="803.67828826970594" y="815.86487499486714" type="line"/>
      <point x="855.46143278948034" y="1110.0712823437564" type="line"/>
      <point x="84.019648669248326" y="745.64835322841816" type="line"/>
      <point x="46.585490059561707" y="533.13681807730029" type="line"/>
      <point x="287.50580693094071" y="594.50752962284139" type="line"/>
    </contour>
  </outline>
</glyph>
<glyph name="equal" format="1">
  <advance width="1000.0699999999999"/>
  <unicode hex="003D"/>
  <outline>
    <contour>
      <point x="935.78149921003273" y="981.90606688995229" type="line"/>
      <point x="194.90407303257871" y="981.91932284531788" type="line"/>
      <point x="153.24379857524031" y="745.09387698428145" type="line"/>
      <point x="894.12122475270644" y="745.08062102892416" type="line"/>
    </contour>
    <contour>
      <point x="860.76488384652509" y="548.90583781511361" type="line"/>
      <point x="119.88745722218935" y="548.91909116950615" type="line"/>
      <point x="78.051397207985062" y="311.09413423574279" type="line"/>
      <point x="818.92882383231733" y="311.08088088135366" type="line"/>
    </contour>
  </outline>
</glyph>
<glyph name="greater" format="1">
  <advance width="902.1"/>
  <unicode hex="003E"/>
  <outline>
    <contour>
      <point x="626.35414943170053" y="601.7262578673143" type="line"/>
      <point x="824.67046803267419" y="540.0423768116359" type="line"/>
      <point x="858.45964871420074" y="731.11852211653661" type="line"/>
      <point x="204.00803150497785" y="1096.721782887101" type="line"/>
      <point x="157.14211231672596" y="829.2209198269569" type="line"/>
    </contour>
    <contour>
      <point x="87.116722441604296" y="422.03294380677954" type="line"/>
      <point x="35.546950373999337" y="129.012367889388" type="line"/>
      <point x="816.68038220438359" y="493.42118224411405" type="line"/>
      <point x="854.13212863136744" y="705.93646843029228" type="line"/>
      <point x="607.45205792205843" y="643.25871601733297" type="line"/>
    </contour>
  </outline>
</glyph>
<glyph name="question" format="1">
  <advance width="890.4599999999999"/>
  <unicode hex="003F"/>
  <outline>
    <contour>
      <point x="517.4893507359443" y="448.87410299353627" type="line"/>
      <point x="532.57370698981003" y="543.72852054348903"/>
      <point x="564.11125785919671" y="619.068335840641"/>
      <point x="634.24057426167144" y="686.45008863625196" type="curve" smooth="yes"/>
      <point x="755.0833408562487" y="802.55841313613519"/>
      <point x="883.68787348722617" y="913.82436043625853"/>
      <point x="898.53410922055241" y="1092.0986000900127" type="curve" smooth="yes"/>
      <point x="917.12461762175622" y="1315.3342275940095"/>
      <point x="791.73427767692738" y="1471.7770029611445"/>
      <point x="564.3961738600533" y="1476.9660949402958" type="curve" smooth="yes"/>
      <point x="312.53437186760618" y="1482.7149510916886"/>
      <point x="158.71819369456225" y="1309.4659946380855"/>
      <point x="136.01191328636799" y="1068.5591486560929" type="curve"/>
      <point x="411.1902259268212" y="1070.2949283504879" type="line"/>
      <point x="423.32216134394798" y="1136.0745324649881"/>
      <point x="454.10397488043765" y="1243.9786659210604"/>
      <point x="540.51796680286282" y="1242.0539843485935" type="curve" smooth="yes"/>
      <point x="622.74598455678404" y="1240.2225361422252"/>
      <point x="619.92212108548165" y="1141.109749021691"/>
      <point x="611.87143746303457" y="1081.7789604276488" type="curve" smooth="yes"/>
      <point x="597.64162163936976" y="976.91007798740361"/>
      <point x="519.40476617302602" y="900.20318995227706"/>
      <point x="447.01178437394969" y="829.82903912567031" type="curve" smooth="yes"/>
      <point x="334.55785875894634" y="720.51112838898007"/>
      <point x="291.26948270981558" y="602.81359837721379"/>
      <point x="278.61516004686422" y="447.88356464512992" type="curve"/>
    </contour>
    <contour>
      <point x="190.25730235816246" y="136.07283255012436" type="curve" smooth="yes"/>
      <point x="191.05795099237099" y="50.520864817449493"/>
      <point x="253.799189316124" y="-15.365264058184323"/>
      <point x="340.5060991222756" y="-13.69410711936573" type="curve" smooth="yes"/>
      <point x="429.78945880051219" y="-11.973292637787523"/>
      <point x="491.2345463537626" y="59.800868181866392"/>
      <point x="490.50054994325149" y="147.15562241103837" type="curve" smooth="yes"/>
      <point x="489.78356617769151" y="232.48565908408085"/>
      <point x="428.28808942270604" y="299.56131293906543"/>
      <point x="341.26433201484656" y="297.95966284789171" type="curve" smooth="yes"/>
      <point x="251.22112668071685" y="296.30244058665249"/>
      <point x="189.43249198912741" y="224.20656195692652"/>
    </contour>
  </outline>
</glyph>
<glyph name="at" format="1">
  <advance width="1521.93"/>
  <unicode hex="0040"/>
  <outline>
    <contour>
      <point x="1433.0747391510668" y="543.43898207767461" type="curve" smooth="yes"/>
      <point x="1494.6694867395008" y="932.00847362618742"/>
      <point x="1400.811976291938" y="1407.4892134040467"/>
      <point x="923.61120890205984" y="1416.021002854169" type="curve" smooth="yes"/>
      <point x="418.63637060281991" y="1425.0493600832315"/>
      <point x="127.5821371900273" y="892.80878114802852"/>
      <point x="54.423989735068616" y="457.65114963078048" type="curve" smooth="yes"/>
      <point x="-15.006287535025322" y="44.66755089980893"/>
      <point x="68.364156489655784" y="-447.15999657839109"/>
      <point x="577.48598914428646" y="-452.92805169307303" type="curve" smooth="yes"/>
      <point x="684.23007741654249" y="-454.13740031029982"/>
      <point x="801.56732432818353" y="-430.69230960494764"/>
      <point x="888.99060692862918" y="-366.70728976004165" type="curve"/>
      <point x="865.61172413956103" y="-209.29333460300245" type="line"/>
      <point x="777.18951680454268" y="-250.96428159015133"/>
      <point x="679.6121718116475" y="-278.01766031719529"/>
      <point x="581.24876254450157" y="-276.97298912306735" type="curve" smooth="yes"/>
      <point x="185.56422512766875" y="-272.77061101030233"/>
      <point x="189.54387724557051" y="166.8900447472779"/>
      <point x="241.64860966787415" y="457.07628078856413" type="curve" smooth="yes"/>
      <point x="302.50176426065548" y="795.98499524842055"/>
      <point x="510.4060149308005" y="1262.4025250664135"/>
      <point x="920.25698885495592" y="1252.3512739176936" type="curve" smooth="yes"/>
      <point x="1310.0269558151069" y="1242.7924926108331"/>
      <point x="1311.7956553795641" y="828.62536534321146"/>
      <point x="1265.3367372749481" y="535.59907521270031" type="curve" smooth="yes"/>
      <point x="1248.2601450869001" y="427.8933717422147"/>
      <point x="1194.9824135432964" y="131.25109593389237"/>
      <point x="1035.3940106503728" y="139.19645301015211" type="curve" smooth="yes"/>
      <point x="957.54923293105423" y="143.07207645327313"/>
      <point x="982.40424482231083" y="252.81727438228012"/>
      <point x="990.83774674433448" y="301.04487677163729" type="curve"/>
      <point x="1127.4964733761738" y="880.86986442342436" type="line"/>
      <point x="935.77816019201737" y="880.90412775448863" type="line"/>
      <point x="798.46999106524288" y="301.14806389196798" type="line"/>
      <point x="777.71046754348015" y="158.54455081740389"/>
      <point x="820.58996106204404" y="-16.414076463651803"/>
      <point x="992.18217896755095" y="-21.812700236500859" type="curve" smooth="yes"/>
      <point x="1279.6606851400588" y="-30.857331260855887"/>
      <point x="1396.6222155824526" y="313.47881334120393"/>
    </contour>
    <contour>
      <point x="618.80214646897798" y="423.49217492814631" type="curve" smooth="yes"/>
      <point x="641.20792763972202" y="560.07522606109796"/>
      <point x="691.71133668387267" y="821.77378123220058"/>
      <point x="878.49670000116168" y="814.6492973079271" type="curve" smooth="yes"/>
      <point x="938.60554342740693" y="812.35658828034923"/>
      <point x="982.41731490208019" y="782.24398793852799"/>
      <point x="1019.1466116387503" y="737.08733145322424" type="curve"/>
      <point x="1123.1138008436762" y="880.12256715043918" type="line"/>
      <point x="1044.4242919660744" y="944.85582047009098"/>
      <point x="969.59539051012086" y="989.44215361248587"/>
      <point x="864.43224678316233" y="991.42770935207818" type="curve" smooth="yes"/>
      <point x="586.62829709749963" y="996.67284759377924"/>
      <point x="442.76901309373227" y="648.62620971225726"/>
      <point x="403.60830285724342" y="423.50971286235597" type="curve" smooth="yes"/>
      <point x="377.34314787275758" y="272.52369540708844"/>
      <point x="376.9758623438521" y="-12.885394164352222"/>
      <point x="591.5892687265092" y="-19.613632064296667" type="curve" smooth="yes"/>
      <point x="756.88698029128466" y="-24.795798204193886"/>
      <point x="841.88620889115043" y="146.95436271035501"/>
      <point x="888.11040745813216" y="279.49994909676656" type="curve"/>
      <point x="820.84970899823213" y="383.63791076465969" type="line"/>
      <point x="801.653239747567" y="326.42078217845352"/>
      <point x="757.7762223369549" y="154.86318451146937"/>
      <point x="669.67092013391959" y="159.36603504983853" type="curve" smooth="yes"/>
      <point x="569.85152056443792" y="164.46756499017442"/>
      <point x="609.92499585570067" y="369.37809129551141"/>
    </contour>
  </outline>
</glyph>
<glyph name="A" format="1">
  <advance width="1187.28"/>
  <unicode hex="0041"/>
  <outline>
    <contour>
      <point x="728.1360820482076" y="1178.859937963786" type="line"/>
      <point x="803.0876558793499" y="1455.9075984826877" type="line"/>
      <point x="606.2137548171512" y="1455.7451843033718" type="line"/>
      <point x="-87.76539349008834" y="0.0" type="line"/>
      <point x="224.6702013986993" y="0.0" type="line"/>
    </contour>
    <contour>
      <point x="764.0945254089182" y="0.0" type="line"/>
      <point x="1060.4720831763116" y="0.0" type="line"/>
      <point x="868.6719264321534" y="1456.0359237991304" type="line"/>
      <point x="681.1937901572492" y="1455.9770290267031" type="line"/>
      <point x="665.2410105121028" y="1202.7760642411092" type="line"/>
    </contour>
    <contour>
      <point x="866.5210445976163" y="542.9035438292821" type="line"/>
      <point x="227.50198567641598" y="542.9167350206402" type="line"/>
      <point x="184.43684568188468" y="298.0945125955836" type="line"/>
      <point x="823.4559046030768" y="298.0813214041963" type="line"/>
    </contour>
    <contour>
      <point x="769.3320635163637" y="1600" type="move" name="top"/>
    </contour>
    <contour>
      <point x="495.0602363347963" y="7" type="move" name="bottom"/>
    </contour>
    <contour>
      <point x="1340.6620635163636" y="1600" type="move" name="top_dd"/>
    </contour>
    <contour>
      <point x="993.8884620390215" y="-407" type="move" name="bottom_dd"/>
    </contour>
    <contour>
      <point x="1340.6620635163636" y="1600" type="move" name="top0315"/>
    </contour>
    <contour>
      <point x="769.3320635163637" y="1600" type="move" name="parent_top"/>
    </contour>
  </outline>
</glyph>
<glyph name="B" format="1">
  <advance width="1115.5"/>
  <unicode hex="0042"/>
  <outline>
    <contour>
      <point x="688.9554482785602" y="1612" type="move" name="top"/>
    </contour>
    <contour>
      <point x="413.12858252534534" y="10" type="move" name="bottom"/>
    </contour>
    <contour>
      <point x="1268.8820635163638" y="1600" type="move" name="top_dd"/>
    </contour>
    <contour>
      <point x="922.10846203902156" y="-407" type="move" name="bottom_dd"/>
    </contour>
    <contour>
      <point x="1270.95544827856" y="1612" type="move" name="top0315"/>
    </contour>
    <contour>
      <point x="608.50937875136799" y="633.77393491547275" type="line"/>
      <point x="696.16830063638156" y="712.96015212522616" type="line"/>
      <point x="907.25356878453977" y="724.83817079728408"/>
      <point x="1066.6286864818526" y="844.45211369584649"/>
      <point x="1081.7989703857529" y="1064.4847177428353" type="curve" smooth="yes"/>
      <point x="1099.762689604227" y="1325.0338243415317"/>
      <point x="928.80208085136701" y="1450.1193027090267"/>
      <point x="683.21822998929986" y="1455.164521516921" type="curve" smooth="yes"/>
      <point x="261.392337018901" y="1455.96448235977" type="line"/>
      <point x="8.750440746089609" y="0.0" type="line"/>
      <point x="296.62721130083355" y="0.0" type="line"/>
      <point x="506.74095183558006" y="1211.2020245037641" type="line"/>
      <point x="670.55552784297595" y="1209.9313492229169" type="line" smooth="yes"/>
      <point x="779.45627446806884" y="1205.2920079892583"/>
      <point x="802.32342260861503" y="1133.0987824542908"/>
      <point x="788.10855851624513" y="1033.3101302637651" type="curve" smooth="yes"/>
      <point x="771.31907111360124" y="915.44756696434172"/>
      <point x="696.03790365415" y="847.51042011594927"/>
      <point x="576.91194819705618" y="845.4286467297643" type="curve" smooth="yes"/>
      <point x="344.28482929920028" y="847.03856562897374" type="line"/>
      <point x="307.68984370356111" y="634.07877117229145" type="line"/>
    </contour>
    <contour>
      <point x="492.4606949723775" y="0.0" type="line" smooth="yes"/>
      <point x="771.68950198512368" y="-4.0602671223691607"/>
      <point x="970.51080759971182" y="150.91979510196609"/>
      <point x="990.79551063525878" y="436.73359729191679" type="curve" smooth="yes"/>
      <point x="1003.6879382710343" y="618.38938764696923"/>
      <point x="920.79072649663749" y="755.19572724664317"/>
      <point x="729.63060396435969" y="762.99123534610817" type="curve"/>
      <point x="679.73779849682046" y="846.35671626468729" type="line"/>
      <point x="391.58947756984043" y="846.99374721110667" type="line"/>
      <point x="352.05976587763996" y="634.33162513616253" type="line"/>
      <point x="611.9721055918676" y="632.52741599159776" type="line"/>
      <point x="716.35662595036035" y="626.08993341024666"/>
      <point x="719.49890724532338" y="523.57544782264108"/>
      <point x="707.48007735081035" y="439.52373239688416" type="curve" smooth="yes"/>
      <point x="691.42512249941274" y="327.24603912833123"/>
      <point x="624.59260537029968" y="245.38861234213198"/>
      <point x="506.29396590711247" y="242.40531993998792" type="curve" smooth="yes"/>
      <point x="265.25949929028894" y="243.40818161327306" type="line"/>
      <point x="111.71987151420107" y="0.0" type="line"/>
    </contour>
  </outline>
</glyph>
<glyph name="C" format="1">
  <advance width="1132.96"/>
  <unicode hex="0043"/>
  <outline>
    <contour>
      <point x="756.16432002449471" y="1608" type="move" name="top"/>
    </contour>
    <contour>
      <point x="474.90241569963268" y="-3" type="move" name="bottom"/>
    </contour>
    <contour>
      <point x="1286.3420635163639" y="1600" type="move" name="top_dd"/>
    </contour>
    <contour>
      <point x="939.5684620390216" y="-407" type="move" name="bottom_dd"/>
    </contour>
    <contour>
      <point x="1287.7243200244948" y="1608" type="move" name="top0315"/>
    </contour>
    <contour>
      <point x="760.88322685747949" y="485.09795083776885" type="line"/>
      <point x="736.52643750089567" y="334.8752754014796"/>
      <point x="688.32493311766291" y="214.73628194684247"/>
      <point x="516.25932455629106" y="222.24439273207648" type="curve" smooth="yes"/>
      <point x="320.2571496157272" y="230.79697948026259"/>
      <point x="362.57062357910365" y="466.1617716603842"/>
      <point x="379.56479926562793" y="602.94846048591251" type="curve" smooth="yes"/>
      <point x="414.57121517201256" y="853.4844764977114" type="line" smooth="yes"/>
      <point x="437.3442527209267" y="1021.3181601152121"/>
      <point x="484.30108132096154" y="1242.3940599012233"/>
      <point x="696.14170800870932" y="1234.4595765311201" type="curve" smooth="yes"/>
      <point x="859.8817238467467" y="1228.3266998822876"/>
      <point x="859.33088087391855" y="1097.709781260525"/>
      <point x="852.3728649453933" y="961.92552419353945" type="curve"/>
      <point x="1140.3040083923449" y="961.02567844245209" type="line"/>
      <point x="1139.8073178486825" y="1244.9177246675554"/>
      <point x="1030.7729482747957" y="1470.5098420834483"/>
      <point x="719.08017204028567" y="1477.1936815113918" type="curve" smooth="yes"/>
      <point x="353.34363643394158" y="1485.0364178957791"/>
      <point x="176.82172431272937" y="1174.0922131140514"/>
      <point x="128.88325835604405" y="850.80259567738108" type="curve" smooth="yes"/>
      <point x="91.208073792840437" y="603.66681870106925" type="line" smooth="yes"/>
      <point x="51.748940360542171" y="301.33814126007695"/>
      <point x="141.36852613479539" y="-12.596498205453718"/>
      <point x="493.82041357826711" y="-20.327492575859051" type="curve" smooth="yes"/>
      <point x="810.42450073345401" y="-27.272169289603816"/>
      <point x="1006.5945877734628" y="183.52391635558087"/>
      <point x="1038.5472499108462" y="488.10949263075111" type="curve"/>
    </contour>
  </outline>
</glyph>
<glyph name="D" format="1">
  <advance width="1122.29"/>
  <unicode hex="0044"/>
  <outline>
    <contour>
      <point x="395.41773880052233" y="0.0" type="line" smooth="yes"/>
      <point x="766.4987369764847" y="-2.2465783708975673"/>
      <point x="984.2623201555898" y="268.00283100808105"/>
      <point x="1036.6274049535152" y="615.2135562150344" type="curve" smooth="yes"/>
      <point x="1070.8796168241313" y="840.3156563537883" type="line" smooth="yes"/>
      <point x="1110.9083461574032" y="1160.007242222786"/>
      <point x="969.3383658516016" y="1446.1110287080285"/>
      <point x="620.4513138621223" y="1454.9419655168776" type="curve" smooth="yes"/>
      <point x="376.96460007277494" y="1456.05642819132" type="line"/>
      <point x="333.8567774129483" y="1211.3502140166524" type="line"/>
      <point x="607.5335610831805" y="1210.0397018178642" type="line" smooth="yes"/>
      <point x="821.0506747599063" y="1203.022630657613"/>
      <point x="805.5277013618934" y="1010.3800684855157"/>
      <point x="783.8134864955409" y="842.9194386943275" type="curve" smooth="yes"/>
      <point x="751.0300195901387" y="614.6348955524236" type="line" smooth="yes"/>
      <point x="721.172651438855" y="402.86462170424977"/>
      <point x="645.4406883218304" y="240.67094032063153"/>
      <point x="408.8453627889047" y="242.3052638829121" type="curve" smooth="yes"/>
      <point x="173.6747711419555" y="244.0575244950953" type="line"/>
      <point x="128.80218176061942" y="0.0" type="line"/>
    </contour>
    <contour>
      <point x="549.295828757129" y="1455.9294289116237" type="line"/>
      <point x="261.41854994657797" y="1455.9423961118819" type="line"/>
      <point x="8.749655726063608" y="0.0" type="line"/>
      <point x="296.62693453655834" y="0.0" type="line"/>
    </contour>
    <contour>
      <point x="609.8004097069129" y="1603" type="move" name="top"/>
    </contour>
    <contour>
      <point x="300.67888619361094" y="729" type="move" name="cross"/>
    </contour>
    <contour>
      <point x="335.52858252534537" y="10" type="move" name="bottom"/>
    </contour>
    <contour>
      <point x="1275.6720635163638" y="1600" type="move" name="top_dd"/>
    </contour>
    <contour>
      <point x="928.8984620390215" y="-407" type="move" name="bottom_dd"/>
    </contour>
    <contour>
      <point x="1276.1904097069128" y="1603" type="move" name="top0315"/>
    </contour>
  </outline>
</glyph>
<glyph name="E" format="1">
  <advance width="974.85"/>
  <unicode hex="0045"/>
  <outline>
    <contour>
      <point x="712.62040970691282" y="1603" type="move" name="top"/>
    </contour>
    <contour>
      <point x="440.28858252534542" y="10" type="move" name="bottom"/>
    </contour>
    <contour>
      <point x="95.694228433523747" y="1457" type="move" name="tonos"/>
    </contour>
    <contour>
      <point x="680.09076189018174" y="0" type="move" name="ogonek"/>
    </contour>
    <contour>
      <point x="1128.2320635163637" y="1600" type="move" name="top_dd"/>
    </contour>
    <contour>
      <point x="781.45846203902158" y="-407" type="move" name="bottom_dd"/>
    </contour>
    <contour>
      <point x="1128.7504097069127" y="1603" type="move" name="top0315"/>
    </contour>
    <contour>
      <point x="864.19213498349893" y="243.90985340812318" type="line"/>
      <point x="249.41054810858441" y="243.92296612367889" type="line"/>
      <point x="206.52118841300978" y="0.0" type="line"/>
      <point x="821.30277528792533" y="0.0" type="line"/>
    </contour>
    <contour>
      <point x="549.29785790892038" y="1455.9349669653152" type="line"/>
      <point x="261.41722111501554" y="1455.948840335825" type="line"/>
      <point x="8.7474640056921515" y="0.0" type="line"/>
      <point x="296.62810079960116" y="0.0" type="line"/>
    </contour>
    <contour>
      <point x="890.6332851267141" y="866.90201688314721" type="line"/>
      <point x="357.34154685502699" y="866.91511963467269" type="line"/>
      <point x="315.68451887277303" y="630.09632408869913" type="line"/>
      <point x="848.97625714445235" y="630.08322133717695" type="line"/>
    </contour>
    <contour>
      <point x="1072.2344333564481" y="1455.9083779377252" type="line"/>
      <point x="459.39288893009609" y="1455.9214852264126" type="line"/>
      <point x="416.32775023239424" y="1211.0886663987264" type="line"/>
      <point x="1029.1692946587352" y="1211.0755591100024" type="line"/>
    </contour>
  </outline>
</glyph>
<glyph name="F" format="1">
  <advance width="945.75"/>
  <unicode hex="0046"/>
  <outline>
    <contour>
      <point x="549.2998052545611" y="1455.9349048698052" type="line"/>
      <point x="261.4159281824206" y="1455.9487704452786" type="line"/>
      <point x="8.745656711395398" y="0.0" type="line"/>
      <point x="296.6295337835309" y="0.0" type="line"/>
    </contour>
    <contour>
      <point x="884.6502592765049" y="837.9036017131237" type="line"/>
      <point x="368.81492922068145" y="837.9166556773209" type="line"/>
      <point x="325.9264163938609" y="594.0951210808278" type="line"/>
      <point x="841.7617464496951" y="594.082067116634" type="line"/>
    </contour>
    <contour>
      <point x="1045.0723006640926" y="1455.9095129195111" type="line"/>
      <point x="475.88376920710414" y="1455.9226145144567" type="line"/>
      <point x="432.82020211090105" y="1211.0881083734666" type="line"/>
      <point x="1002.0087335678941" y="1211.0750067785393" type="line"/>
    </contour>
    <contour>
      <point x="714.17544827856" y="1612" type="move" name="top"/>
    </contour>
    <contour>
      <point x="350.0785825253454" y="10" type="move" name="bottom"/>
    </contour>
    <contour>
      <point x="1099.1320635163638" y="1600" type="move" name="top_dd"/>
    </contour>
    <contour>
      <point x="752.3584620390217" y="-407" type="move" name="bottom_dd"/>
    </contour>
    <contour>
      <point x="1101.2054482785602" y="1612" type="move" name="top0315"/>
    </contour>
    <contour>
      <point x="714.17544827856" y="1612" type="move" name="parent_top"/>
    </contour>
  </outline>
</glyph>
<glyph name="G" format="1">
  <advance width="1163.03"/>
  <unicode hex="0047"/>
  <outline>
    <contour>
      <point x="759.07432002449468" y="1608" type="move" name="top"/>
    </contour>
    <contour>
      <point x="506.91241569963267" y="-3" type="move" name="bottom"/>
    </contour>
    <contour>
      <point x="1328.0520635163639" y="1600" type="move" name="top_dd"/>
    </contour>
    <contour>
      <point x="981.27846203902163" y="-407" type="move" name="bottom_dd"/>
    </contour>
    <contour>
      <point x="1329.4343200244948" y="1608" type="move" name="top0315"/>
    </contour>
    <contour>
      <point x="1103.3699716123474" y="765.83875958142175" type="line"/>
      <point x="616.31714588770649" y="765.91940118771424" type="line"/>
      <point x="577.28301722953279" y="544.07308895584117" type="line"/>
      <point x="778.72344511082531" y="543.95391585225661" type="line"/>
      <point x="727.32014260978565" y="276.57953695600992" type="line"/>
      <point x="669.88447816313953" y="246.74946641367794"/>
      <point x="619.02600659750215" y="224.52568951369219"/>
      <point x="552.26705649685721" y="225.31469040303921" type="curve" smooth="yes"/>
      <point x="347.37302809354128" y="227.73626189852243"/>
      <point x="364.96709291060648" y="454.02805177239702"/>
      <point x="383.92711525768766" y="603.04858168474743" type="curve" smooth="yes"/>
      <point x="419.57667978168865" y="853.48522365020847" type="line" smooth="yes"/>
      <point x="443.00328719173802" y="1022.8986498255503"/>
      <point x="499.56758452099132" y="1243.0090562562782"/>
      <point x="711.46878542548723" y="1234.1703602534697" type="curve" smooth="yes"/>
      <point x="854.90351682173809" y="1228.1874966281364"/>
      <point x="867.91842397060293" y="1114.6863835632403"/>
      <point x="868.33289234065217" y="992.47369390690631" type="curve"/>
      <point x="1146.5615164794367" y="991.95498851512707" type="line"/>
      <point x="1143.6420602176329" y="1276.4776404378938"/>
      <point x="1030.892146753381" y="1470.927470934847"/>
      <point x="725.92523478724706" y="1477.1778968336503" type="curve" smooth="yes"/>
      <point x="354.17145274073238" y="1484.7971478937116"/>
      <point x="180.96602337362759" y="1181.3883804375578"/>
      <point x="132.62377228862817" y="850.82662305343047" type="curve" smooth="yes"/>
      <point x="95.301859454446387" y="603.66252247010618" type="line" smooth="yes"/>
      <point x="55.257240486097388" y="290.19562467223625"/>
      <point x="163.62791324646827" y="-14.846210096287718"/>
      <point x="520.85782777107852" y="-19.75161628543383" type="curve" smooth="yes"/>
      <point x="694.46149627394811" y="-22.13550541483589"/>
      <point x="891.27531362873469" y="31.354672381552405"/>
      <point x="1011.07561326473" y="165.10104311538257" type="curve"/>
    </contour>
  </outline>
</glyph>
<glyph name="H" format="1">
  <advance width="1219.29"/>
  <unicode hex="0048"/>
  <outline>
    <contour>
      <point x="782.46040970691286" y="1603" type="move" name="top"/>
    </contour>
    <contour>
      <point x="999.22076189018162" y="0" type="move" name="right"/>
    </contour>
    <contour>
      <point x="96.943100179458284" y="1453" type="move" name="tonos"/>
    </contour>
    <contour>
      <point x="510.12858252534534" y="10" type="move" name="bottom"/>
    </contour>
    <contour>
      <point x="1372.6720635163638" y="1600" type="move" name="top_dd"/>
    </contour>
    <contour>
      <point x="1025.8984620390215" y="-407" type="move" name="bottom_dd"/>
    </contour>
    <contour>
      <point x="1373.1904097069128" y="1603" type="move" name="top0315"/>
    </contour>
    <contour>
      <point x="944.96867971910365" y="866.90694274679254" type="line"/>
      <point x="364.13725184165696" y="866.9200350367795" type="line"/>
      <point x="321.24732126460992" y="623.09108888621199" type="line"/>
      <point x="902.07874914207002" y="623.07799659623811" type="line"/>
    </contour>
    <contour>
      <point x="549.29744682279318" y="1455.9323921954879" type="line"/>
      <point x="261.4168620960786" y="1455.9462109406165" type="line"/>
      <point x="8.7485259104077358" y="0.0" type="line"/>
      <point x="296.62911063711977" y="0.0" type="line"/>
    </contour>
    <contour>
      <point x="1253.5169003887197" y="1455.9325548224217" type="line"/>
      <point x="967.5763325700284" y="1455.9463624060509" type="line"/>
      <point x="714.90799164882117" y="0.0" type="line"/>
      <point x="1000.8485594675114" y="0.0" type="line"/>
    </contour>
  </outline>
</glyph>
<glyph name="I" format="1">
  <advance width="537.38"/>
  <unicode hex="0049"/>
  <outline>
    <contour>
      <point x="441.02040970691291" y="1603" type="move" name="top"/>
    </contour>
    <contour>
      <point x="165.53910808073084" y="3" type="move" name="bottom"/>
    </contour>
    <contour>
      <point x="94.724228433523749" y="1457" type="move" name="tonos"/>
    </contour>
    <contour>
      <point x="300.82076189018176" y="0" type="move" name="right"/>
    </contour>
    <contour>
      <point x="250.38076189018176" y="0" type="move" name="ogonek"/>
    </contour>
    <contour>
      <point x="690.76206351636381" y="1600" type="move" name="top_dd"/>
    </contour>
    <contour>
      <point x="343.98846203902173" y="-407" type="move" name="bottom_dd"/>
    </contour>
    <contour>
      <point x="691.28040970691291" y="1603" type="move" name="top0315"/>
    </contour>
    <contour>
      <point x="560.93549074955456" y="1455.9330345035339" type="line"/>
      <point x="274.02757282134399" y="1455.9463285726865" type="line"/>
      <point x="21.360761060081188" y="0.0" type="line"/>
      <point x="308.26867898829505" y="0.0" type="line"/>
    </contour>
  </outline>
</glyph>
<glyph name="J" format="1">
  <advance width="974.85"/>
  <unicode hex="004A"/>
  <outline>
    <contour>
      <point x="881.85206351636373" y="1600" type="move" name="top"/>
    </contour>
    <contour>
      <point x="331.1029412550181" y="-10" type="move" name="bottom"/>
    </contour>
    <contour>
      <point x="1128.2320635163637" y="1600" type="move" name="top_dd"/>
    </contour>
    <contour>
      <point x="781.45846203902158" y="-407" type="move" name="bottom_dd"/>
    </contour>
    <contour>
      <point x="1128.2320635163637" y="1600" type="move" name="top0315"/>
    </contour>
    <contour>
      <point x="555.43810158788983" y="448.43218994873979" type="line" smooth="yes"/>
      <point x="542.95086469542002" y="361.28144930068612"/>
      <point x="508.50132305916446" y="219.78784310182169"/>
      <point x="394.79091097312897" y="223.26238966109685" type="curve" smooth="yes"/>
      <point x="289.13472088194175" y="226.49083061925376"/>
      <point x="296.94981865115358" y="355.92317516565987"/>
      <point x="301.89036441216916" y="430.97792088782347" type="curve"/>
      <point x="11.559623861452664" y="431.61064326779677" type="line"/>
      <point x="-1.3160865603265091" y="186.6261020580711"/>
      <point x="101.52141007193478" y="-14.956651431322433"/>
      <point x="368.33947264026381" y="-20.557423436113559" type="curve" smooth="yes"/>
      <point x="642.43002064222333" y="-26.310852020559963"/>
      <point x="807.22822375640408" y="197.98197489035965"/>
      <point x="841.64996128890994" y="449.12493913753065" type="curve" smooth="yes"/>
      <point x="1012.9746876060362" y="1455.93277950632" type="line"/>
      <point x="726.06282184557961" y="1455.9456741248532" type="line"/>
    </contour>
  </outline>
</glyph>
<glyph name="K" format="1">
  <advance width="1099.01"/>
  <unicode hex="004B"/>
  <outline>
    <contour>
      <point x="461.88324982819631" y="62" type="move" name="bottom"/>
    </contour>
    <contour>
      <point x="902.22076189018173" y="0" type="move" name="right"/>
    </contour>
    <contour>
      <point x="332.23157176124369" y="1226" type="move" name="cross"/>
    </contour>
    <contour>
      <point x="677.18206351636377" y="1600" type="move" name="top"/>
    </contour>
    <contour>
      <point x="1252.3920635163636" y="1600" type="move" name="top_dd"/>
    </contour>
    <contour>
      <point x="905.61846203902155" y="-407" type="move" name="bottom_dd"/>
    </contour>
    <contour>
      <point x="1252.3920635163636" y="1600" type="move" name="top0315"/>
    </contour>
    <contour>
      <point x="549.29484771241414" y="1455.9298597858135" type="line"/>
      <point x="261.41851343172954" y="1455.9430031038055" type="line"/>
      <point x="8.7509602367923378" y="0.0" type="line"/>
      <point x="296.627294517537" y="0.0" type="line"/>
    </contour>
    <contour>
      <point x="1258.4882024523865" y="1455.567022987336" type="line"/>
      <point x="893.41775357396352" y="1455.6845790316138" type="line"/>
      <point x="555.2823443549712" y="989.46269901205153" type="line"/>
      <point x="322.95836555234234" y="680.60830226182088" type="line"/>
      <point x="325.86897648764381" y="363.94472347811688" type="line"/>
      <point x="671.22054755017712" y="725.73487082289387" type="line"/>
    </contour>
    <contour>
      <point x="672.0984076533382" y="0.0" type="line"/>
      <point x="998.05358031788501" y="0.0" type="line"/>
      <point x="713.15549547576961" y="862.27592252955071" type="line"/>
      <point x="478.87163116067791" y="679.27175244470379" type="line"/>
    </contour>
  </outline>
</glyph>
<glyph name="L" format="1">
  <advance width="950.6"/>
  <unicode hex="004C"/>
  <outline>
    <contour>
      <point x="434.68206351636377" y="1600" type="move" name="top"/>
    </contour>
    <contour>
      <point x="403.4285825253454" y="10" type="move" name="bottom"/>
    </contour>
    <contour>
      <point x="717.29144637000741" y="1456" type="move" name="caron"/>
    </contour>
    <contour>
      <point x="547.91378492634544" y="835" type="move" name="dot"/>
    </contour>
    <contour>
      <point x="1103.9820635163637" y="1600" type="move" name="top_dd"/>
    </contour>
    <contour>
      <point x="757.20846203902158" y="-407" type="move" name="bottom_dd"/>
    </contour>
    <contour>
      <point x="1103.9820635163637" y="1600" type="move" name="top0315"/>
    </contour>
    <contour>
      <point x="838.9632661787407" y="243.90787259893753" type="line"/>
      <point x="249.41545672070094" y="243.92091775786361" type="line"/>
      <point x="206.53129665756609" y="0.0" type="line"/>
      <point x="796.07910611560567" y="0.0" type="line"/>
    </contour>
    <contour>
      <point x="549.29645828649313" y="1455.9323325393839" type="line"/>
      <point x="261.41779624247044" y="1455.9456745576854" type="line"/>
      <point x="8.7499289402099407" y="0.0" type="line"/>
      <point x="296.62859098420256" y="0.0" type="line"/>
    </contour>
  </outline>
</glyph>
<glyph name="M" format="1">
  <advance width="1506.4099999999999"/>
  <unicode hex="004D"/>
  <outline>
    <contour>
      <point x="919.68206351636377" y="1600" type="move" name="top"/>
    </contour>
    <contour>
      <point x="1281.4907618901816" y="0" type="move" name="right"/>
    </contour>
    <contour>
      <point x="649.8085825253454" y="10" type="move" name="bottom"/>
    </contour>
    <contour>
      <point x="1659.7920635163637" y="1600" type="move" name="top_dd"/>
    </contour>
    <contour>
      <point x="1313.0184620390216" y="-407" type="move" name="bottom_dd"/>
    </contour>
    <contour>
      <point x="1659.7920635163637" y="1600" type="move" name="top0315"/>
    </contour>
    <contour>
      <point x="396.4842051398486" y="1456.0327225101041" type="line"/>
      <point x="554.27673630027527" y="0.0" type="line"/>
      <point x="750.78511839687462" y="0.0" type="line"/>
      <point x="1413.9134400725616" y="1455.7614932222759" type="line"/>
      <point x="1162.76355766134" y="1455.8208987048029" type="line"/>
      <point x="715.60123805100272" y="409.21974019655033" type="line"/>
      <point x="630.78001323492083" y="1456.0404538641512" type="line"/>
    </contour>
    <contour>
      <point x="261.43921595613165" y="1455.9398484873666" type="line"/>
      <point x="8.7500978788477397" y="0.0" type="line"/>
      <point x="296.60405763330732" y="0.0" type="line"/>
      <point x="362.67464974120077" y="379.81817114993174" type="line"/>
      <point x="503.07109681299971" y="1455.9593415138047" type="line"/>
    </contour>
    <contour>
      <point x="1297.6269149709919" y="1455.9200118902636" type="line"/>
      <point x="1070.5132800722356" y="405.71420835333578" type="line"/>
      <point x="1000.0764640538857" y="0.0" type="line"/>
      <point x="1287.96797008972" y="0.0" type="line"/>
      <point x="1540.665493331491" y="1455.937443810971" type="line"/>
    </contour>
  </outline>
</glyph>
<glyph name="N" format="1">
  <advance width="1216.3799999999999"/>
  <unicode hex="004E"/>
  <outline>
    <contour>
      <point x="783.88206351636381" y="1600" type="move" name="top"/>
    </contour>
    <contour>
      <point x="506.00910808073081" y="3" type="move" name="bottom"/>
    </contour>
    <contour>
      <point x="996.31076189018177" y="0" type="move" name="right"/>
    </contour>
    <contour>
      <point x="1369.7620635163639" y="1600" type="move" name="top_dd"/>
    </contour>
    <contour>
      <point x="1022.9884620390217" y="-407" type="move" name="bottom_dd"/>
    </contour>
    <contour>
      <point x="1369.7620635163639" y="1600" type="move" name="top0315"/>
    </contour>
    <contour>
      <point x="1251.5755359126747" y="1455.9301402182896" type="line"/>
      <point x="964.65245920786015" y="1455.9417308199058" type="line"/>
      <point x="796.52357708059708" y="489.6667391662582" type="line"/>
      <point x="542.90164308835517" y="1456.0385163879575" type="line"/>
      <point x="261.39730334914697" y="1455.9348248046495" type="line"/>
      <point x="8.7487749850760679" y="0.0" type="line"/>
      <point x="296.63914906975941" y="0.0" type="line"/>
      <point x="464.5926627627473" y="965.07312141714715" type="line"/>
      <point x="718.49614729969562" y="0.0" type="line"/>
      <point x="998.91980653212545" y="0.0" type="line"/>
    </contour>
  </outline>
</glyph>
<glyph name="O" format="1">
  <advance width="1198.92"/>
  <unicode hex="004F"/>
  <outline>
    <contour>
      <point x="772.24206351636383" y="1600" type="move" name="top"/>
    </contour>
    <contour>
      <point x="499.67076189018178" y="0" type="move" name="bottom"/>
    </contour>
    <contour>
      <point x="256.19588224297468" y="1454" type="move" name="tonos"/>
    </contour>
    <contour>
      <point x="1352.3020635163639" y="1600" type="move" name="top_dd"/>
    </contour>
    <contour>
      <point x="1005.5284620390216" y="-407" type="move" name="bottom_dd"/>
    </contour>
    <contour>
      <point x="1352.3020635163639" y="1600" type="move" name="top0315"/>
    </contour>
    <contour>
      <point x="1147.4351667586077" y="840.33170068203333" type="line" smooth="yes"/>
      <point x="1186.3061766424753" y="1145.4421309413049"/>
      <point x="1085.9998090760141" y="1468.2699580848171"/>
      <point x="731.85895606134591" y="1476.3453166467732" type="curve" smooth="yes"/>
      <point x="361.29637584110685" y="1484.7951345072336"/>
      <point x="177.36533528687843" y="1167.776363356239"/>
      <point x="128.90946501018328" y="839.79062715849238" type="curve" smooth="yes"/>
      <point x="92.309497486757138" y="597.67054791475698" type="line" smooth="yes"/>
      <point x="53.461548433008304" y="291.67636807489248"/>
      <point x="163.83834092501814" y="-12.539308410718144"/>
      <point x="512.04222550780105" y="-20.181852650978414" type="curve" smooth="yes"/>
      <point x="877.34558294657631" y="-28.199704242974967"/>
      <point x="1061.9853505441936" y="272.0144362433698"/>
      <point x="1110.7203844349663" y="598.72138497363471" type="curve" smooth="yes"/>
    </contour>
    <contour>
      <point x="825.13109295809784" y="597.51283457273144" type="line" smooth="yes"/>
      <point x="802.02748693321143" y="432.86411992448427"/>
      <point x="740.83668381357279" y="214.60534497687129"/>
      <point x="534.77986625354026" y="223.78907531048341" type="curve" smooth="yes"/>
      <point x="344.68483070313948" y="232.26140621865477"/>
      <point x="363.27219160818873" y="460.17972512376764"/>
      <point x="380.13028891179476" y="596.83512712735671" type="curve" smooth="yes"/>
      <point x="415.16934012026366" y="842.44987540768227" type="line" smooth="yes"/>
      <point x="438.7561551522129" y="1009.4136643128065"/>
      <point x="498.65003114401873" y="1240.9849075565553"/>
      <point x="710.29445176172953" y="1231.3669614158625" type="curve" smooth="yes"/>
      <point x="902.97426317639543" y="1222.6108409229323"/>
      <point x="877.20143167155891" y="979.04085726195297"/>
      <point x="860.28310764646471" y="844.18588563165861" type="curve" smooth="yes"/>
    </contour>
  </outline>
</glyph>
<glyph name="P" format="1">
  <advance width="1130.05"/>
  <unicode hex="0050"/>
  <outline>
    <contour>
      <point x="137.85588224297464" y="1454" type="move" name="tonos"/>
    </contour>
    <contour>
      <point x="688.9554482785602" y="1612" type="move" name="top"/>
    </contour>
    <contour>
      <point x="349.10858252534541" y="10" type="move" name="bottom"/>
    </contour>
    <contour>
      <point x="1283.4320635163635" y="1600" type="move" name="top_dd"/>
    </contour>
    <contour>
      <point x="936.65846203902152" y="-407" type="move" name="bottom_dd"/>
    </contour>
    <contour>
      <point x="1285.5054482785599" y="1612" type="move" name="top0315"/>
    </contour>
    <contour>
      <point x="595.74040170698231" y="510.72997441475974" type="line" smooth="yes"/>
      <point x="882.84577012240175" y="509.97274918182359"/>
      <point x="1094.3834591348332" y="692.72252380851239"/>
      <point x="1119.5301796614096" y="982.0637354163656" type="curve" smooth="yes"/>
      <point x="1141.9871848920011" y="1240.4567571082437"/>
      <point x="998.02492618794872" y="1447.7096582434963"/>
      <point x="728.7963308701195" y="1454.9444801827515" type="curve" smooth="yes"/>
      <point x="261.39382227084747" y="1455.9647788827106" type="line"/>
      <point x="8.748980898532551" y="0.0" type="line"/>
      <point x="296.62743138963157" y="0.0" type="line"/>
      <point x="506.75051839144328" y="1211.1672048561695" type="line"/>
      <point x="715.80459761000452" y="1209.4461123314177" type="line"/>
      <point x="832.0668916886126" y="1201.5454623024586"/>
      <point x="842.15813836010602" y="1072.2290086668081"/>
      <point x="830.02117749443005" y="979.84016944715029" type="curve" smooth="yes"/>
      <point x="813.76667867293418" y="856.10785335620074"/>
      <point x="741.9940088399419" y="757.43064501383878"/>
      <point x="609.6495254685517" y="755.26458315299601" type="curve" smooth="yes"/>
      <point x="333.46108544402648" y="756.99805187945265" type="line"/>
      <point x="290.3919093557613" y="512.17118313734443" type="line"/>
    </contour>
  </outline>
</glyph>
<glyph name="Q" format="1">
  <advance width="1198.92"/>
  <unicode hex="0051"/>
  <outline>
    <contour>
      <point x="762.54206351636378" y="1600" type="move" name="top"/>
    </contour>
    <contour>
      <point x="482.42294125501803" y="-10" type="move" name="bottom"/>
    </contour>
    <contour>
      <point x="1352.3020635163639" y="1600" type="move" name="top_dd"/>
    </contour>
    <contour>
      <point x="1005.5284620390216" y="-407" type="move" name="bottom_dd"/>
    </contour>
    <contour>
      <point x="1352.3020635163639" y="1600" type="move" name="top0315"/>
    </contour>
    <contour>
      <point x="698.38139956820851" y="224.02360188085237" type="line"/>
      <point x="507.68453526164717" y="63.687353157234661" type="line"/>
      <point x="795.06174521096887" y="-261.13688946503999" type="line"/>
      <point x="992.30563365899752" y="-101.50424151531283" type="line"/>
    </contour>
    <contour>
      <point x="1146.6863943486701" y="840.31360285142773" type="line" smooth="yes"/>
      <point x="1185.8845160193175" y="1146.1348927899658"/>
      <point x="1084.9133175518496" y="1468.6456781507638"/>
      <point x="730.14592842765001" y="1476.4865176380174" type="curve" smooth="yes"/>
      <point x="359.2681739342857" y="1484.6834180057608"/>
      <point x="175.63686418246942" y="1168.1429483208367"/>
      <point x="127.16291390654639" y="839.78854232317133" type="curve" smooth="yes"/>
      <point x="93.196834700251614" y="614.68384774310721" type="line" smooth="yes"/>
      <point x="54.362648939942282" y="308.49456092115423"/>
      <point x="155.86462018870105" y="-12.172871676822297"/>
      <point x="510.38848549203033" y="-20.209187317658468" type="curve" smooth="yes"/>
      <point x="881.84266896229678" y="-28.629277914160543"/>
      <point x="1062.7733744320026" y="287.65941014481115"/>
      <point x="1112.3086044193915" y="615.77549226882206" type="curve" smooth="yes"/>
    </contour>
    <contour>
      <point x="826.81706961850762" y="614.54720670140989" type="line" smooth="yes"/>
      <point x="803.49837955616169" y="448.88547571288728"/>
      <point x="742.87540004516779" y="214.18954932436614"/>
      <point x="532.03634553334268" y="223.836655485097" type="curve" smooth="yes"/>
      <point x="338.70140374463244" y="232.6828472512899"/>
      <point x="363.88202439639093" y="478.87038397283072"/>
      <point x="380.72910025150685" y="613.9184229190904" type="curve" smooth="yes"/>
      <point x="413.30310024669586" y="842.44116969379752" type="line" smooth="yes"/>
      <point x="436.75362556526642" y="1009.0441889523486"/>
      <point x="497.37003430629909" y="1240.9517332918226"/>
      <point x="708.50934405842065" y="1231.4061261847394" type="curve" smooth="yes"/>
      <point x="901.36540944656304" y="1222.6871044612412"/>
      <point x="876.79825646852885" y="979.38040448702372"/>
      <point x="859.74615153985008" y="844.12466213667426" type="curve" smooth="yes"/>
    </contour>
  </outline>
</glyph>
<glyph name="R" format="1">
  <advance width="1099.98"/>
  <unicode hex="0052"/>
  <outline>
    <contour>
      <point x="678.1520635163638" y="1600" type="move" name="top"/>
    </contour>
    <contour>
      <point x="417.97858252534536" y="10" type="move" name="bottom"/>
    </contour>
    <contour>
      <point x="1253.3620635163638" y="1600" type="move" name="top_dd"/>
    </contour>
    <contour>
      <point x="906.58846203902158" y="-407" type="move" name="bottom_dd"/>
    </contour>
    <contour>
      <point x="1253.3620635163638" y="1600" type="move" name="top0315"/>
    </contour>
    <contour>
      <point x="262.40744895150857" y="1456.1381835539119" type="line"/>
      <point x="9.7211317784259279" y="0.0" type="line"/>
      <point x="297.59750336778933" y="0.0" type="line"/>
      <point x="507.68056811381064" y="1211.2377432422015" type="line"/>
      <point x="689.78555422616819" y="1209.7313281133002" type="line" smooth="yes"/>
      <point x="803.89406936233229" y="1203.5736513566314"/>
      <point x="812.23732294908655" y="1092.6187370799373"/>
      <point x="799.81117692099758" y="999.71482391735549" type="curve" smooth="yes"/>
      <point x="783.38038066295371" y="876.87019732928809"/>
      <point x="711.02338981519438" y="777.16279998346306"/>
      <point x="579.43778123975812" y="775.1508936029818" type="curve" smooth="yes"/>
      <point x="335.86048525416442" y="777.08005021673273" type="line"/>
      <point x="293.99785445984867" y="532.07652485182518" type="line"/>
      <point x="675.90548044907291" y="532.06218052592101" type="line"/>
      <point x="774.6899754806899" y="585.79739087573796" type="line"/>
      <point x="967.88270013193915" y="675.57363299168048"/>
      <point x="1071.0828000257493" y="805.42227060282084"/>
      <point x="1088.9913930032617" y="1024.2081602049748" type="curve" smooth="yes"/>
      <point x="1110.4424081727627" y="1286.2711510061899"/>
      <point x="963.54023815955816" y="1448.0969922948996"/>
      <point x="701.92195655731507" y="1454.6712478819907" type="curve" smooth="yes"/>
    </contour>
    <contour>
      <point x="655.54066717618662" y="0.0" type="line"/>
      <point x="963.57633277561126" y="0.0" type="line"/>
      <point x="964.05435191591505" y="15.540868207940703" type="line"/>
      <point x="800.21052802348936" y="650.04752661942564" type="line"/>
      <point x="509.33939584226243" y="649.08649318270193" type="line"/>
    </contour>
  </outline>
</glyph>
<glyph name="S" format="2">
  <advance width="1073"/>
  <unicode hex="0053"/>
  <guideline x="0.0" y="1658.0" angle="0.0" identifier="QpWOqR11tL"/>
  <guideline x="0.0" y="555.0" angle="0.0" identifier="iEkqJnoxWl"/>
  <anchor x="723.7420635163638" y="1600" name="top"/>
  <anchor x="448.2607618901817" y="0" name="bottom"/>
  <anchor x="1226.202063516364" y="1600" name="top_dd"/>
  <anchor x="879.4284620390217" y="-407" name="bottom_dd"/>
  <anchor x="1226.202063516364" y="1600" name="top0315"/>
  <anchor x="723.7420635163638" y="1600" name="parent_top"/>
  <outline>
    <contour>
      <point x="676.0432451990295" y="390.59112235241525" type="curve" smooth="yes"/>
      <point x="662.1361532370112" y="291.1700617888581"/>
      <point x="600.2933376603338" y="220.66942928729995"/>
      <point x="495.7806006949911" y="220.26233141609694" type="curve" smooth="yes"/>
      <point x="347.044691584967" y="219.6829755047671"/>
      <point x="323.5392367782754" y="333.8555235028805"/>
      <point x="331.98729170043856" y="460.1158308401691" type="curve"/>
      <point x="43.787586738832076" y="460.68954049254177" type="line"/>
      <point x="31.596890094293187" y="188.8642183121616"/>
      <point x="192.21678310314553" y="-14.842601225882214"/>
      <point x="472.7011489192656" y="-20.641546105218882" type="curve" smooth="yes"/>
      <point x="730.9923787965342" y="-25.981653388974927"/>
      <point x="939.3774073256585" y="127.367397670071"/>
      <point x="960.5595547291841" y="392.8286399684729" type="curve" smooth="yes"/>
      <point x="980.0345971080517" y="636.895912526859"/>
      <point x="838.7086677032296" y="760.2622810643801"/>
      <point x="634.8155975297475" y="857.8424828074477" type="curve" smooth="yes"/>
      <point x="553.9693914900812" y="896.534278898408"/>
      <point x="459.30392269646836" y="957.2416830427997"/>
      <point x="472.49986853773896" y="1059.539225342831" type="curve" smooth="yes"/>
      <point x="485.1939623476087" y="1157.946312951087"/>
      <point x="556.7777329976338" y="1236.5734042103882"/>
      <point x="659.8583710858252" y="1235.0348482297766" type="curve" smooth="yes"/>
      <point x="779.7235900973952" y="1233.2457697665661"/>
      <point x="796.2492974441543" y="1124.2595616375638"/>
      <point x="790.875587830654" y="1026.7091982962127" type="curve"/>
      <point x="1078.0124601931811" y="1026.2534802128405" type="line"/>
      <point x="1087.9006141438817" y="1275.6166451612078"/>
      <point x="948.3324876876068" y="1470.0916569506492"/>
      <point x="686.9246457718142" y="1476.1710325875467" type="curve" smooth="yes"/>
      <point x="435.5573176422932" y="1482.0169031603007"/>
      <point x="207.79542551791067" y="1322.0645361256998"/>
      <point x="189.14583881729584" y="1060.3111058472684" type="curve" smooth="yes"/>
      <point x="172.6829009574597" y="829.2480519335484"/>
      <point x="332.36315793390963" y="702.2772392280029"/>
      <point x="521.9357895128728" y="611.1514112268301" type="curve" smooth="yes"/>
      <point x="623.1271252956155" y="562.50966276903"/>
      <point x="692.8170361102865" y="510.5060611924759"/>
    </contour>
  </outline>
</glyph>
<glyph name="T" format="1">
  <advance width="1079.61"/>
  <unicode hex="0054"/>
  <outline>
    <contour>
      <point x="707.25206351636382" y="1600" type="move" name="top"/>
    </contour>
    <contour>
      <point x="432.1830183983127" y="8" type="move" name="bottom"/>
    </contour>
    <contour>
      <point x="544.29076189018178" y="0" type="move" name="right"/>
    </contour>
    <contour>
      <point x="557.61378492634549" y="835" type="move" name="cross"/>
    </contour>
    <contour>
      <point x="1232.9920635163639" y="1600" type="move" name="top_dd"/>
    </contour>
    <contour>
      <point x="886.21846203902169" y="-407" type="move" name="bottom_dd"/>
    </contour>
    <contour>
      <point x="1232.9920635163639" y="1600" type="move" name="top0315"/>
    </contour>
    <contour>
      <point x="828.65680936462422" y="1455.9318867815357" type="line"/>
      <point x="541.7461518434626" y="1455.9457477143758" type="line"/>
      <point x="289.07836598190835" y="0.0" type="line"/>
      <point x="575.98902350307287" y="0.0" type="line"/>
    </contour>
    <contour>
      <point x="1178.9324797024531" y="1455.9071048393505" type="line"/>
      <point x="198.46289868666781" y="1455.9201917667847" type="line"/>
      <point x="155.40057818960645" y="1211.0909873187213" type="line"/>
      <point x="1135.8701592053835" y="1211.0779003912919" type="line"/>
    </contour>
  </outline>
</glyph>
<glyph name="U" format="1">
  <advance width="1134.8999999999999"/>
  <unicode hex="0055"/>
  <outline>
    <contour>
      <point x="734.41206351636379" y="1600" type="move" name="top"/>
    </contour>
    <contour>
      <point x="459.90076189018168" y="0" type="move" name="bottom"/>
    </contour>
    <contour>
      <point x="603.46076189018174" y="0" type="move" name="right"/>
    </contour>
    <contour>
      <point x="766.5299422092944" y="68" type="move" name="ogonek"/>
    </contour>
    <contour>
      <point x="1288.2820635163639" y="1600" type="move" name="top_dd"/>
    </contour>
    <contour>
      <point x="941.50846203902165" y="-407" type="move" name="bottom_dd"/>
    </contour>
    <contour>
      <point x="1288.2820635163639" y="1600" type="move" name="top0315"/>
    </contour>
    <contour>
      <point x="894.84213346493789" y="1455.9435329980706" type="line"/>
      <point x="726.51795989896834" y="456.42691170545788" type="line" smooth="yes"/>
      <point x="707.73373013726678" y="320.91691106468454"/>
      <point x="655.608611482274" y="217.70634946273302"/>
      <point x="505.17286609909627" y="223.52067025788634" type="curve" smooth="yes"/>
      <point x="364.0224905793466" y="228.97611278943214"/>
      <point x="357.27761572371941" y="335.24220134478952"/>
      <point x="370.52899769809682" y="455.69360418174978" type="curve"/>
      <point x="538.45145226434283" y="1455.9129359415097" type="line"/>
      <point x="250.77461136438558" y="1455.944685799305" type="line"/>
      <point x="81.119976735432388" y="456.73143510591558" type="line"/>
      <point x="48.90927003108186" y="175.02313556375088"/>
      <point x="192.30498981626914" y="-15.533337535463861"/>
      <point x="480.59823450229817" y="-20.706430336755314" type="curve" smooth="yes"/>
      <point x="787.33181563520634" y="-26.21041390113292"/>
      <point x="972.20378162083887" y="162.35609101210639"/>
      <point x="1012.7014456017198" y="458.23408201865266" type="curve" smooth="yes"/>
      <point x="1182.87200688752" y="1455.9463313225913" type="line"/>
    </contour>
  </outline>
</glyph>
<glyph name="V" format="1">
  <advance width="1148.48"/>
  <unicode hex="0056"/>
  <outline>
    <contour>
      <point x="731.90993317227833" y="1612" type="move" name="top"/>
    </contour>
    <contour>
      <point x="482.31780575924483" y="10" type="move" name="bottom"/>
    </contour>
    <contour>
      <point x="1284.8803292216189" y="1600" type="move" name="top_dd"/>
    </contour>
    <contour>
      <point x="972.18906847382971" y="-407" type="move" name="bottom_dd"/>
    </contour>
    <contour>
      <point x="1286.7499331722784" y="1612" type="move" name="top0315"/>
    </contour>
    <contour>
      <point x="510.02587182079583" y="325.53270863706308" type="line"/>
      <point x="416.79715753290731" y="0.0" type="line"/>
      <point x="632.48183456532718" y="0.0" type="line"/>
      <point x="1267.7487941664435" y="1455.7720845558131" type="line"/>
      <point x="941.14795846710911" y="1455.8464366594912" type="line"/>
    </contour>
    <contour>
      <point x="468.35683981014995" y="1456.0245991406682" type="line"/>
      <point x="157.18743781020876" y="1456.0100966281295" type="line"/>
      <point x="335.13622828399934" y="0.0" type="line"/>
      <point x="540.83157059234281" y="0.0" type="line"/>
      <point x="547.00193605228003" y="302.27973634989871" type="line"/>
    </contour>
  </outline>
</glyph>
<glyph name="W" format="1">
  <advance width="1487.98"/>
  <unicode hex="0057"/>
  <outline>
    <contour>
      <point x="341.448099290019" y="225.49800336014138" type="line"/>
      <point x="324.6211507063606" y="0.0" type="line"/>
      <point x="491.7259656217841" y="0.0" type="line"/>
      <point x="928.0594958838079" y="1255.5465439417162" type="line"/>
      <point x="908.4119868851561" y="1456.0217536359648" type="line"/>
      <point x="757.429735321475" y="1455.8529177136284" type="line"/>
    </contour>
    <contour>
      <point x="459.6233395919213" y="1455.9981588410492" type="line"/>
      <point x="179.15137851786352" y="1456.0072547408845" type="line"/>
      <point x="203.69161840652214" y="0.0" type="line"/>
      <point x="385.53423794584063" y="0.0" type="line"/>
      <point x="448.48026799334343" y="195.77337160229493" type="line"/>
    </contour>
    <contour>
      <point x="924.793361591687" y="228.20285499476418" type="line"/>
      <point x="923.1268101228976" y="0.0" type="line"/>
      <point x="1105.686178503924" y="0.0" type="line"/>
      <point x="1584.3572641778278" y="1455.8646695101702" type="line"/>
      <point x="1296.0883741165953" y="1455.8604683348028" type="line"/>
    </contour>
    <contour>
      <point x="997.6553144473984" y="1456.0208865822106" type="line"/>
      <point x="845.7717043696653" y="1455.7691930020899" type="line"/>
      <point x="773.2100976678649" y="1284.242877566662" type="line"/>
      <point x="817.9905120830592" y="0.0" type="line"/>
      <point x="981.2328227193976" y="0.0" type="line"/>
      <point x="1030.9312547628874" y="192.5819430745031" type="line"/>
    </contour>
    <contour>
      <point x="907.550329221619" y="1600" type="move" name="top"/>
    </contour>
    <contour>
      <point x="655.9478057592448" y="10" type="move" name="bottom"/>
    </contour>
    <contour>
      <point x="1624.380329221619" y="1600" type="move" name="top_dd"/>
    </contour>
    <contour>
      <point x="1311.6890684738296" y="-407" type="move" name="bottom_dd"/>
    </contour>
    <contour>
      <point x="1624.380329221619" y="1600" type="move" name="top0315"/>
    </contour>
  </outline>
</glyph>
<glyph name="X" format="1">
  <advance width="1112.59"/>
  <unicode hex="0058"/>
  <outline>
    <contour>
      <point x="459.15840806379617" y="17" type="move" name="bottom"/>
    </contour>
    <contour>
      <point x="847.4198024670286" y="0" type="move" name="right"/>
    </contour>
    <contour>
      <point x="575.99364674946992" y="742" type="move" name="cross"/>
    </contour>
    <contour>
      <point x="696.01993317227846" y="1612" type="move" name="top"/>
    </contour>
    <contour>
      <point x="1248.990329221619" y="1600" type="move" name="top_dd"/>
    </contour>
    <contour>
      <point x="936.29906847382983" y="-407" type="move" name="bottom_dd"/>
    </contour>
    <contour>
      <point x="1250.8599331722785" y="1612" type="move" name="top0315"/>
    </contour>
    <contour>
      <point x="496.34799364706043" y="1456.0065215369038" type="line"/>
      <point x="178.61800101418356" y="1456.0161109922167" type="line"/>
      <point x="394.25333798816416" y="746.46480115528698" type="line"/>
      <point x="-68.301181424588208" y="0.0" type="line"/>
      <point x="274.78957867870957" y="0.0" type="line"/>
      <point x="547.88837632390494" y="506.79422910043075" type="line"/>
      <point x="661.41908633411776" y="0.0" type="line"/>
      <point x="982.09466567506399" y="0.0" type="line"/>
      <point x="761.58421330543536" y="721.45578935882213" type="line"/>
      <point x="1214.4100673451876" y="1455.6607617803688" type="line"/>
      <point x="875.14054610295636" y="1455.7477982117584" type="line"/>
      <point x="607.50128828378683" y="958.12344991716623" type="line"/>
    </contour>
  </outline>
</glyph>
<glyph name="Y" format="1">
  <advance width="1078.6399999999999"/>
  <unicode hex="0059"/>
  <outline>
    <contour>
      <point x="714.04206351636378" y="1600" type="move" name="top"/>
    </contour>
    <contour>
      <point x="439.75813411325453" y="35" type="move" name="bottom"/>
    </contour>
    <contour>
      <point x="542.57556412703275" y="602" type="move" name="cross"/>
    </contour>
    <contour>
      <point x="110.69588224297466" y="1454" type="move" name="tonos"/>
    </contour>
    <contour>
      <point x="1232.0220635163637" y="1600" type="move" name="top_dd"/>
    </contour>
    <contour>
      <point x="885.24846203902166" y="-407" type="move" name="bottom_dd"/>
    </contour>
    <contour>
      <point x="1232.0220635163637" y="1600" type="move" name="top0315"/>
    </contour>
    <contour>
      <point x="470.59615129224028" y="1456.027023608905" type="line"/>
      <point x="169.16748103064504" y="1456.0184799557283" type="line"/>
      <point x="384.51645393782553" y="542.5319646248762" type="line"/>
      <point x="290.05269086164742" y="0.0" type="line"/>
      <point x="580.8245687483643" y="0.0" type="line"/>
      <point x="669.93139830332871" y="513.98653232435049" type="line"/>
      <point x="1218.611683689461" y="1455.6903950210972" type="line"/>
      <point x="895.01213301556629" y="1455.7734768544524" type="line"/>
      <point x="569.65819762392846" y="804.57246704665658" type="line"/>
    </contour>
  </outline>
</glyph>
<glyph name="Z" format="1">
  <advance width="1053.42"/>
  <unicode hex="005A"/>
  <outline>
    <contour>
      <point x="708.22206351636373" y="1600" type="move" name="top"/>
    </contour>
    <contour>
      <point x="426.70858252534538" y="10" type="move" name="bottom"/>
    </contour>
    <contour>
      <point x="1206.8020635163639" y="1600" type="move" name="top_dd"/>
    </contour>
    <contour>
      <point x="860.02846203902163" y="-407" type="move" name="bottom_dd"/>
    </contour>
    <contour>
      <point x="1206.8020635163639" y="1600" type="move" name="top0315"/>
    </contour>
    <contour>
      <point x="931.11517040280478" y="243.90430122661922" type="line"/>
      <point x="88.396522124475396" y="243.91748688346192" type="line"/>
      <point x="45.508627279636684" y="0.0" type="line"/>
      <point x="888.22727555797098" y="0.0" type="line"/>
    </contour>
    <contour>
      <point x="1098.9942840497936" y="1270.8937942184091" type="line"/>
      <point x="1131.3694508823278" y="1455.9460140787783" type="line"/>
      <point x="929.31819262217027" y="1455.6619310402716" type="line"/>
      <point x="4.0558291054601057" y="190.09122039020326" type="line"/>
      <point x="-29.105735017397052" y="0.0" type="line"/>
      <point x="179.63681550518692" y="0.0" type="line"/>
    </contour>
    <contour>
      <point x="1034.3968230440566" y="1455.9032823634177" type="line"/>
      <point x="217.86804954177808" y="1455.916466702477" type="line"/>
      <point x="174.80612661144551" y="1211.0948523049167" type="line"/>
      <point x="991.3349001137376" y="1211.0816679658726" type="line"/>
    </contour>
  </outline>
</glyph>
<glyph name="bracketleft" format="2">
  <advance width="524"/>
  <unicode hex="005B"/>
  <outline>
    <contour>
      <point x="656.4561716877143" y="1695.937781829069" type="line"/>
      <point x="278.31652350613024" y="1695.9505486293513" type="line"/>
      <point x="-39.934847434904704" y="-339.941971073394" type="line"/>
      <point x="338.07086213610023" y="-339.9463535843322" type="line"/>
      <point x="373.4605530140081" y="-116.06754833131404" type="line"/>
      <point x="271.4527836728039" y="-115.96180532010034" type="line"/>
      <point x="519.2605589250871" y="1470.9517233520858" type="line"/>
      <point x="620.978317976325" y="1471.0590668138516" type="line"/>
    </contour>
  </outline>
</glyph>
<glyph name="backslash" format="1">
  <advance width="757.5699999999999"/>
  <unicode hex="005C"/>
  <outline>
    <contour>
      <point x="382.8337881167339" y="-125.00993376141238" type="line"/>
      <point x="655.6440325217699" y="-125.03880715837562" type="line"/>
      <point x="434.81057845053806" y="1455.9983442708094" type="line"/>
      <point x="162.07647554509077" y="1456.0413045582084" type="line"/>
    </contour>
  </outline>
</glyph>
<glyph name="bracketright" format="1">
  <advance width="523.8"/>
  <unicode hex="005D"/>
  <outline>
    <contour>
      <point x="169.16763872726716" y="1471.0628168039946" type="line"/>
      <point x="272.12095735753508" y="1470.9578128723244" type="line"/>
      <point x="24.312850887011237" y="-115.95543526267433" type="line"/>
      <point x="-78.350616082033042" y="-116.06519848465129" type="line"/>
      <point x="-113.73789673113882" y="-339.93679339841219" type="line"/>
      <point x="264.43384103981361" y="-339.95272534662712" type="line"/>
      <point x="582.68517133769831" y="1695.9398177091123" type="line"/>
      <point x="204.64749042011806" y="1695.9476780699483" type="line"/>
    </contour>
  </outline>
</glyph>
<glyph name="asciicircum" format="1">
  <advance width="776.97"/>
  <unicode hex="005E"/>
  <outline>
    <contour>
      <point x="501.65243642349458" y="1195.8520121075933" type="line"/>
      <point x="596.88767783122591" y="1455.8731981568594" type="line"/>
      <point x="435.22615167897129" y="1455.7444256039323" type="line"/>
      <point x="65.121098758936668" y="729.26975132531106" type="line"/>
      <point x="290.12890702260631" y="729.18671405085593" type="line"/>
    </contour>
    <contour>
      <point x="544.80687276946162" y="728.9788617020854" type="line"/>
      <point x="750.89531867339031" y="728.97063595569159" type="line"/>
      <point x="634.46357925041468" y="1456.0067805837264" type="line"/>
      <point x="487.24460740841232" y="1456.0105285274556" type="line"/>
      <point x="491.51776860030975" y="1220.5946081429963" type="line"/>
    </contour>
  </outline>
</glyph>
<glyph name="underscore" format="1">
  <advance width="794.43"/>
  <unicode hex="005F"/>
  <outline>
    <contour>
      <point x="303.3246866554399" y="138" type="move" name="_bottom"/>
    </contour>
    <contour>
      <point x="670.5719072317753" y="0.0" type="line"/>
      <point x="-83.876555723733802" y="0.0" type="line"/>
      <point x="-123.95209287350684" y="-227.90851963721295" type="line"/>
      <point x="630.49637008201114" y="-227.92176354627114" type="line"/>
    </contour>
  </outline>
</glyph>
<glyph name="grave" format="1">
  <advance width="658.63"/>
  <unicode hex="0060"/>
  <outline>
    <contour>
      <point x="517.81222716291711" y="1290" type="move" name="_top"/>
    </contour>
    <contour>
      <point x="576.23735062102412" y="1665" type="move" name="mkmktop_acc"/>
    </contour>
    <contour>
      <point x="498.58325362790458" y="1535.941695026743" type="line"/>
      <point x="205.01795678486974" y="1535.9159631841449" type="line"/>
      <point x="425.71498252554716" y="1227.1281462177485" type="line"/>
      <point x="642.65398714644539" y="1227.0096092393937" type="line"/>
    </contour>
  </outline>
</glyph>
<glyph name="a" format="1">
  <advance width="936.05"/>
  <unicode hex="0061"/>
  <outline>
    <contour>
      <point x="582.87962382629098" y="1290" type="move" name="top"/>
    </contour>
    <contour>
      <point x="300.84805696995994" y="17" type="move" name="bottom"/>
    </contour>
    <contour>
      <point x="723.74076189018172" y="0" type="move" name="ogonek"/>
    </contour>
    <contour>
      <point x="702.18962382629104" y="1290" type="move" name="rhalfring"/>
    </contour>
    <contour>
      <point x="1089.4320635163638" y="1600" type="move" name="top_dd"/>
    </contour>
    <contour>
      <point x="742.65846203902163" y="-407" type="move" name="bottom_dd"/>
    </contour>
    <contour>
      <point x="728.10023142988359" y="654" type="move" name="rhotichook"/>
    </contour>
    <contour>
      <point x="1035.869623826291" y="1290" type="move" name="top0315"/>
    </contour>
    <contour>
      <point x="502.19118080129158" y="249.82469555568559" type="line" smooth="yes"/>
      <point x="490.66495263594851" y="167.36860218230845"/>
      <point x="485.17256262879641" y="80.086702834167554"/>
      <point x="507.65292158026296" y="-0.93504972648179319" type="curve"/>
      <point x="777.79242835698449" y="0.0" type="line"/>
      <point x="779.30492375482288" y="18.259147676212159" type="line"/>
      <point x="752.46375330951582" y="95.607953021824727"/>
      <point x="768.83183222467721" y="184.78325961598733"/>
      <point x="781.08126417899916" y="263.49867216874264" type="curve" smooth="yes"/>
      <point x="858.20743054367813" y="744.13251479648466" type="line"/>
      <point x="878.53812747428765" y="959.04423820547868"/>
      <point x="756.12344480093202" y="1098.2944449009804"/>
      <point x="540.47590835628" y="1102.733078708038" type="curve" smooth="yes"/>
      <point x="330.31669530941838" y="1107.0587473582516"/>
      <point x="137.32466202406371" y="975.44540490278314"/>
      <point x="122.78820957287714" y="756.43498736046661" type="curve"/>
      <point x="397.55751960944013" y="757.76127269212179" type="line"/>
      <point x="410.0307562464796" y="823.45576655241985"/>
      <point x="439.13518018613951" y="883.67448789014463"/>
      <point x="515.84427066546812" y="882.13931315754917" type="curve" smooth="yes"/>
      <point x="590.25822982545446" y="880.65007075953656"/>
      <point x="588.11822503202006" y="807.07721973123807"/>
      <point x="582.04269298124962" y="750.32290158252465" type="curve"/>
    </contour>
    <contour>
      <point x="607.37965202692135" y="661.21373828643232" type="line"/>
      <point x="483.73421201986775" y="662.05306781720833" type="line" smooth="yes"/>
      <point x="246.7412982261234" y="661.83649716013338"/>
      <point x="33.471558006870964" y="554.13110557360437"/>
      <point x="20.313593241801016" y="294.7041572402814" type="curve" smooth="yes"/>
      <point x="11.869970316193477" y="128.22679029347881"/>
      <point x="116.3039405790694" y="-20.072763262691694"/>
      <point x="292.17122111307873" y="-22.072084318974351" type="curve" smooth="yes"/>
      <point x="434.51542679883852" y="-23.690303278198744"/>
      <point x="522.81198322674618" y="83.496138971607394"/>
      <point x="569.43775372377581" y="206.49027487837645" type="curve"/>
      <point x="519.10211522557518" y="318.45374427356535" type="line"/>
      <point x="511.47980225571314" y="246.44106611021442"/>
      <point x="437.7594031077557" y="199.01763723353716"/>
      <point x="367.63294660085023" y="200.47475200747067" type="curve" smooth="yes"/>
      <point x="304.0794153408977" y="201.79529198549454"/>
      <point x="296.22748028410882" y="263.06828442588147"/>
      <point x="302.76124216185883" y="314.5238313099149" type="curve" smooth="yes"/>
      <point x="315.74457489435667" y="416.7718927832093"/>
      <point x="386.57197561035241" y="489.80797525958673"/>
      <point x="490.95444744514327" y="493.17933939467326" type="curve" smooth="yes"/>
      <point x="578.98895039534091" y="492.45700298298237" type="line"/>
    </contour>
  </outline>
</glyph>
<glyph name="b" format="1">
  <advance width="983.5799999999999"/>
  <unicode hex="0062"/>
  <outline>
    <contour>
      <point x="750.45040970691286" y="1603" type="move" name="top"/>
    </contour>
    <contour>
      <point x="463.99294125501808" y="-10" type="move" name="bottom"/>
    </contour>
    <contour>
      <point x="1136.9620635163637" y="1600" type="move" name="top_dd"/>
    </contour>
    <contour>
      <point x="790.1884620390216" y="-407" type="move" name="bottom_dd"/>
    </contour>
    <contour>
      <point x="1137.4804097069127" y="1603" type="move" name="top0315"/>
    </contour>
    <contour>
      <point x="262.66792539177396" y="1535.9456884734041" type="line"/>
      <point x="-3.8782215842858818" y="0.0" type="line"/>
      <point x="252.40938653698487" y="0.0" type="line"/>
      <point x="313.19635303040934" y="238.78233553736126" type="line"/>
      <point x="537.95496285864317" y="1535.9339788562115" type="line"/>
    </contour>
    <contour>
      <point x="912.63503968061457" y="581.66292978172169" type="line" smooth="yes"/>
      <point x="935.51926679887617" y="798.87813847649363"/>
      <point x="927.41737345836032" y="1097.9449672502071"/>
      <point x="643.27731996326986" y="1103.9208958733052" type="curve" smooth="yes"/>
      <point x="391.57526796757236" y="1109.214600433826"/>
      <point x="286.84223168964883" y="794.84152824731245"/>
      <point x="251.22819419149482" y="593.46579287235647" type="curve" smooth="yes"/>
      <point x="237.94709150315185" y="488.86851494993402" type="line"/>
      <point x="226.29228030930935" y="305.59925089624414"/>
      <point x="256.07994455277401" y="-12.698857071597704"/>
      <point x="497.33391006265254" y="-21.181845401342215" type="curve" smooth="yes"/>
      <point x="791.76823339993302" y="-31.534765086901125"/>
      <point x="876.91664250819929" y="271.73314025690098"/>
      <point x="904.65430907583516" y="510.01481138498565" type="curve" smooth="yes"/>
    </contour>
    <contour>
      <point x="629.93409565752086" y="505.94969828771707" type="line" smooth="yes"/>
      <point x="617.39971846084529" y="385.08954390647961"/>
      <point x="601.07498125530424" y="206.02563561479917"/>
      <point x="440.07422274992598" y="214.3957707904276" type="curve" smooth="yes"/>
      <point x="315.74614772465009" y="220.85936017812895"/>
      <point x="314.09201039647382" y="349.955468512099"/>
      <point x="324.30474095908914" y="446.71775275756647" type="curve" smooth="yes"/>
      <point x="349.33039764326367" y="635.52807141018877" type="line" smooth="yes"/>
      <point x="365.23100337519242" y="741.50557159781749"/>
      <point x="414.50205696339395" y="872.13151391183226"/>
      <point x="542.71884886213354" y="868.20181074881464" type="curve" smooth="yes"/>
      <point x="684.37882703182436" y="863.86008876339724"/>
      <point x="645.77420079743092" y="671.10146098948962"/>
      <point x="636.90246112129944" y="578.39124284835361" type="curve" smooth="yes"/>
    </contour>
  </outline>
</glyph>
<glyph name="c" format="1">
  <advance width="913.74"/>
  <unicode hex="0063"/>
  <outline>
    <contour>
      <point x="560.49222716291706" y="1290" type="move" name="top"/>
    </contour>
    <contour>
      <point x="378.44240147936375" y="-3" type="move" name="bottom"/>
    </contour>
    <contour>
      <point x="560.49222716291706" y="1290" type="move" name="marktop"/>
    </contour>
    <contour>
      <point x="1050.1403292216191" y="1600" type="move" name="top_dd"/>
    </contour>
    <contour>
      <point x="737.4490684738297" y="-407" type="move" name="bottom_dd"/>
    </contour>
    <contour>
      <point x="1001.8422271629171" y="1290" type="move" name="top0315"/>
    </contour>
    <contour>
      <point x="415.71250798149697" y="213.02959535298919" type="curve" smooth="yes"/>
      <point x="276.32436798925187" y="216.86769162599376"/>
      <point x="321.14926185210794" y="412.10264561685102"/>
      <point x="329.98946382234135" y="501.09363672778136" type="curve" smooth="yes"/>
      <point x="337.49010856190989" y="580.19614203328911" type="line" smooth="yes"/>
      <point x="349.32038471184023" y="693.50002752258354"/>
      <point x="365.8568516121743" y="875.74196919992653"/>
      <point x="519.50811956636994" y="868.87572292538164" type="curve" smooth="yes"/>
      <point x="621.36461401186" y="864.32404050299488"/>
      <point x="620.30607210688686" y="755.39511584471711"/>
      <point x="615.77595633086196" y="677.81861389190158" type="curve"/>
      <point x="875.98508452698013" y="677.28413998909252" type="line"/>
      <point x="886.21651205345677" y="900.16253393203988"/>
      <point x="796.10215660630411" y="1095.2542776643313"/>
      <point x="550.01269213743149" y="1102.0630210494444" type="curve" smooth="yes"/>
      <point x="238.67605491924058" y="1110.6770073238176"/>
      <point x="97.752234709119847" y="855.9615861523871"/>
      <point x="62.232864869770268" y="579.73516318757947" type="curve" smooth="yes"/>
      <point x="52.609998326160692" y="501.77961918552973" type="line" smooth="yes"/>
      <point x="23.589276660184865" y="242.29690139169736"/>
      <point x="97.874885657548191" y="-14.361129522560876"/>
      <point x="398.81783356069286" y="-20.880205129140048" type="curve" smooth="yes"/>
      <point x="634.31549865375132" y="-25.981594261569914"/>
      <point x="795.47202330537812" y="148.9436624855166"/>
      <point x="814.49243831257354" y="375.23018107329051" type="curve"/>
      <point x="556.14074547862492" y="374.30707293146344" type="line"/>
      <point x="543.07615827513325" y="293.23226391643544"/>
      <point x="512.16704717458538" y="210.37368928083728"/>
    </contour>
  </outline>
</glyph>
<glyph name="d" format="1">
  <advance width="984.55"/>
  <unicode hex="0064"/>
  <outline>
    <contour>
      <point x="1131.7240114513165" y="1536" type="move" name="caron"/>
    </contour>
    <contour>
      <point x="831.05413684255279" y="1306" type="move" name="cross"/>
    </contour>
    <contour>
      <point x="393.94076189018176" y="0" type="move" name="bottom"/>
    </contour>
    <contour>
      <point x="591.37040970691282" y="1603" type="move" name="top"/>
    </contour>
    <contour>
      <point x="1137.9320635163638" y="1600" type="move" name="top_dd"/>
    </contour>
    <contour>
      <point x="791.15846203902163" y="-407" type="move" name="bottom_dd"/>
    </contour>
    <contour>
      <point x="1138.450409706913" y="1603" type="move" name="top0315"/>
    </contour>
    <contour>
      <point x="546.60255212934919" y="253.03521406663947" type="line"/>
      <point x="531.33847935384279" y="-1.0446927967739859" type="line"/>
      <point x="779.67324759512474" y="0.0" type="line"/>
      <point x="1046.2176992327184" y="1535.9309547870935" type="line"/>
      <point x="769.02657769647658" y="1535.9458489748799" type="line"/>
    </contour>
    <contour>
      <point x="48.407625319494528" y="502.8144571944984" type="line" smooth="yes"/>
      <point x="26.165690879582307" y="292.520241323189"/>
      <point x="43.952128163784607" y="-14.477972238308368"/>
      <point x="320.08548547393622" y="-21.285140957485254" type="curve" smooth="yes"/>
      <point x="565.08667406536449" y="-27.324847436219379"/>
      <point x="678.14657607926711" y="287.09718178923077"/>
      <point x="713.50289104959495" y="483.41009050275056" type="curve"/>
      <point x="726.52300837689779" y="587.12952017457894" type="line"/>
      <point x="738.60285462519528" y="767.86336316371853"/>
      <point x="708.36539775667222" y="1092.9218773343619"/>
      <point x="468.56523066252771" y="1102.1319563786046" type="curve" smooth="yes"/>
      <point x="178.62168542755705" y="1113.2679076264355"/>
      <point x="84.325318459835572" y="808.40277731425056"/>
      <point x="56.414407678615632" y="573.33063694148905" type="curve" smooth="yes"/>
    </contour>
    <contour>
      <point x="333.85441318616029" y="574.06961375150001" type="line" smooth="yes"/>
      <point x="346.08453239549357" y="689.14065471660183"/>
      <point x="371.71006032156629" y="876.19352993870018"/>
      <point x="526.77213224501929" y="867.45312761122091" type="curve" smooth="yes"/>
      <point x="645.53277933931247" y="860.75893203263786"/>
      <point x="648.71369632281403" y="718.60297735371387"/>
      <point x="639.62502535297574" y="629.07694745551566" type="curve" smooth="yes"/>
      <point x="614.29514854178433" y="440.40009154221917" type="line" smooth="yes"/>
      <point x="598.25481842271506" y="336.90715264975563"/>
      <point x="546.5475258166897" y="210.3622379076705"/>
      <point x="422.11214942250751" y="214.70567069428543" type="curve" smooth="yes"/>
      <point x="285.29982640461503" y="219.48112239161037"/>
      <point x="318.56459465452775" y="411.944579998731"/>
      <point x="326.91034566083044" y="501.39636789031391" type="curve" smooth="yes"/>
    </contour>
  </outline>
</glyph>
<glyph name="e" format="1">
  <advance width="951.5699999999999"/>
  <unicode hex="0065"/>
  <outline>
    <contour>
      <point x="566.46802749213873" y="1291" type="move" name="top"/>
    </contour>
    <contour>
      <point x="390.5498024670286" y="0" type="move" name="bottom"/>
    </contour>
    <contour>
      <point x="633.18541300212041" y="32" type="move" name="ogonek"/>
    </contour>
    <contour>
      <point x="1089.9103292216191" y="1600" type="move" name="top_dd"/>
    </contour>
    <contour>
      <point x="777.21906847382968" y="-407" type="move" name="bottom_dd"/>
    </contour>
    <contour>
      <point x="773.7432177779674" y="654" type="move" name="rhotichook"/>
    </contour>
    <contour>
      <point x="1041.7680274921386" y="1291" type="move" name="top0315"/>
    </contour>
    <contour>
      <point x="435.74767172133954" y="-19.899066450239037" type="curve" smooth="yes"/>
      <point x="571.01836484145167" y="-21.894027708722312"/>
      <point x="721.13144491718549" y="27.731866624551316"/>
      <point x="804.39798017884834" y="139.95428338797828" type="curve"/>
      <point x="709.92498169817259" y="312.26737091193075" type="line"/>
      <point x="641.78805192868083" y="253.04167103108784"/>
      <point x="561.71818347604903" y="213.45366178486586"/>
      <point x="469.51812098287292" y="215.95626085065098" type="curve" smooth="yes"/>
      <point x="321.38201671193281" y="219.97713964544505"/>
      <point x="320.96265480862041" y="361.19518122006872"/>
      <point x="332.96178459360362" y="478.0151920671633" type="curve" smooth="yes"/>
      <point x="342.78370099853925" y="568.27541830516225" type="line" smooth="yes"/>
      <point x="356.24261878494019" y="684.36572564183757"/>
      <point x="379.19027683395075" y="876.40953263531537"/>
      <point x="536.36208239840334" y="868.875532883549" type="curve" smooth="yes"/>
      <point x="643.33431556793937" y="863.74783981384837"/>
      <point x="642.63096385466099" y="755.38824487591273"/>
      <point x="630.44049322345484" y="672.08388944972592" type="curve" smooth="yes"/>
      <point x="625.36323836387089" y="644.24941158426373" type="line"/>
      <point x="198.65042876882092" y="644.93044729147948" type="line"/>
      <point x="163.65050124204072" y="447.09867500321945" type="line"/>
      <point x="869.88703415980956" y="446.97541095197261" type="line"/>
      <point x="889.15045444062866" y="576.27606914759474" type="line" smooth="yes"/>
      <point x="919.68148668278536" y="827.46016520803141"/>
      <point x="859.36778123073123" y="1094.9283327359558"/>
      <point x="561.90319643931775" y="1102.5047862632064" type="curve" smooth="yes"/>
      <point x="248.64644529507746" y="1110.4834678894783"/>
      <point x="102.17672894517776" y="845.13332912228884"/>
      <point x="67.480247944638435" y="567.61533067493644" type="curve" smooth="yes"/>
      <point x="56.92017258631158" y="478.76597362682821" type="line" smooth="yes"/>
      <point x="29.161974375143181" y="213.13394787596519"/>
      <point x="145.60499450334555" y="-15.620065676815361"/>
    </contour>
  </outline>
</glyph>
<glyph name="f" format="1">
  <advance width="651.84"/>
  <unicode hex="0066"/>
  <outline>
    <contour>
      <point x="570.96410304228743" y="1687" type="move" name="top"/>
    </contour>
    <contour>
      <point x="186.14858252534538" y="10" type="move" name="bottom"/>
    </contour>
    <contour>
      <point x="805.22206351636373" y="1600" type="move" name="top_dd"/>
    </contour>
    <contour>
      <point x="458.44846203902159" y="-407" type="move" name="bottom_dd"/>
    </contour>
    <contour>
      <point x="820.2541030422874" y="1687" type="move" name="top0315"/>
    </contour>
    <contour>
      <point x="335.41857100136065" y="0.0" type="line"/>
      <point x="537.35855660386335" y="1175.7522126357962" type="line" smooth="yes"/>
      <point x="552.5431353421119" y="1258.9997350954857"/>
      <point x="602.67102213714384" y="1323.6353107508573"/>
      <point x="693.18051931029493" y="1322.8332522452597" type="curve" smooth="yes"/>
      <point x="715.97840669106165" y="1322.6312266009406"/>
      <point x="737.69992906225264" y="1317.9457468197713"/>
      <point x="759.65906251113995" y="1312.5568112635767" type="curve"/>
      <point x="782.89395622230222" y="1540.0284429667358" type="line"/>
      <point x="739.48384775084946" y="1550.9258133154053"/>
      <point x="696.06380626650696" y="1559.9509900758007"/>
      <point x="651.0988685178794" y="1560.4299575732218" type="curve" smooth="yes"/>
      <point x="415.6386790170227" y="1562.9380846463205"/>
      <point x="287.5265321976471" y="1394.7264603233241"/>
      <point x="259.03673581682426" y="1175.6317046566508" type="curve" smooth="yes"/>
      <point x="59.170095991394689" y="0.0" type="line"/>
    </contour>
    <contour>
      <point x="687.33865893010375" y="1081.9041929269997" type="line"/>
      <point x="120.1021506445487" y="1081.9168868910942" type="line"/>
      <point x="82.566264671155025" y="869.09530722415434" type="line"/>
      <point x="649.80277295669543" y="869.08261326000729" type="line"/>
    </contour>
  </outline>
</glyph>
<glyph name="g" format="1">
  <advance width="1000.0699999999999"/>
  <unicode hex="0067"/>
  <outline>
    <contour>
      <point x="588.69962382629092" y="1290" type="move" name="top"/>
    </contour>
    <contour>
      <point x="289.54717949836714" y="-447" type="move" name="bottom"/>
    </contour>
    <contour>
      <point x="1153.4520635163638" y="1600" type="move" name="top_dd"/>
    </contour>
    <contour>
      <point x="806.67846203902161" y="-407" type="move" name="bottom_dd"/>
    </contour>
    <contour>
      <point x="1099.889623826291" y="1290" type="move" name="top0315"/>
    </contour>
    <contour>
      <point x="733.37404845791616" y="1081.886443287824" type="line"/>
      <point x="666.56823581805872" y="846.0299363881652" type="line"/>
      <point x="523.63053186594902" y="-1.3763883365457834" type="line" smooth="yes"/>
      <point x="504.35599637830654" y="-124.41386165099063"/>
      <point x="439.74955179104597" y="-205.35479704467235"/>
      <point x="308.3595127581043" y="-201.31518920355145" type="curve" smooth="yes"/>
      <point x="228.58575070274813" y="-198.8625320836785"/>
      <point x="153.32642780447276" y="-162.32121962680327"/>
      <point x="99.824147477106848" y="-104.12908578557089" type="curve"/>
      <point x="-13.515320437930768" y="-297.62311963068197" type="line"/>
      <point x="67.668108656689725" y="-380.56895505763646"/>
      <point x="189.87768632940595" y="-423.79533580555784"/>
      <point x="305.08770791819433" y="-426.91057519923936" type="curve" smooth="yes"/>
      <point x="583.91906526421303" y="-434.45007928594407"/>
      <point x="764.93882438881553" y="-272.60488367241453"/>
      <point x="801.16380136044506" y="0.61813430208755782" type="curve" smooth="yes"/>
      <point x="985.05988510981774" y="1081.9457695035562" type="line"/>
    </contour>
    <contour>
      <point x="52.39180978110268" y="495.85595906075133" type="line" smooth="yes"/>
      <point x="30.967264190878101" y="281.80365871714298"/>
      <point x="61.481083400310922" y="-15.255617918706012"/>
      <point x="336.16662788787397" y="-21.884297432245511" type="curve" smooth="yes"/>
      <point x="585.06711439814262" y="-27.890734934876214"/>
      <point x="694.48398145425961" y="283.51218067983257"/>
      <point x="731.07230354281182" y="483.40624883524771" type="curve"/>
      <point x="744.23595628796704" y="587.13151613133232" type="line"/>
      <point x="757.46714912028312" y="781.22950524281237"/>
      <point x="741.11383026830799" y="1094.0112747833173"/>
      <point x="485.90528045514122" y="1102.1945173871443" type="curve" smooth="yes"/>
      <point x="191.49002162755357" y="1111.6349201127523"/>
      <point x="87.781064330325108" y="810.43245668401039"/>
      <point x="60.097621357015058" y="567.4846799293781" type="curve" smooth="yes"/>
    </contour>
    <contour>
      <point x="336.65508842156356" y="574.13327647177209" type="line" smooth="yes"/>
      <point x="350.13923662582079" y="694.32943786060866"/>
      <point x="387.13372862339634" y="875.23498423171156"/>
      <point x="543.78304341029525" y="867.1585841320408" type="curve" smooth="yes"/>
      <point x="667.0522987674492" y="860.80316644248887"/>
      <point x="674.08383518820449" y="725.05400856669132"/>
      <point x="664.51076503873583" y="629.29570863802223" type="curve" smooth="yes"/>
      <point x="639.28563860618863" y="440.45002959666743" type="line" smooth="yes"/>
      <point x="621.64706085353259" y="329.91112338092216"/>
      <point x="566.05106304056767" y="210.21787344945332"/>
      <point x="436.37820903638362" y="214.78015920011066" type="curve" smooth="yes"/>
      <point x="296.87494085749074" y="219.68830884693"/>
      <point x="320.49549855314427" y="407.06641950124208"/>
      <point x="329.4112235214746" y="501.38584782807175" type="curve" smooth="yes"/>
    </contour>
  </outline>
</glyph>
<glyph name="h" format="1">
  <advance width="977.76"/>
  <unicode hex="0068"/>
  <outline>
    <contour>
      <point x="640.32515415305829" y="1673" type="move" name="top"/>
    </contour>
    <contour>
      <point x="372.69579065200372" y="1303" type="move" name="cross"/>
    </contour>
    <contour>
      <point x="394.69858252534539" y="10" type="move" name="bottom"/>
    </contour>
    <contour>
      <point x="777.09076189018174" y="0" type="move" name="right"/>
    </contour>
    <contour>
      <point x="1131.1420635163638" y="1600" type="move" name="top_dd"/>
    </contour>
    <contour>
      <point x="784.36846203902167" y="-407" type="move" name="bottom_dd"/>
    </contour>
    <contour>
      <point x="1143.7551541530584" y="1673" type="move" name="top0315"/>
    </contour>
    <contour>
      <point x="531.14759548589132" y="1535.9329084687215" type="line"/>
      <point x="254.90875847306904" y="1535.9460099248108" type="line"/>
      <point x="-11.62012280587993" y="0.0" type="line"/>
      <point x="264.61871420693637" y="0.0" type="line"/>
    </contour>
    <contour>
      <point x="325.80382452771499" y="578.16973227974586" type="line"/>
      <point x="342.62732263182284" y="690.53249842701086"/>
      <point x="378.05043623358415" y="872.4915351973782"/>
      <point x="526.74195984834807" y="868.07980655384927" type="curve" smooth="yes"/>
      <point x="628.5066237612449" y="865.06041397672561"/>
      <point x="623.09842421527401" y="762.93840345331512"/>
      <point x="614.95573882641725" y="685.31473475116786" type="curve"/>
      <point x="501.53168392762279" y="0.0" type="line"/>
      <point x="777.72770630621267" y="0.0" type="line"/>
      <point x="891.35214838017544" y="682.26960237171102" type="line"/>
      <point x="910.67854292957179" y="867.00970906427563"/>
      <point x="880.18251780084381" y="1096.6629515336781"/>
      <point x="651.15023586776408" y="1102.9107759207166" type="curve" smooth="yes"/>
      <point x="381.92180563038551" y="1110.2551202983911"/>
      <point x="280.25596939181008" y="789.85634861786673"/>
      <point x="257.64271624699029" y="575.15503065505595" type="curve"/>
    </contour>
  </outline>
</glyph>
<glyph name="i" format="1">
  <advance width="501.49"/>
  <unicode hex="0069"/>
  <outline>
    <contour>
      <point x="148.31858252534533" y="10" type="move" name="bottom"/>
    </contour>
    <contour>
      <point x="242.62076189018171" y="0" type="move" name="ogonek"/>
    </contour>
    <contour>
      <point x="422.07206351636376" y="1600" type="move" name="top"/>
    </contour>
    <contour>
      <point x="654.87206351636382" y="1600" type="move" name="top_dd"/>
    </contour>
    <contour>
      <point x="308.09846203902168" y="-407" type="move" name="bottom_dd"/>
    </contour>
    <contour>
      <point x="320.70023142988367" y="654" type="move" name="rhotichook"/>
    </contour>
    <contour>
      <point x="654.87206351636382" y="1600" type="move" name="top0315"/>
    </contour>
    <contour>
      <point x="472.85955000500644" y="1081.9306728274919" type="line"/>
      <point x="195.65404799448049" y="1081.9434245651985" type="line"/>
      <point x="7.7800104814991897" y="0.0" type="line"/>
      <point x="284.98551249200733" y="0.0" type="line"/>
    </contour>
    <contour>
      <point x="232.09222172995766" y="1356.790434853066" type="curve" smooth="yes"/>
      <point x="232.85343469928631" y="1270.9448111837576"/>
      <point x="296.6143702126476" y="1209.0503785485034"/>
      <point x="382.39156999333056" y="1210.5804222287391" type="curve" smooth="yes"/>
      <point x="470.81871728860051" y="1212.1577341277791"/>
      <point x="533.17559165166904" y="1279.8323020083599"/>
      <point x="532.34229384437231" y="1367.464006871819" type="curve" smooth="yes"/>
      <point x="531.52676671321353" y="1453.2269024897639"/>
      <point x="468.70659622088476" y="1515.6557369535915"/>
      <point x="382.64942091591189" y="1514.1006805634602" type="curve" smooth="yes"/>
      <point x="293.616227293522" y="1512.4918474105516"/>
      <point x="231.30908010342091" y="1445.1090579720785"/>
    </contour>
  </outline>
</glyph>
<glyph name="j" format="1">
  <advance width="487.90999999999997"/>
  <unicode hex="006A"/>
  <outline>
    <contour>
      <point x="373.57206351636376" y="1600" type="move" name="top"/>
    </contour>
    <contour>
      <point x="-8.3762052638292488" y="-459" type="move" name="bottom"/>
    </contour>
    <contour>
      <point x="641.29206351636378" y="1600" type="move" name="top_dd"/>
    </contour>
    <contour>
      <point x="294.5184620390217" y="-407" type="move" name="bottom_dd"/>
    </contour>
    <contour>
      <point x="641.29206351636378" y="1600" type="move" name="top0315"/>
    </contour>
    <contour>
      <point x="196.63256630937565" y="1081.9440772305886" type="line"/>
      <point x="1.5279249118597704" y="-58.768733791872869" type="line" smooth="yes"/>
      <point x="-10.620901053919965" y="-129.67440817000428"/>
      <point x="-39.810692625517206" y="-200.90118161742728"/>
      <point x="-122.2828929546634" y="-201.60909653364001" type="curve" smooth="yes"/>
      <point x="-147.42030606495558" y="-201.82486802542459"/>
      <point x="-172.96057548493286" y="-195.75327664080763"/>
      <point x="-197.38183820554536" y="-190.53902469046423" type="curve"/>
      <point x="-223.15296156232438" y="-420.85120736930259" type="line"/>
      <point x="-178.1103212344413" y="-431.65551177250552"/>
      <point x="-133.12513862526598" y="-439.80184185870996"/>
      <point x="-86.637813950381258" y="-440.26041022869714" type="curve" smooth="yes"/>
      <point x="144.1178358500178" y="-442.53667032613987"/>
      <point x="253.17111873887623" y="-267.0646756734609"/>
      <point x="280.20052947065307" y="-57.797816678448783" type="curve" smooth="yes"/>
      <point x="473.90867450271151" y="1081.9379760357153" type="line"/>
    </contour>
    <contour>
      <point x="227.21299366521612" y="1356.6517221002746" type="curve" smooth="yes"/>
      <point x="228.00266401639013" y="1271.3209377551639"/>
      <point x="291.28851919508901" y="1209.5291425599769"/>
      <point x="376.63059514446383" y="1211.0238077801889" type="curve" smooth="yes"/>
      <point x="465.11568556508018" y="1212.5735191703532"/>
      <point x="528.07638203773161" y="1279.2691855810572"/>
      <point x="527.34073797372128" y="1367.2962235914104" type="curve" smooth="yes"/>
      <point x="526.62074753533227" y="1453.4501515408233"/>
      <point x="463.20463836375052" y="1515.5418084726984"/>
      <point x="376.98115112196865" y="1513.9561445119282" type="curve" smooth="yes"/>
      <point x="288.29819829873168" y="1512.3252505789076"/>
      <point x="226.4007013690543" y="1444.4270053509747"/>
    </contour>
  </outline>
</glyph>
<glyph name="k" format="1">
  <advance width="950.6"/>
  <unicode hex="006B"/>
  <outline>
    <contour>
      <point x="538.111742232551" y="1536.9327895412498" type="line"/>
      <point x="261.8753157558874" y="1536.9458723068865" type="line"/>
      <point x="-4.8291405427057015" y="0.0" type="line"/>
      <point x="271.40728593398853" y="0.0" type="line"/>
    </contour>
    <contour>
      <point x="1019.6115002594706" y="1081.5574795816472" type="line"/>
      <point x="674.781263069115" y="1081.664603995143" type="line"/>
      <point x="436.887033338328" y="770.0567696076081" type="line"/>
      <point x="221.99825098527725" y="512.9708833210742" type="line"/>
      <point x="287.09363840296004" y="283.6292130273675" type="line"/>
      <point x="551.2995510963426" y="536.7048975607195" type="line"/>
    </contour>
    <contour>
      <point x="542.2833872122218" y="0.0" type="line"/>
      <point x="844.5036073434184" y="0.0" type="line"/>
      <point x="608.2900490307967" y="677.0631714009847" type="line"/>
      <point x="397.65614264287825" y="508.341324791251" type="line"/>
    </contour>
    <contour>
      <point x="390.1820444308363" y="40" type="move" name="bottom"/>
    </contour>
    <contour>
      <point x="742.6904097069129" y="1603" type="move" name="top"/>
    </contour>
    <contour>
      <point x="742.6904097069129" y="1603" type="move" name="top"/>
    </contour>
    <contour>
      <point x="1103.9820635163637" y="1600" type="move" name="top_dd"/>
    </contour>
    <contour>
      <point x="757.2084620390216" y="-407" type="move" name="bottom_dd"/>
    </contour>
    <contour>
      <point x="998.7704097069129" y="1603" type="move" name="top0315"/>
    </contour>
    <contour>
      <point x="742.6904097069129" y="1603" type="move" name="parent_top"/>
    </contour>
  </outline>
</glyph>
<glyph name="l" format="1">
  <advance width="501.49"/>
  <unicode hex="006C"/>
  <outline>
    <contour>
      <point x="437.38297478822199" y="1683" type="move" name="top"/>
    </contour>
    <contour>
      <point x="148.31858252534533" y="10" type="move" name="bottom"/>
    </contour>
    <contour>
      <point x="633.14401145131649" y="1536" type="move" name="caron"/>
    </contour>
    <contour>
      <point x="494.41520730591276" y="778" type="move" name="dot"/>
    </contour>
    <contour>
      <point x="740.41385716472735" y="1500" type="move" name="marktop"/>
    </contour>
    <contour>
      <point x="654.87206351636382" y="1600" type="move" name="top_dd"/>
    </contour>
    <contour>
      <point x="308.09846203902168" y="-407" type="move" name="bottom_dd"/>
    </contour>
    <contour>
      <point x="669.21297478822203" y="1683" type="move" name="top0315"/>
    </contour>
    <contour>
      <point x="551.51624736163626" y="1535.9337739724297" type="line"/>
      <point x="274.30829948183555" y="1535.9470254202859" type="line"/>
      <point x="7.7802616270926848" y="0.0" type="line"/>
      <point x="284.98820950688639" y="0.0" type="line"/>
    </contour>
  </outline>
</glyph>
<glyph name="m" format="1">
  <advance width="1473.43"/>
  <unicode hex="006D"/>
  <outline>
    <contour>
      <point x="874.84962382629101" y="1290" type="move" name="top"/>
    </contour>
    <contour>
      <point x="650.77858252534543" y="10" type="move" name="bottom"/>
    </contour>
    <contour>
      <point x="874.84962382629101" y="1290" type="move" name="marktop"/>
    </contour>
    <contour>
      <point x="1626.8120635163637" y="1600" type="move" name="top_dd"/>
    </contour>
    <contour>
      <point x="1280.0384620390216" y="-407" type="move" name="bottom_dd"/>
    </contour>
    <contour>
      <point x="1573.2496238262911" y="1290" type="move" name="top0315"/>
    </contour>
    <contour>
      <point x="419.41459124191113" y="842.28292476166723" type="line"/>
      <point x="442.54337839517973" y="1081.9747911045229" type="line"/>
      <point x="184.98685453267854" y="1081.9403534873413" type="line"/>
      <point x="-2.8897064281559182" y="0.0" type="line"/>
      <point x="273.33338757970859" y="0.0" type="line"/>
    </contour>
    <contour>
      <point x="335.58078807466256" y="578.1838360721764" type="line"/>
      <point x="351.18242149387697" y="683.54281198731087"/>
      <point x="388.20969329263016" y="872.63637962630355"/>
      <point x="530.05012713608301" y="868.57228269115888" type="curve" smooth="yes"/>
      <point x="627.65832755079316" y="865.7755541603633"/>
      <point x="616.3586532575265" y="759.95570808361992"/>
      <point x="608.6766158911397" y="688.40313637156225" type="curve"/>
      <point x="494.75056921578289" y="0.0" type="line"/>
      <point x="769.97493455104802" y="0.0" type="line"/>
      <point x="890.27495709830498" y="722.2327529919711" type="line"/>
      <point x="906.89199222131379" y="886.64155982858802"/>
      <point x="876.29941104208069" y="1096.9493086745915"/>
      <point x="672.05272289241941" y="1102.8615623606349" type="curve" smooth="yes"/>
      <point x="388.33060127352769" y="1111.074362159495"/>
      <point x="288.52216759245772" y="805.94445915096389"/>
      <point x="264.6014722396053" y="575.1798748157604" type="curve"/>
    </contour>
    <contour>
      <point x="850.43632481714712" y="603.88343916000974" type="line"/>
      <point x="865.05171831898986" y="699.78712197287757"/>
      <point x="897.62233609622513" y="870.05995800389837"/>
      <point x="1026.0785875781817" y="868.12282948616496" type="curve" smooth="yes"/>
      <point x="1123.1516723380971" y="866.65896113703138"/>
      <point x="1112.2930332200633" y="760.67991074286067"/>
      <point x="1105.0674792215259" y="690.18646985044415" type="curve"/>
      <point x="991.39255256391834" y="0.0" type="line"/>
      <point x="1267.5865953388022" y="0.0" type="line"/>
      <point x="1382.5844251378221" y="689.27948853009514" type="line"/>
      <point x="1401.8518275947947" y="869.77680255717894"/>
      <point x="1376.8056698905148" y="1097.0938398012124"/>
      <point x="1151.2087512752446" y="1102.8122168324369" type="curve" smooth="yes"/>
      <point x="874.60573220821311" y="1109.8234843652958"/>
      <point x="778.02285764656972" y="815.60663668043287"/>
      <point x="759.8553273470261" y="589.22860240209081" type="curve"/>
    </contour>
  </outline>
</glyph>
<glyph name="n" format="1">
  <advance width="977.76"/>
  <unicode hex="006E"/>
  <outline>
    <contour>
      <point x="607.12962382629098" y="1290" type="move" name="top"/>
    </contour>
    <contour>
      <point x="384.02858252534537" y="10" type="move" name="bottom"/>
    </contour>
    <contour>
      <point x="106.26122938780016" y="1535" type="move" name="caron"/>
    </contour>
    <contour>
      <point x="780.00076189018171" y="0" type="move" name="right"/>
    </contour>
    <contour>
      <point x="607.12962382629098" y="1290" type="move" name="marktop"/>
    </contour>
    <contour>
      <point x="1131.1420635163638" y="1600" type="move" name="top_dd"/>
    </contour>
    <contour>
      <point x="784.36846203902167" y="-407" type="move" name="bottom_dd"/>
    </contour>
    <contour>
      <point x="1077.579623826291" y="1290" type="move" name="top0315"/>
    </contour>
    <contour>
      <point x="410.6166614982825" y="836.31902101001413" type="line"/>
      <point x="434.81845540964457" y="1081.9738476937857" type="line"/>
      <point x="177.22743180938721" y="1081.9408832747458" type="line"/>
      <point x="-10.64899934466375" y="0.0" type="line"/>
      <point x="265.57454115431784" y="0.0" type="line"/>
    </contour>
    <contour>
      <point x="326.43489925510164" y="577.79578250593522" type="line"/>
      <point x="343.12424429979285" y="685.68325393867326"/>
      <point x="384.0419058552219" y="871.69096650218194"/>
      <point x="527.17483495136855" y="868.237670685701" type="curve" smooth="yes"/>
      <point x="628.31952604304649" y="865.79740385952903"/>
      <point x="624.3615904424928" y="769.8700727808764"/>
      <point x="616.06098018452462" y="691.35302640527027" type="curve"/>
      <point x="501.53939559687922" y="0.0" type="line"/>
      <point x="777.73132902966745" y="0.0" type="line"/>
      <point x="892.44300822215473" y="688.2821757749465" type="line"/>
      <point x="911.18781115671811" y="865.27182979832094"/>
      <point x="890.55161333643912" y="1096.2144854177855"/>
      <point x="667.07642748058868" y="1102.7994204328013" type="curve" smooth="yes"/>
      <point x="385.35261987653297" y="1111.1007132951424"/>
      <point x="283.8902549890048" y="802.55729791177851"/>
      <point x="262.58095920958414" y="574.08011594805873" type="curve"/>
    </contour>
  </outline>
</glyph>
<glyph name="o" format="1">
  <advance width="988.43"/>
  <unicode hex="006F"/>
  <outline>
    <contour>
      <point x="597.35222716291707" y="1290" type="move" name="top"/>
    </contour>
    <contour>
      <point x="398.03339983325566" y="-8" type="move" name="bottom"/>
    </contour>
    <contour>
      <point x="1123.8603292216189" y="1600" type="move" name="top_dd"/>
    </contour>
    <contour>
      <point x="811.16906847382961" y="-407" type="move" name="bottom_dd"/>
    </contour>
    <contour>
      <point x="812.54321777796747" y="654" type="move" name="rhotichook"/>
    </contour>
    <contour>
      <point x="1075.5622271629172" y="1290" type="move" name="top0315"/>
    </contour>
    <contour>
      <point x="53.880613592248821" y="504.82456666654747" type="line" smooth="yes"/>
      <point x="28.063747530235389" y="248.94385697108024"/>
      <point x="112.92018879582571" y="-12.929134151376786"/>
      <point x="407.9258769466748" y="-20.454861067227348" type="curve" smooth="yes"/>
      <point x="713.89608616392638" y="-28.260297814525778"/>
      <point x="871.79955106935245" y="230.76214437034082"/>
      <point x="905.22805972893354" y="505.2424776595322" type="curve" smooth="yes"/>
      <point x="913.30135342876247" y="576.19474332748644" type="line" smooth="yes"/>
      <point x="939.59576674176765" y="832.33235222707617"/>
      <point x="855.11165169431717" y="1094.9217422295494"/>
      <point x="559.58826163368269" y="1102.4446441008902" type="curve" smooth="yes"/>
      <point x="254.07943720008012" y="1110.2217371647289"/>
      <point x="94.576117481547357" y="849.45212605521215"/>
      <point x="61.72781733258013" y="575.26206881049609" type="curve" smooth="yes"/>
    </contour>
    <contour>
      <point x="339.18033573909867" y="576.16375161533813" type="line" smooth="yes"/>
      <point x="351.46388185800953" y="683.82940341514802"/>
      <point x="389.26546259185034" y="876.79542197590172"/>
      <point x="535.16978316327925" y="868.96286516050543" type="curve" smooth="yes"/>
      <point x="665.94479864317805" y="861.9424922560637"/>
      <point x="645.28417955302996" y="663.82120790365059"/>
      <point x="637.61977867762175" y="577.78836503753109" type="curve" smooth="yes"/>
      <point x="630.88796013724232" y="507.33873188885963" type="line" smooth="yes"/>
      <point x="618.57049860196685" y="395.29207376067177"/>
      <point x="583.13384499536664" y="205.45938619324772"/>
      <point x="432.89579469457544" y="213.51818965617264" type="curve" smooth="yes"/>
      <point x="301.2197260564983" y="220.58132416703953"/>
      <point x="323.73959427364792" y="416.58802062025211"/>
      <point x="331.86155509926607" y="503.39973327603974" type="curve" smooth="yes"/>
    </contour>
  </outline>
</glyph>
<glyph name="p" format="1">
  <advance width="983.5799999999999"/>
  <unicode hex="0070"/>
  <outline>
    <contour>
      <point x="690.76180319112734" y="1280" type="move" name="top"/>
    </contour>
    <contour>
      <point x="61.718462039021674" y="-407" type="move" name="bottom"/>
    </contour>
    <contour>
      <point x="690.76180319112734" y="1280" type="move" name="marktop"/>
    </contour>
    <contour>
      <point x="1136.9620635163637" y="1600" type="move" name="top_dd"/>
    </contour>
    <contour>
      <point x="790.1884620390216" y="-407" type="move" name="bottom_dd"/>
    </contour>
    <contour>
      <point x="1081.6718031911273" y="1280" type="move" name="top0315"/>
    </contour>
    <contour>
      <point x="420.40478289767827" y="859.18723847594947" type="line"/>
      <point x="437.37176622510992" y="1081.9821059883861" type="line"/>
      <point x="184.01813877060732" y="1081.9407530306564" type="line"/>
      <point x="-75.935095501246522" y="-415.93203846063869" type="line"/>
      <point x="199.31678389025387" y="-415.94688888580674" type="line"/>
    </contour>
    <contour>
      <point x="913.65461880274825" y="578.22101704686861" type="line" smooth="yes"/>
      <point x="936.61660901029575" y="794.89878862169246"/>
      <point x="925.99336129332892" y="1096.768368573518"/>
      <point x="642.98458177112468" y="1103.3765100205042" type="curve" smooth="yes"/>
      <point x="388.28021534547213" y="1109.32375477859"/>
      <point x="283.93491476049479" y="794.20659563257311"/>
      <point x="248.48748259069936" y="590.44669867479661" type="curve" smooth="yes"/>
      <point x="234.41260292365126" y="479.8618917995114" type="line"/>
      <point x="222.75893836669781" y="296.30598021083813"/>
      <point x="259.11282544110145" y="-11.812357558953764"/>
      <point x="497.30365291381997" y="-20.225059751458222" type="curve" smooth="yes"/>
      <point x="783.0580641566612" y="-30.317668217902259"/>
      <point x="877.73946266289067" y="276.61838113323307"/>
      <point x="905.59953164790056" y="507.68471383243678" type="curve" smooth="yes"/>
    </contour>
    <contour>
      <point x="628.76122191749982" y="506.90805063048776" type="line" smooth="yes"/>
      <point x="616.39035253505847" y="392.45623131252762"/>
      <point x="590.53650490133884" y="206.12569910082451"/>
      <point x="436.8642559524493" y="213.2589021942006" type="curve" smooth="yes"/>
      <point x="316.87824449099446" y="218.82844773005968"/>
      <point x="310.99035621488196" y="342.20603636002363"/>
      <point x="320.44786195252897" y="436.72102586344823" type="curve" smooth="yes"/>
      <point x="346.49936366625536" y="632.55735858155822" type="line" smooth="yes"/>
      <point x="362.3224836302532" y="740.07872588410601"/>
      <point x="408.60669462671677" y="873.30643603465705"/>
      <point x="539.77387407629715" y="868.55122959036419" type="curve" smooth="yes"/>
      <point x="677.3911738081772" y="863.5621868033096"/>
      <point x="644.48403993520174" y="669.50248299222835"/>
      <point x="635.89759209910744" y="579.51367707813927" type="curve" smooth="yes"/>
    </contour>
  </outline>
</glyph>
<glyph name="q" format="1">
  <advance width="987.4599999999999"/>
  <unicode hex="0071"/>
  <outline>
    <contour>
      <point x="576.08962382629102" y="1290" type="move" name="top"/>
    </contour>
    <contour>
      <point x="574.84846203902168" y="-407" type="move" name="bottom"/>
    </contour>
    <contour>
      <point x="576.08962382629102" y="1290" type="move" name="marktop"/>
    </contour>
    <contour>
      <point x="1140.8420635163639" y="1600" type="move" name="top_dd"/>
    </contour>
    <contour>
      <point x="794.0684620390216" y="-407" type="move" name="bottom_dd"/>
    </contour>
    <contour>
      <point x="1087.2796238262908" y="1290" type="move" name="top0315"/>
    </contour>
    <contour>
      <point x="430.38831562911344" y="-415.93369013576506" type="line"/>
      <point x="707.61468173730259" y="-415.94415483459488" type="line"/>
      <point x="967.59612082302442" y="1081.9505884088474" type="line"/>
      <point x="723.00922380410418" y="1081.8439806445922" type="line"/>
      <point x="654.03637877967094" y="874.89502824204067" type="line"/>
    </contour>
    <contour>
      <point x="49.39006506917589" y="499.16090199189807" type="line" smooth="yes"/>
      <point x="27.718318745322193" y="288.69400514629626"/>
      <point x="44.997235360029322" y="-15.279510179020647"/>
      <point x="320.85840985709547" y="-21.882147845720109" type="curve" smooth="yes"/>
      <point x="569.52142897700992" y="-27.833807477959574"/>
      <point x="679.45590476392431" y="285.94676556441794"/>
      <point x="715.86694566221604" y="485.40363281093869" type="curve"/>
      <point x="728.91568429557435" y="589.12732010135221" type="line"/>
      <point x="740.94195117493632" y="773.799323384628"/>
      <point x="712.91037576464134" y="1093.3004656872786"/>
      <point x="469.47620092554882" y="1102.078478059012" type="curve" smooth="yes"/>
      <point x="176.52096688034396" y="1112.6421742635923"/>
      <point x="84.666493287634339" y="809.06147679409889"/>
      <point x="57.241972420517882" y="570.770572412923" type="curve" smooth="yes"/>
    </contour>
    <contour>
      <point x="333.88773173528477" y="571.92925495026452" type="line" smooth="yes"/>
      <point x="345.75995935851722" y="688.27076999193719"/>
      <point x="372.18062461433766" y="875.33083051022106"/>
      <point x="527.83171684049364" y="867.77723446358539" type="curve" smooth="yes"/>
      <point x="650.22471634502449" y="861.83762129434388"/>
      <point x="651.91609582860792" y="724.51620715198919"/>
      <point x="642.69755243604777" y="631.02394034492625" type="curve" smooth="yes"/>
      <point x="617.62751231929042" y="443.45069710222481" type="line" smooth="yes"/>
      <point x="600.76412682471641" y="335.48839662209406"/>
      <point x="551.96558635668384" y="208.79554286844694"/>
      <point x="422.2320648418879" y="213.01423144793" type="curve" smooth="yes"/>
      <point x="286.22310983447289" y="217.43698524739244"/>
      <point x="319.40914754690516" y="411.86480018222647"/>
      <point x="327.37423344432426" y="500.21217240235342" type="curve" smooth="yes"/>
    </contour>
  </outline>
</glyph>
<glyph name="r" format="1">
  <advance width="658.63"/>
  <unicode hex="0072"/>
  <outline>
    <contour>
      <point x="473.26962382629108" y="1290" type="move" name="top"/>
    </contour>
    <contour>
      <point x="139.58858252534537" y="10" type="move" name="bottom"/>
    </contour>
    <contour>
      <point x="812.01206351636381" y="1600" type="move" name="top_dd"/>
    </contour>
    <contour>
      <point x="465.23846203902167" y="-407" type="move" name="bottom_dd"/>
    </contour>
    <contour>
      <point x="758.44962382629103" y="1290" type="move" name="top0315"/>
    </contour>
    <contour>
      <point x="414.37270797543897" y="824.47861294766415" type="line"/>
      <point x="442.77344583619026" y="1081.9692704587728" type="line"/>
      <point x="183.04837750909803" y="1081.943381583643" type="line"/>
      <point x="-4.8320593616760021" y="0.0" type="line"/>
      <point x="271.38811841797173" y="0.0" type="line"/>
    </contour>
    <contour>
      <point x="700.34482768045382" y="1090.5269865089856" type="line"/>
      <point x="672.246794235425" y="1098.1582086427529"/>
      <point x="644.28229688357101" y="1104.2327174989348"/>
      <point x="614.97718711229049" y="1104.5154627775607" type="curve" smooth="yes"/>
      <point x="385.47010563149308" y="1106.7298221232998"/>
      <point x="330.85498347383987" y="784.94601953402298"/>
      <point x="307.57194333362008" y="615.80797013017013" type="curve"/>
      <point x="355.91132732714419" y="594.62153482765291" type="line"/>
      <point x="380.90574705853709" y="714.18028362935934"/>
      <point x="435.50573188760802" y="822.95933828679142"/>
      <point x="573.94683751156947" y="820.44285400402759" type="curve" smooth="yes"/>
      <point x="603.78306072746022" y="819.90051228809409"/>
      <point x="633.63583801602022" y="814.83315328954563"/>
      <point x="662.93252214703534" y="809.61494849012422" type="curve"/>
    </contour>
  </outline>
</glyph>
<glyph name="s" format="1">
  <advance width="902.1"/>
  <unicode hex="0073"/>
  <outline>
    <contour>
      <point x="559.52222716291703" y="1290" type="move" name="top"/>
    </contour>
    <contour>
      <point x="356.98179917481241" y="-10" type="move" name="bottom"/>
    </contour>
    <contour>
      <point x="1038.5003292216188" y="1600" type="move" name="top_dd"/>
    </contour>
    <contour>
      <point x="725.8090684738296" y="-407" type="move" name="bottom_dd"/>
    </contour>
    <contour>
      <point x="990.20222716291698" y="1290" type="move" name="top0315"/>
    </contour>
    <contour>
      <point x="514.55364771823099" y="297.48563502618913" type="curve" smooth="yes"/>
      <point x="503.35127681937735" y="226.78029107847865"/>
      <point x="450.15370605680516" y="189.46450164127819"/>
      <point x="380.79532857422572" y="189.1313747533809" type="curve" smooth="yes"/>
      <point x="286.48387443068054" y="188.67839874165401"/>
      <point x="266.34842494989488" y="251.83195242964092"/>
      <point x="268.79311811258714" y="335.364184184838" type="curve"/>
      <point x="7.1680462673774912" y="336.25668967518811" type="line"/>
      <point x="4.9141813552695073" y="126.20464911887154"/>
      <point x="153.82613598728196" y="-15.078955102797245"/>
      <point x="362.15346843372691" y="-19.910742128976221" type="curve" smooth="yes"/>
      <point x="566.83172670391787" y="-24.65789528087986"/>
      <point x="767.90330367243155" y="88.783737666720896"/>
      <point x="780.38183174919664" y="309.92616979807957" type="curve" smooth="yes"/>
      <point x="790.71698783571708" y="493.08411433850893"/>
      <point x="671.37107773636558" y="576.19530041240535"/>
      <point x="520.16021864580637" y="646.12622362724983" type="curve" smooth="yes"/>
      <point x="467.92034923117518" y="670.28574708184647"/>
      <point x="363.74974795263563" y="707.27174500692081"/>
      <point x="377.17317149979925" y="782.40747229199064" type="curve" smooth="yes"/>
      <point x="387.99046546243159" y="842.95575539451647"/>
      <point x="435.14095426805807" y="892.68316517815208"/>
      <point x="498.79419586269591" y="893.43875569127329" type="curve" smooth="yes"/>
      <point x="579.41544795981599" y="894.39576356258442"/>
      <point x="587.84224426146409" y="827.55942744795436"/>
      <point x="585.05687771991347" y="762.46618846177444" type="curve"/>
      <point x="860.67815318329667" y="761.84922499579238" type="line"/>
      <point x="863.9439083846321" y="973.00606977040661"/>
      <point x="721.22270128229843" y="1098.8530363544228"/>
      <point x="513.52848923517945" y="1102.5472422441985" type="curve" smooth="yes"/>
      <point x="312.67912031481347" y="1106.1197005920269"/>
      <point x="127.88297605161905" y="978.89498013412936"/>
      <point x="116.5822275695004" y="767.81064482171621" type="curve" smooth="yes"/>
      <point x="107.26553667502178" y="593.78610937753524"/>
      <point x="227.90773538189791" y="509.55223008741319"/>
      <point x="369.48175836635835" y="440.7010652099658" type="curve" smooth="yes"/>
      <point x="423.27142463649972" y="414.54173807496676"/>
      <point x="526.66996221126135" y="373.95946287418559"/>
    </contour>
  </outline>
</glyph>
<glyph name="t" format="2">
  <advance width="610"/>
  <unicode hex="0074"/>
  <anchor x="271.72076189018173" y="0" name="bottom"/>
  <anchor x="454.96708764033474" y="1476" name="top"/>
  <anchor x="712.3018803344219" y="1298" name="marktop"/>
  <anchor x="763.5120635163638" y="1600" name="top_dd"/>
  <anchor x="416.73846203902167" y="-407" name="bottom_dd"/>
  <anchor x="742.0870876403346" y="1476" name="top0315"/>
  <anchor x="454.96708764033474" y="1476" name="parent_top"/>
  <outline>
    <contour>
      <point x="644.6599242688764" y="1081.902802270767" type="line"/>
      <point x="106.52624831845004" y="1081.9156731809849" type="line"/>
      <point x="68.98794558599938" y="869.0939941840678" type="line"/>
      <point x="607.1216215364341" y="869.0811232738945" type="line"/>
    </contour>
    <contour>
      <point x="274.92997997839444" y="1348.948156126822" type="line"/>
      <point x="98.85489695137302" y="300.922813609314" type="line"/>
      <point x="83.78136116167083" y="134.0882526986902"/>
      <point x="140.1930662058027" y="-15.538297852019397"/>
      <point x="327.0793258735049" y="-18.450509115239715" type="curve" smooth="yes"/>
      <point x="377.25467644079504" y="-19.232381583113515"/>
      <point x="426.1538263611478" y="-11.687278756427943"/>
      <point x="473.00296130939023" y="6.24766491634199" type="curve"/>
      <point x="496.0415200124795" y="228.88793036251846" type="line"/>
      <point x="473.8014161779418" y="225.28217509743567"/>
      <point x="451.4376294791289" y="221.35486938219935"/>
      <point x="428.77405568346785" y="222.22891613410604" type="curve" smooth="yes"/>
      <point x="365.0922742908805" y="224.68487717024587"/>
      <point x="370.6861174379297" y="277.3797682130548"/>
      <point x="376.6117059510367" y="329.01501000263187" type="curve"/>
      <point x="549.5158379107454" y="1348.8792750114965" type="line"/>
    </contour>
  </outline>
</glyph>
<glyph name="u" format="1">
  <advance width="977.76"/>
  <unicode hex="0075"/>
  <outline>
    <contour>
      <point x="604.21962382629101" y="1290" type="move" name="top"/>
    </contour>
    <contour>
      <point x="747.02076189018169" y="0" type="move" name="ogonek"/>
    </contour>
    <contour>
      <point x="292.09076189018174" y="0" type="move" name="bottomu"/>
    </contour>
    <contour>
      <point x="1131.1420635163638" y="1600" type="move" name="top_dd"/>
    </contour>
    <contour>
      <point x="784.36846203902167" y="-407" type="move" name="bottom_dd"/>
    </contour>
    <contour>
      <point x="785.33023142988361" y="654" type="move" name="rhotichook"/>
    </contour>
    <contour>
      <point x="1077.579623826291" y="1290" type="move" name="top0315"/>
    </contour>
    <contour>
      <point x="383.27076189018175" y="0" type="move" name="bottom"/>
    </contour>
    <contour>
      <point x="549.34896896166811" y="274.55349575487077" type="line"/>
      <point x="520.01461260493579" y="0.0" type="line"/>
      <point x="778.71229948036773" y="0.0" type="line"/>
      <point x="966.58967376663372" y="1081.9302368417514" type="line"/>
      <point x="689.40391977909644" y="1081.9484030992755" type="line"/>
    </contour>
    <contour>
      <point x="610.41792549273146" y="487.00314471746589" type="line"/>
      <point x="595.79227694317103" y="370.53632666596212"/>
      <point x="558.27846440050973" y="206.99722054415977"/>
      <point x="407.26265971817401" y="215.51222045353612" type="curve" smooth="yes"/>
      <point x="324.63825420907654" y="220.17098320291961"/>
      <point x="330.42378047832204" y="318.4452009808341"/>
      <point x="336.56775017877578" y="378.60999031624834" type="curve"/>
      <point x="453.4231645969312" y="1081.9265282165527" type="line"/>
      <point x="177.23103040400946" y="1081.9471220754176" type="line"/>
      <point x="60.200050311460117" y="381.73980141205436" type="line"/>
      <point x="40.696219361340624" y="197.82568503001195"/>
      <point x="80.828326901355439" y="-16.029027606979909"/>
      <point x="303.50578234668592" y="-21.224227187251387" type="curve" smooth="yes"/>
      <point x="577.75805841003626" y="-27.622698494745812"/>
      <point x="654.66269134210347" y="272.00278377899701"/>
      <point x="677.0317059530388" y="489.74071166537431" type="curve"/>
    </contour>
  </outline>
</glyph>
<glyph name="v" format="1">
  <advance width="892.4"/>
  <unicode hex="0076"/>
  <outline>
    <contour>
      <point x="351.7343885535866" y="229.48343354138268" type="line"/>
      <point x="310.5432535632301" y="0.0" type="line"/>
      <point x="486.7940016825247" y="0.0" type="line"/>
      <point x="944.393809159374" y="1081.7845126840393" type="line"/>
      <point x="650.2284949694565" y="1081.8637647778276" type="line"/>
    </contour>
    <contour>
      <point x="386.10132527709897" y="1082.0082084767234" type="line"/>
      <point x="103.45563156818912" y="1082.0208351935078" type="line"/>
      <point x="222.48427722957234" y="0.0" type="line"/>
      <point x="391.93663530568" y="0.0" type="line"/>
      <point x="421.2951310855507" y="202.52871377881402" type="line"/>
    </contour>
    <contour>
      <point x="554.0842238707008" y="1280" type="move" name="top"/>
    </contour>
    <contour>
      <point x="356.2178057592448" y="10" type="move" name="bottom"/>
    </contour>
    <contour>
      <point x="1028.800329221619" y="1600" type="move" name="top_dd"/>
    </contour>
    <contour>
      <point x="716.1090684738297" y="-407" type="move" name="bottom_dd"/>
    </contour>
    <contour>
      <point x="978.944223870701" y="1280" type="move" name="top0315"/>
    </contour>
    <contour>
      <point x="554.0842238707008" y="1280" type="move" name="parent_top"/>
    </contour>
  </outline>
</glyph>
<glyph name="w" format="1">
  <advance width="1257.12"/>
  <unicode hex="0077"/>
  <outline>
    <contour>
      <point x="746.80962382629104" y="1290" type="move" name="top"/>
    </contour>
    <contour>
      <point x="527.58858252534537" y="10" type="move" name="bottom"/>
    </contour>
    <contour>
      <point x="746.80962382629104" y="1290" type="move" name="marktop"/>
    </contour>
    <contour>
      <point x="1410.5020635163637" y="1600" type="move" name="top_dd"/>
    </contour>
    <contour>
      <point x="1063.7284620390217" y="-407" type="move" name="bottom_dd"/>
    </contour>
    <contour>
      <point x="1356.9396238262912" y="1290" type="move" name="top0315"/>
    </contour>
    <contour>
      <point x="294.89367889155392" y="301.42916703604618" type="line"/>
      <point x="231.1064295493598" y="0.0" type="line"/>
      <point x="379.49905007076973" y="0.0" type="line"/>
      <point x="684.01356143012777" y="739.60868982770501" type="line"/>
      <point x="788.23853817115912" y="1081.8763403892392" type="line"/>
      <point x="609.47779482688202" y="1081.8225511126259" type="line"/>
    </contour>
    <contour>
      <point x="379.27205958080719" y="1081.9960306023929" type="line"/>
      <point x="119.0529765501273" y="1082.0120334398487" type="line"/>
      <point x="149.60231807092913" y="0.0" type="line"/>
      <point x="315.99135963342121" y="0.0" type="line"/>
      <point x="364.8327580149616" y="274.02460625676565" type="line"/>
    </contour>
    <contour>
      <point x="788.55577219002407" y="317.73170681829509" type="line"/>
      <point x="732.19676874974186" y="0.0" type="line"/>
      <point x="904.892980908288" y="0.0" type="line"/>
      <point x="1310.0189211108682" y="1081.8557750987543" type="line"/>
      <point x="1039.2123779037443" y="1081.8495464222219" type="line"/>
    </contour>
    <contour>
      <point x="806.92646669064811" y="1082.019722923686" type="line"/>
      <point x="640.72265167893715" y="1081.988321172571" type="line"/>
      <point x="625.97092677937405" y="765.60381052461435" type="line"/>
      <point x="674.89085978767389" y="0.0" type="line"/>
      <point x="815.95370514226522" y="0.0" type="line"/>
      <point x="852.53106466466102" y="278.86006805536471" type="line"/>
    </contour>
  </outline>
</glyph>
<glyph name="x" format="1">
  <advance width="899.1899999999999"/>
  <unicode hex="0078"/>
  <outline>
    <contour>
      <point x="356.21780575924481" y="10" type="move" name="bottom"/>
    </contour>
    <contour>
      <point x="630.13980246702863" y="0" type="move" name="right"/>
    </contour>
    <contour>
      <point x="443.57158419736231" y="552" type="move" name="cross"/>
    </contour>
    <contour>
      <point x="555.05422387070087" y="1280" type="move" name="top"/>
    </contour>
    <contour>
      <point x="1035.590329221619" y="1600" type="move" name="top_dd"/>
    </contour>
    <contour>
      <point x="722.89906847382963" y="-407" type="move" name="bottom_dd"/>
    </contour>
    <contour>
      <point x="985.73422387070093" y="1280" type="move" name="top0315"/>
    </contour>
    <contour>
      <point x="406.2278935816181" y="1082.049234743338" type="line"/>
      <point x="122.05816448202231" y="1082.0052552294119" type="line"/>
      <point x="273.84043393660642" y="565.60270774991363" type="line"/>
      <point x="-69.094359628471864" y="0.0" type="line"/>
      <point x="237.04157806270211" y="0.0" type="line"/>
      <point x="417.58573825258213" y="336.95663181012168" type="line"/>
      <point x="492.59099921120242" y="0.0" type="line"/>
      <point x="775.61777677192481" y="0.0" type="line"/>
      <point x="616.97502475957538" y="540.0441848222415" type="line"/>
      <point x="946.2286990217068" y="1081.6295971592126" type="line"/>
      <point x="643.09872934225621" y="1081.7154803366484" type="line"/>
      <point x="472.47438466896051" y="764.25471617126868" type="line"/>
    </contour>
  </outline>
</glyph>
<glyph name="z" format="1">
  <advance width="899.1899999999999"/>
  <unicode hex="007A"/>
  <outline>
    <contour>
      <point x="566.38962382629097" y="1290" type="move" name="top"/>
    </contour>
    <contour>
      <point x="343.28858252534536" y="10" type="move" name="bottom"/>
    </contour>
    <contour>
      <point x="1052.5720635163639" y="1600" type="move" name="top_dd"/>
    </contour>
    <contour>
      <point x="705.79846203902162" y="-407" type="move" name="bottom_dd"/>
    </contour>
    <contour>
      <point x="999.00962382629086" y="1290" type="move" name="top0315"/>
    </contour>
    <contour>
      <point x="756.88473552670621" y="234.90713192196677" type="line"/>
      <point x="88.768071311618556" y="234.92036464823755" type="line"/>
      <point x="47.461812350993981" y="0.0" type="line"/>
      <point x="715.57847656608192" y="0.0" type="line"/>
    </contour>
    <contour>
      <point x="865.64408599578019" y="898.21821166593224" type="line"/>
      <point x="897.79641185200046" y="1081.9438612474005" type="line"/>
      <point x="703.02933094992306" y="1081.6527442309646" type="line"/>
      <point x="5.9525208267297529" y="189.78865282658361" type="line"/>
      <point x="-27.193363775900949" y="0.0" type="line"/>
      <point x="165.59483059234873" y="0.0" type="line"/>
    </contour>
    <contour>
      <point x="801.78007114760874" y="1081.9052543050675" type="line"/>
      <point x="171.49295267390107" y="1081.918484809604" type="line"/>
      <point x="130.18514047550588" y="847.09551016234559" type="line"/>
      <point x="760.4722589492103" y="847.08227965780986" type="line"/>
    </contour>
  </outline>
</glyph>
<glyph name="braceleft" format="1">
  <advance width="591.6999999999999"/>
  <unicode hex="007B"/>
  <outline>
    <contour>
      <point x="634.42347648275268" y="1599.4713263703254" type="line"/>
      <point x="409.04994124312907" y="1524.2314689500367"/>
      <point x="299.23598515130908" y="1362.3248717683871"/>
      <point x="268.65180235712398" y="1131.6989866871806" type="curve" smooth="yes"/>
      <point x="240.97950984289093" y="929.27576316278476" type="line" smooth="yes"/>
      <point x="225.59031533770812" y="825.96662291410735"/>
      <point x="184.30448840280366" y="728.72016338853052"/>
      <point x="68.275787498159474" y="721.01799049726174" type="curve"/>
      <point x="54.710437091489894" y="563.97398101393253" type="line"/>
      <point x="292.75921114211781" y="570.25447401049644"/>
      <point x="458.73387485202051" y="684.82043136451034"/>
      <point x="488.37030361992174" y="929.1741251454755" type="curve" smooth="yes"/>
      <point x="515.26295913662386" y="1131.9733163202272" type="line" smooth="yes"/>
      <point x="531.84914538255077" y="1247.5532474530933"/>
      <point x="559.4036612594233" y="1375.9682701959225"/>
      <point x="671.33716946349568" y="1434.9798711713765" type="curve"/>
    </contour>
    <contour>
      <point x="414.77085489625603" y="-195.96154832015191" type="line"/>
      <point x="319.51063293502938" y="-134.98144977476971"/>
      <point x="345.29400658313699" y="9.2458228104380709"/>
      <point x="357.95383876767733" y="104.93609680987193" type="curve" smooth="yes"/>
      <point x="384.97327329799271" y="309.09273654798" type="line" smooth="yes"/>
      <point x="405.39055875089264" y="527.99448311203787"/>
      <point x="271.03849982427244" y="662.94605656885983"/>
      <point x="56.226483528291368" y="671.5221942887498" type="curve"/>
      <point x="44.172522065470389" y="513.04158789509063" type="line"/>
      <point x="151.59424297179072" y="500.17108886144496"/>
      <point x="151.22290075702659" y="401.18483124255704"/>
      <point x="140.48771609212992" y="310.40575304849011" type="curve" smooth="yes"/>
      <point x="112.62090650847472" y="105.86060358225164" type="line" smooth="yes"/>
      <point x="89.911642546585654" y="-99.825604872814026"/>
      <point x="157.31562064347267" y="-280.95698923471423"/>
      <point x="358.9489614778455" y="-359.85547740766089" type="curve"/>
    </contour>
  </outline>
</glyph>
<glyph name="bar" format="1">
  <advance width="503.43"/>
  <unicode hex="007C"/>
  <outline>
    <contour>
      <point x="473.50514862712964" y="1455.9512060442783" type="line"/>
      <point x="302.02712984652726" y="1455.9596645674781" type="line"/>
      <point x="32.031307937572663" y="-269.9539451046839" type="line"/>
      <point x="203.50932671817543" y="-269.96240362787387" type="line"/>
    </contour>
  </outline>
</glyph>
<glyph name="braceright" format="1">
  <advance width="591.6999999999999"/>
  <unicode hex="007D"/>
  <outline>
    <contour>
      <point x="181.64083063364689" y="1435.4784049728223" type="line"/>
      <point x="277.71587188803016" y="1372.8866414080735"/>
      <point x="252.91244273318011" y="1230.8187281100234"/>
      <point x="239.96877897822407" y="1132.9017354613902" type="curve" smooth="yes"/>
      <point x="213.09027158869105" y="928.91488232734798" type="line" smooth="yes"/>
      <point x="192.82962232436498" y="709.86964974924149"/>
      <point x="328.47654470518216" y="578.44045457217544"/>
      <point x="542.24079873218921" y="569.62859818713605" type="curve"/>
      <point x="553.83349077446894" y="724.945232892891" type="line"/>
      <point x="446.13809576089716" y="737.56998077541994"/>
      <point x="447.70955646585293" y="836.85047428974497"/>
      <point x="458.48569139574579" y="927.5137442916174" type="curve" smooth="yes"/>
      <point x="486.41806699010078" y="1132.1465763851184" type="line" smooth="yes"/>
      <point x="509.01488266248975" y="1335.0624626672015"/>
      <point x="445.06222700308695" y="1516.3124219282276"/>
      <point x="246.31381609602954" y="1596.1143691411307" type="curve"/>
    </contour>
    <contour>
      <point x="-31.210781749295094" y="-363.78509733850007" type="line"/>
      <point x="192.4171828499147" y="-286.15597946859691"/>
      <point x="300.05319070601303" y="-123.39325440915022"/>
      <point x="330.37201397694804" y="106.23403347824117" type="curve" smooth="yes"/>
      <point x="358.03506625927383" y="308.73022631588321" type="line" smooth="yes"/>
      <point x="373.33361518425966" y="411.59697905588035"/>
      <point x="413.85177827381574" y="509.55355830167849"/>
      <point x="529.72824721670031" y="517.11431487116977" type="curve"/>
      <point x="542.86879291053071" y="671.1344886890173" type="line"/>
      <point x="305.56013864533304" y="665.05608195746424"/>
      <point x="139.19847881752517" y="553.18576844221354"/>
      <point x="109.64919204082915" y="308.9235883513997" type="curve" smooth="yes"/>
      <point x="82.715021916107673" y="106.05969700099469" type="line" smooth="yes"/>
      <point x="66.195417934156239" y="-8.8007422098230563"/>
      <point x="39.607157679341924" y="-138.14219900326151"/>
      <point x="-72.075131270672728" y="-196.66528392476297" type="curve"/>
    </contour>
  </outline>
</glyph>
<glyph name="asciitilde" format="1">
  <advance width="1106.77"/>
  <unicode hex="007E"/>
  <outline>
    <contour>
      <point x="835.88378143125965" y="794.50616166346151" type="line"/>
      <point x="825.72752430205207" y="731.23328699527406"/>
      <point x="798.15338376012096" y="611.99837916041486"/>
      <point x="712.92558710804462" y="612.90686176665395" type="curve" smooth="yes"/>
      <point x="662.97710667368483" y="613.43928578164912"/>
      <point x="635.15095642252209" y="660.98406799598047"/>
      <point x="609.64852499644348" y="696.37432889754609" type="curve" smooth="yes"/>
      <point x="557.52816228087693" y="768.70285334176447"/>
      <point x="484.44911535098095" y="826.06248492781356"/>
      <point x="392.22860959070306" y="828.60181400849547" type="curve" smooth="yes"/>
      <point x="172.64789610035959" y="834.64805813528778"/>
      <point x="88.431972023896819" y="594.11778189679455"/>
      <point x="73.74755696728883" y="414.62685542064634" type="curve"/>
      <point x="274.50545617515417" y="413.39648532957142" type="line"/>
      <point x="284.11912502512632" y="475.79215976632639"/>
      <point x="308.8410197246946" y="592.06268890328977"/>
      <point x="393.12352977612107" y="590.99224411436876" type="curve" smooth="yes"/>
      <point x="443.48643134652531" y="590.35260125717241"/>
      <point x="472.16784899670097" y="543.35300400918163"/>
      <point x="498.30396958924587" y="507.63791796027863" type="curve" smooth="yes"/>
      <point x="551.16515738053795" y="435.40294858415274"/>
      <point x="620.45990134133183" y="376.60665476664843"/>
      <point x="713.67076588443865" y="374.28161060649592" type="curve" smooth="yes"/>
      <point x="933.49873105185463" y="368.79823987330917"/>
      <point x="1019.0528798083062" y="615.76184025961084"/>
      <point x="1032.9855792992362" y="794.76919469237771" type="curve"/>
    </contour>
  </outline>
</glyph>
<glyph name="exclamdown" format="1">
  <advance width="539.3199999999999"/>
  <unicode hex="00A1"/>
  <outline>
    <contour>
      <point x="-44.925173496717036" y="-368.89728382961277" type="line"/>
      <point x="248.8009314270252" y="-368.95420760961986" type="line"/>
      <point x="391.45421127310112" y="637.97341815230163" type="line"/>
      <point x="162.73918291103024" y="637.91023812826711" type="line"/>
    </contour>
    <contour>
      <point x="481.75666235923791" y="953.38293819154035" type="curve" smooth="yes"/>
      <point x="481.02373863334219" y="1038.4233465348552"/>
      <point x="418.95788602699923" y="1105.0611546708665"/>
      <point x="332.45484170640401" y="1103.4179258444813" type="curve" smooth="yes"/>
      <point x="243.11646664576008" y="1101.7208365182607"/>
      <point x="181.71878760800513" y="1029.6273180662031"/>
      <point x="182.51730641022158" y="942.29507110386578" type="curve" smooth="yes"/>
      <point x="183.2967848094568" y="857.04523118166628"/>
      <point x="244.79225521431169" y="790.2024242713195"/>
      <point x="331.7096127959457" y="791.83806943722379" type="curve" smooth="yes"/>
      <point x="421.36222703725662" y="793.52518774333157"/>
      <point x="482.51115321006233" y="865.84011787010616"/>
    </contour>
  </outline>
</glyph>
<glyph name="cent" format="1">
  <advance width="1011.7099999999999"/>
  <unicode hex="00A2"/>
  <outline>
    <contour>
      <point x="730.24041366278277" y="1317.9149124185008" type="line"/>
      <point x="543.24249232240595" y="1317.9240966512111" type="line"/>
      <point x="491.8731822591144" y="1026.0834835564581" type="line"/>
      <point x="678.87110257364964" y="1026.0742992799371" type="line"/>
    </contour>
    <contour>
      <point x="509.86277334105898" y="45.916020973289605" type="line"/>
      <point x="322.86485328275376" y="45.925208123967529" type="line"/>
      <point x="271.67146560469052" y="-244.91588481108425" type="line"/>
      <point x="458.6693862337122" y="-244.92507192869073" type="line"/>
    </contour>
    <contour>
      <point x="443.32841499607594" y="213.25582051596086" type="curve" smooth="yes"/>
      <point x="308.67864485197254" y="216.85762795839747"/>
      <point x="351.45636812695278" y="444.18934308492692"/>
      <point x="359.3264998607973" y="525.44223137671804" type="curve" smooth="yes"/>
      <point x="361.95780735404753" y="553.06229813823063" type="line" smooth="yes"/>
      <point x="373.19181656692763" y="661.26211789713955"/>
      <point x="394.4374973742805" y="874.75410434841262"/>
      <point x="546.68207859991116" y="868.88480335431063" type="curve" smooth="yes"/>
      <point x="644.82999969962498" y="865.10102539491083"/>
      <point x="647.90549254030395" y="751.25319518827621"/>
      <point x="644.75106310706747" y="677.61832589578614" type="curve"/>
      <point x="903.30065312513352" y="677.26785366107708" type="line"/>
      <point x="912.4522405562326" y="894.98134076553345"/>
      <point x="818.21422859083532" y="1095.8882593565429"/>
      <point x="576.51251617721448" y="1102.3559378218019" type="curve" smooth="yes"/>
      <point x="269.27993943645777" y="1110.5771518983154"/>
      <point x="118.7600099669653" y="820.90725068856113"/>
      <point x="86.123417217111339" y="553.38550283662539" type="curve" smooth="yes"/>
      <point x="82.819246921417246" y="524.42423593658441" type="line" smooth="yes"/>
      <point x="56.551734694305551" y="275.76345996577567"/>
      <point x="128.45431158987117" y="-13.352245687031701"/>
      <point x="426.4161221244276" y="-20.707450792337678" type="curve" smooth="yes"/>
      <point x="656.12400220558311" y="-26.3778035441578"/>
      <point x="822.99727680365027" y="155.14227250998465"/>
      <point x="841.44898275942239" y="375.29315832238774" type="curve"/>
      <point x="583.92970553468888" y="374.2284937946431" type="line"/>
      <point x="571.00131894831804" y="298.6617749998087"/>
      <point x="534.48035052608077" y="210.81755627360002"/>
    </contour>
  </outline>
</glyph>
<glyph name="sterling" format="1">
  <advance width="1041.78"/>
  <unicode hex="00A3"/>
  <outline>
    <contour>
      <point x="878.58911826315489" y="0.0" type="line"/>
      <point x="922.4501538851855" y="243.90050868718595" type="line"/>
      <point x="41.834547788572806" y="243.91652045961246" type="line"/>
      <point x="-1.0524177738712837" y="0.0" type="line"/>
    </contour>
    <contour>
      <point x="744.55809544997169" y="576.08032937627752" type="line"/>
      <point x="786.21644358867729" y="812.90607410654036" type="line"/>
      <point x="137.49963650507402" y="812.91933862820292" type="line"/>
      <point x="95.841288366363486" y="576.09359389793815" type="line"/>
    </contour>
    <contour>
      <point x="569.33638016155135" y="1039.7252572374216" type="line" smooth="yes"/>
      <point x="578.1665590025724" y="1109.4250751121394"/>
      <point x="608.41236926184524" y="1235.020267287917"/>
      <point x="700.3809886180411" y="1233.5187745403673" type="curve" smooth="yes"/>
      <point x="791.59356352005739" y="1232.029625082004"/>
      <point x="792.14697454972156" y="1123.6261544841414"/>
      <point x="788.86143263010501" y="1057.7764860657112" type="curve"/>
      <point x="1063.7459326755343" y="1057.2682850751621" type="line"/>
      <point x="1073.6950377467715" y="1282.8265340554315"/>
      <point x="971.05109330083087" y="1469.303439950216"/>
      <point x="726.38943134733256" y="1475.6160193198239" type="curve" smooth="yes"/>
      <point x="468.07722086343063" y="1482.2808000533432"/>
      <point x="313.47915770011184" y="1278.1812668240129"/>
      <point x="285.18776058718811" y="1038.6914068286912" type="curve" smooth="yes"/>
      <point x="199.03217488054338" y="422.16371358862489" type="line" smooth="yes"/>
      <point x="189.23197487206818" y="361.02592997384687"/>
      <point x="176.43263625194018" y="275.34968416940967"/>
      <point x="114.41080599491438" y="245.56173120931723" type="curve"/>
      <point x="291.98954383491633" y="154.83377216135102" type="line"/>
      <point x="413.96803837164919" y="214.70661250165259"/>
      <point x="480.05727205986153" y="303.83664558130124"/>
      <point x="495.14890644377886" y="439.6811330971808" type="curve" smooth="yes"/>
    </contour>
  </outline>
</glyph>
<glyph name="currency" format="1">
  <advance width="1374.49"/>
  <unicode hex="00A4"/>
  <outline>
    <contour>
      <point x="296.80866739492745" y="598.83890276536454" type="curve" smooth="yes"/>
      <point x="328.80347147312801" y="833.01094570729629"/>
      <point x="527.96839080216193" y="1052.4984719777085"/>
      <point x="776.08281889380885" y="1045.0075398486522" type="curve" smooth="yes"/>
      <point x="1003.6299380800326" y="1038.1375644139439"/>
      <point x="1115.0822486843883" y="824.21296161584655"/>
      <point x="1086.7581382672331" y="617.01984308602835" type="curve" smooth="yes"/>
      <point x="1054.8739609255488" y="383.78455209591283"/>
      <point x="855.87864999747637" y="162.40643184798861"/>
      <point x="608.28957740553085" y="169.82542700004234" type="curve" smooth="yes"/>
      <point x="379.77932372994451" y="176.67272622236226"/>
      <point x="268.3828427988181" y="390.78845176993809"/>
    </contour>
    <contour>
      <point x="113.72890862063248" y="600.14794638129024" type="curve" smooth="yes"/>
      <point x="80.41907855041147" y="289.97567532770375"/>
      <point x="269.46615660147052" y="-13.884393674647477"/>
      <point x="601.78446159806822" y="-20.892437616208863" type="curve" smooth="yes"/>
      <point x="952.38878277955041" y="-28.28610342395389"/>
      <point x="1232.8881528250554" y="281.60539410637313"/>
      <point x="1268.8389230618561" y="615.66705958578245" type="curve" smooth="yes"/>
      <point x="1302.1876052381467" y="925.54960830378457"/>
      <point x="1114.4269864248963" y="1227.7666145699925"/>
      <point x="782.42131692273631" y="1234.7341381951778" type="curve" smooth="yes"/>
      <point x="431.50655736778668" y="1242.0984909825613"/>
      <point x="149.7426926360921" y="935.49871682232197"/>
    </contour>
    <contour>
      <point x="1396.1159448392614" y="1108.8159206721889" type="line"/>
      <point x="1274.1777262886321" y="1265.1539230817093" type="line"/>
      <point x="1054.5379141874421" y="1070.215799594052" type="line"/>
      <point x="1175.4803995774155" y="913.81016867307983" type="line"/>
    </contour>
    <contour>
      <point x="337.96679183699428" y="168.83408451899712" type="line"/>
      <point x="216.53056210635344" y="323.22029391062546" type="line"/>
      <point x="-3.7629205389481371" y="129.12981671936885" type="line"/>
      <point x="117.34109300181892" y="-26.164250855304463" type="line"/>
    </contour>
    <contour>
      <point x="1070.7493770485557" y="-27.213895493941585" type="line"/>
      <point x="1222.6010430144584" y="106.93642181208281" type="line"/>
      <point x="1052.5727067211305" y="323.15501045938379" type="line"/>
      <point x="902.10310288889139" y="190.12582371861868" type="line"/>
    </contour>
    <contour>
      <point x="339.47129459044959" y="913.80809773196177" type="line"/>
      <point x="490.03143270009775" y="1046.8661797866359" type="line"/>
      <point x="320.4693254433588" y="1264.1722116230928" type="line"/>
      <point x="169.77580455649604" y="1131.1395717473788" type="line"/>
    </contour>
  </outline>
</glyph>
<glyph name="yen" format="1">
  <advance width="943.81"/>
  <unicode hex="00A5"/>
  <outline>
    <contour>
      <point x="854.43676442676565" y="741.90985952532139" type="line"/>
      <point x="114.54119453912683" y="741.92209251257418" type="line"/>
      <point x="83.602475593546572" y="567.09206826879938" type="line"/>
      <point x="823.49804548119255" y="567.07983528154728" type="line"/>
    </contour>
    <contour>
      <point x="804.25107164391829" y="451.90207853038527" type="line"/>
      <point x="64.356075631513974" y="451.91354143174823" type="line"/>
      <point x="33.475383236567453" y="278.09899655723308" type="line"/>
      <point x="773.37037924897413" y="278.08753365586779" type="line"/>
    </contour>
    <contour>
      <point x="419.84283691959217" y="726.5203354947846" type="line"/>
      <point x="439.33609100914725" y="555.98684112558431" type="line"/>
      <point x="596.80460081462138" y="556.25097159166" type="line"/>
      <point x="1074.3692151911025" y="1455.7132024934724" type="line"/>
      <point x="767.28681249002648" y="1455.8028137176739" type="line"/>
    </contour>
    <contour>
      <point x="467.03758017892449" y="1456.0278320116274" type="line"/>
      <point x="177.27569391811488" y="1456.0264726893954" type="line"/>
      <point x="345.11059035190891" y="555.92340214509852" type="line"/>
      <point x="500.4416141333536" y="556.28436627093322" type="line"/>
      <point x="568.74037827649636" y="688.31700962192713" type="line"/>
    </contour>
    <contour>
      <point x="640.17560992821097" y="759.92767097012745" type="line"/>
      <point x="353.26509545553165" y="759.94084334764796" type="line"/>
      <point x="221.17842117783243" y="0.0" type="line"/>
      <point x="508.08893565051198" y="0.0" type="line"/>
    </contour>
  </outline>
</glyph>
<glyph name="brokenbar" format="1">
  <advance width="501.49"/>
  <unicode hex="00A6"/>
  <outline>
    <contour>
      <point x="227.5264128682337" y="-269.9487032667238" type="line"/>
      <point x="365.70142653489995" y="524.935496079238" type="line"/>
      <point x="110.80434048615437" y="524.9483954730214" type="line"/>
      <point x="-27.370673180510423" y="-269.9358038729358" type="line"/>
    </contour>
    <contour>
      <point x="526.9962863640644" y="1455.934886135883" type="line"/>
      <point x="272.0969423307238" y="1455.9477964944813" type="line"/>
      <point x="140.34024948626524" y="698.0625139127345" type="line"/>
      <point x="395.2395935196117" y="698.0496035541565" type="line"/>
    </contour>
  </outline>
</glyph>
<glyph name="section" format="1">
  <advance width="1098.04"/>
  <unicode hex="00A7"/>
  <outline>
    <contour>
      <point x="497.54410068043683" y="137.38169045080485" type="line"/>
      <point x="728.36963098311924" y="141.26119196664681"/>
      <point x="959.33962701006828" y="228.75304236537744"/>
      <point x="976.70080494610056" y="490.70568917700717" type="curve" smooth="yes"/>
      <point x="992.21129000992494" y="724.73431504394557"/>
      <point x="841.17571962077307" y="828.81031320804721"/>
      <point x="642.47430818703037" y="904.60998062487499" type="curve" smooth="yes"/>
      <point x="551.26733309147335" y="939.40318278913549"/>
      <point x="452.06569283602249" y="975.04880891830919"/>
      <point x="469.4555498387557" y="1089.3091728398419" type="curve" smooth="yes"/>
      <point x="483.99302064687311" y="1184.827882670123"/>
      <point x="560.81118056947264" y="1241.2582530896041"/>
      <point x="655.96501529558407" y="1239.673992000819" type="curve" smooth="yes"/>
      <point x="764.86046499414238" y="1237.8609402809409"/>
      <point x="789.85272784894505" y="1140.9676935845664"/>
      <point x="785.84303801169528" y="1049.5420662190447" type="curve"/>
      <point x="1061.182758598206" y="1049.2850666840066" type="line"/>
      <point x="1071.5566035184481" y="1302.5156458799806"/>
      <point x="936.29224203439651" y="1470.9854767090567"/>
      <point x="676.04162649227021" y="1476.2813341276899" type="curve" smooth="yes"/>
      <point x="435.45243592420411" y="1481.1770998766344"/>
      <point x="213.89458462506721" y="1341.6585613684038"/>
      <point x="195.85748210324516" y="1087.1003509917405" type="curve" smooth="yes"/>
      <point x="178.54085843357609" y="842.71028192249639"/>
      <point x="332.4586835401812" y="747.11353967854484"/>
      <point x="533.53940899770907" y="660.20415673809111" type="curve" smooth="yes"/>
      <point x="622.14518632354793" y="621.90772919723054"/>
      <point x="714.23991177488381" y="572.11919069564328"/>
      <point x="696.87738465404232" y="462.50974415953567" type="curve" smooth="yes"/>
      <point x="680.86069521236084" y="361.39655638308125"/>
      <point x="613.51583881114834" y="289.35283473634604"/>
      <point x="510.20071301576218" y="281.85548076585059" type="curve"/>
    </contour>
    <contour>
      <point x="545.04413431969954" y="879.78592767931127" type="line"/>
      <point x="317.67951317813043" y="875.6106069872144"/>
      <point x="96.734481492541747" y="781.31364040259052"/>
      <point x="79.883859128368883" y="526.44480046725789" type="curve" smooth="yes"/>
      <point x="64.478632535804351" y="293.43784406333111"/>
      <point x="214.39059208562512" y="192.0227841147892"/>
      <point x="410.01308170221887" y="113.45618569965463" type="curve" smooth="yes"/>
      <point x="492.87617853411274" y="80.176414723497999"/>
      <point x="603.68702710921059" y="36.364930136594907"/>
      <point x="586.75277859659502" y="-71.341884630974562" type="curve" smooth="yes"/>
      <point x="571.81495748768054" y="-166.35083232713853"/>
      <point x="492.76938031644391" y="-215.22547846399749"/>
      <point x="400.81787797433111" y="-214.84871301054679" type="curve" smooth="yes"/>
      <point x="285.77558861657451" y="-214.3773345206705"/>
      <point x="248.40780448971159" y="-139.73434293038804"/>
      <point x="253.50310426382043" y="-33.781971794168825" type="curve"/>
      <point x="-22.067631343840461" y="-34.195276611276753" type="line"/>
      <point x="-32.370187039997752" y="-296.69819723806131"/>
      <point x="121.97228404571348" y="-448.03574835229375"/>
      <point x="381.52575293844882" y="-452.64757207617839" type="curve" smooth="yes"/>
      <point x="623.89507126495039" y="-456.9540626693049"/>
      <point x="842.2625486374202" y="-328.87995162466723"/>
      <point x="860.34190512196926" y="-70.223208108960449" type="curve" smooth="yes"/>
      <point x="877.72955949694187" y="178.53752968890495"/>
      <point x="725.05107819945022" y="269.87164339389545"/>
      <point x="519.66342805860177" y="355.86944677015799" type="curve" smooth="yes"/>
      <point x="422.95128643965052" y="396.36375951651968"/>
      <point x="346.49493413802395" y="441.48545149008748"/>
      <point x="363.72556613838248" y="555.45027813197464" type="curve" smooth="yes"/>
      <point x="378.40761185598524" y="652.55854409227413"/>
      <point x="430.27081320127883" y="723.50474822904766"/>
      <point x="531.83174863819818" y="732.29196568898101" type="curve"/>
    </contour>
  </outline>
</glyph>
